<?xml version="1.0" encoding="utf-8"?>
<!-- Generator: Adobe Illustrator 17.0.0, SVG Export Plug-In . SVG Version: 6.00 Build 0)  -->
<!DOCTYPE svg PUBLIC "-//W3C//DTD SVG 1.1//EN" "http://www.w3.org/Graphics/SVG/1.1/DTD/svg11.dtd">
<svg version="1.1" id="Capa_1" xmlns="http://www.w3.org/2000/svg" xmlns:xlink="http://www.w3.org/1999/xlink" x="0px" y="0px"
	 width="500px" height="500px" viewBox="-305.5 396.5 500 500" enable-background="new -305.5 396.5 500 500" xml:space="preserve">
<g>
	<g>
		<g>
			<polygon fill="#91451D" points="-125.354,471.091 -113.567,463.169 -131.054,449.933 			"/>
			<polygon fill="#C23E18" points="-125.354,471.091 -92.891,520.173 -113.567,463.169 			"/>
			<polygon fill="#BA562B" points="-113.567,463.169 -87.094,482.106 -92.891,520.173 			"/>
			<polygon fill="#CA5C2C" points="-87.094,482.106 -69.026,517.081 -92.891,520.173 			"/>
			<polygon fill="#B97B48" points="-87.094,482.106 -63.133,482.106 -69.026,517.081 			"/>
			<polygon fill="#BA562B" points="-63.133,482.106 -55.5,517.081 -69.026,517.081 			"/>
			<polygon fill="#C23E18" points="-63.133,482.106 -55.5,481.333 -55.5,517.081 			"/>
			<polygon fill="#C15619" points="-63.133,482.106 -55.5,446.841 -55.5,481.333 			"/>
			<polygon fill="#BA562B" points="-87.094,482.106 -81.007,456.406 -63.133,482.106 			"/>
			<polygon fill="#8F7C48" points="-125.354,471.091 -109.122,531.96 -92.891,520.173 			"/>
			<polygon fill="#87381D" points="-125.354,471.091 -134.146,485.778 -109.122,531.96 			"/>
			<polygon fill="#E0A96F" points="-134.146,485.778 -228.638,401.237 -183.421,463.169 			"/>
			<polygon fill="#737271" points="-228.638,401.237 -187.672,406.359 -194.242,432.058 			"/>
			<polygon fill="#506081" points="-187.672,406.359 -162.261,422.397 -194.242,432.058 			"/>
			<polygon fill="#384D52" points="-162.261,422.397 -171.44,452.348 -194.242,432.058 			"/>
			<polygon fill="#47302C" points="-162.261,422.397 -144.774,437.372 -171.44,452.348 			"/>
			<polygon fill="#71381B" points="-144.774,437.372 -153.759,468.193 -171.44,452.348 			"/>
			<polygon fill="#444B4B" points="-144.774,437.372 -131.054,449.933 -153.759,468.193 			"/>
			<polygon fill="#68524C" points="-131.054,449.933 -125.354,471.091 -153.759,468.193 			"/>
			<polygon fill="#575756" points="-153.759,468.193 -134.146,485.778 -125.354,471.091 			"/>
			<polygon fill="#DC9B52" points="-228.638,401.237 -214.435,489.449 -253.468,476.599 			"/>
			<polygon fill="#E7BB75" points="-214.435,489.449 -237.817,517.081 -253.468,476.599 			"/>
			<polygon fill="#B97B48" points="-214.435,489.449 -181.392,482.106 -217.624,469.256 			"/>
			<polygon fill="#D89180" points="-214.435,489.449 -206.512,518.724 -237.817,517.081 			"/>
			<polygon fill="#E0C570" points="-237.817,517.081 -231.343,540.946 -206.512,518.724 			"/>
			<polygon fill="#CD6D42" points="-214.435,489.449 -176.078,504.522 -206.512,518.724 			"/>
			<polygon fill="#BF944A" points="-214.435,489.449 -181.392,482.106 -176.078,504.522 			"/>
			<polygon fill="#AFA92B" points="-217.624,469.256 -183.421,463.169 -181.392,482.106 			"/>
			<polygon fill="#BF944A" points="-217.624,469.256 -222.164,443.556 -183.421,463.169 			"/>
			<polygon fill="#E7B953" points="-228.638,401.237 -222.164,443.556 -183.421,463.169 			"/>
			<polygon fill="#D89180" points="-181.392,482.106 -134.146,485.778 -183.421,463.169 			"/>
			<polygon fill="#D4834D" points="-181.392,482.106 -109.122,531.96 -134.146,485.778 			"/>
			<polygon fill="#CF7150" points="-176.078,504.522 -109.122,531.96 -166.512,531.96 			"/>
			<polygon fill="#CA5C2C" points="-166.512,531.96 -153.759,551.671 -109.122,531.96 			"/>
			<polygon fill="#B97B48" points="-206.512,518.724 -166.512,531.96 -176.078,504.522 			"/>
			<polygon fill="#8F7C48" points="-206.512,518.724 -199.556,544.617 -166.512,531.96 			"/>
			<polygon fill="#518063" points="-199.556,544.617 -153.759,551.671 -188.638,575.148 			"/>
			<polygon fill="#AF5C25" points="-199.556,544.617 -166.512,531.96 -153.759,551.671 			"/>
			<polygon fill="#E7B953" points="-231.343,540.946 -199.556,544.617 -206.512,518.724 			"/>
			<polygon fill="#DC9B52" points="-231.343,540.946 -208.735,603.263 -199.556,544.617 			"/>
			<polygon fill="#D4834D" points="-199.556,544.617 -188.638,575.148 -208.735,603.263 			"/>
			<polygon fill="#68524C" points="-113.373,711.281 -136.176,702.393 -113.663,688.094 -102.359,691.572 			"/>
			<polygon fill="#47302C" points="-144.774,681.331 -136.176,702.393 -113.663,688.094 			"/>
			<polygon fill="#CD6D42" points="-181.392,482.106 -176.078,504.522 -109.122,531.96 			"/>
			<polygon fill="#87381D" points="-146.996,660.267 -144.774,622.974 -113.953,664.132 			"/>
			<polygon fill="#47302C" points="-146.996,660.267 -129.122,658.142 -113.953,664.132 -106.031,675.244 -102.359,691.572 
				-111.538,696.596 -106.224,690.702 -113.663,688.094 -131.827,689.06 -144.774,681.331 			"/>
			<g>
				<path fill="#BA562B" d="M-126.32,669.446c6.667,0,12.271,4.057,14.203,9.565c0.483-1.353,0.676-2.706,0.676-4.251
					c0-7.633-6.667-13.816-14.975-13.816c-8.212,0-14.975,6.183-14.975,13.816c0,1.449,0.29,2.898,0.676,4.251
					C-138.687,673.505-132.987,669.446-126.32,669.446z"/>
				<path fill="#E6B870" d="M-126.32,688.576c6.667,0,12.271-4.057,14.203-9.565c-1.932-5.604-7.536-9.565-14.203-9.565
					s-12.271,4.057-14.203,9.565C-138.687,684.615-132.987,688.576-126.32,688.576z"/>
			</g>
			<g>
				<line fill="none" x1="-126.32" y1="664.616" x2="-126.32" y2="685.388"/>
				<path fill="#47302C" d="M-126.32,664.616c0,0,0.096,0.096,0.29,0.194c0.096,0.194,0.386,0.386,0.58,0.676
					c0.194,0.29,0.58,0.58,0.773,1.063c0.29,0.386,0.58,0.869,0.869,1.353c0.58,0.966,1.063,2.126,1.353,3.285
					c0.29,1.257,0.483,2.512,0.483,3.769s-0.194,2.608-0.483,3.769c-0.29,1.257-0.773,2.319-1.353,3.285
					c-0.29,0.483-0.58,0.966-0.869,1.353c-0.29,0.386-0.58,0.773-0.773,1.063c-0.194,0.29-0.483,0.483-0.58,0.676
					c-0.194,0.194-0.29,0.194-0.29,0.194s-0.096-0.096-0.29-0.194c-0.096-0.194-0.386-0.386-0.58-0.676s-0.58-0.58-0.773-1.063
					c-0.29-0.386-0.58-0.869-0.869-1.353c-0.58-0.966-1.063-2.126-1.353-3.285c-0.29-1.257-0.483-2.512-0.483-3.769
					s0.194-2.608,0.483-3.769c0.29-1.257,0.773-2.318,1.353-3.285c0.29-0.483,0.58-0.966,0.869-1.353
					c0.29-0.386,0.58-0.773,0.773-1.063c0.194-0.29,0.483-0.483,0.58-0.676C-126.417,664.712-126.32,664.616-126.32,664.616z"/>
			</g>
			<path fill="#C23E18" d="M-106.031,675.244"/>
			<polygon fill="#C23E18" points="-84.195,629.544 -106.031,675.244 -87.866,687.223 			"/>
			<polygon fill="#91451D" points="-102.359,691.572 -87.866,687.223 -106.031,675.244 			"/>
			<polygon fill="#87381D" points="-111.538,696.596 -113.373,711.281 -87.866,687.223 -102.359,691.572 			"/>
			<polygon fill="#47302C" points="-144.774,681.331 -180.426,673.891 -146.996,660.267 			"/>
			<polygon fill="#C23E18" points="-144.774,622.974 -113.953,646.645 -113.953,664.132 			"/>
			<polygon fill="#87381D" points="-113.953,646.645 -102.745,630.219 -99.847,662.201 			"/>
			<polygon fill="#71381B" points="-113.953,646.645 -120.62,613.891 -102.745,630.219 			"/>
			<polygon fill="#C25B19" points="-102.745,630.219 -84.195,629.544 -99.847,662.201 			"/>
			<polygon fill="#C14A18" points="-144.774,622.974 -120.62,613.891 -113.953,646.645 			"/>
			<polygon fill="#AE4817" points="-146.996,660.267 -176.948,640.268 -145.547,635.727 			"/>
			<polygon fill="#C15619" points="-176.948,640.268 -144.774,622.974 -145.547,635.727 			"/>
			<polygon fill="#91451D" points="-180.426,673.891 -184.58,658.142 -146.996,660.267 			"/>
			<polygon fill="#C15619" points="-176.948,640.268 -184.58,658.142 -146.996,660.267 			"/>
			<polygon fill="#91451D" points="-136.176,702.393 -129.315,725.001 -113.373,711.281 			"/>
			<polygon fill="#87381D" points="-180.426,673.891 -167.093,699.688 -144.774,681.331 			"/>
			<polygon fill="#91451D" points="-144.774,681.331 -136.176,702.393 -167.093,699.688 			"/>
			<polygon fill="#C15619" points="-167.093,699.688 -171.054,739.59 -136.176,702.393 			"/>
			<polygon fill="#A64219" points="-136.176,702.393 -129.315,725.001 -171.054,739.59 			"/>
			<polygon fill="#D78C1D" points="-136.176,745.967 -171.054,750.122 -199.17,734.276 			"/>
			<polygon fill="#E7BB75" points="-136.176,745.967 -117.432,775.919 -171.054,750.122 			"/>
			<polygon fill="#F1D78F" points="-171.054,750.122 -167.673,773.02 -117.432,775.919 			"/>
			<polygon fill="#D1D2D4" points="-117.432,775.919 -122.456,804.71 -167.673,773.02 			"/>
			<polygon fill="#D89180" points="-199.17,734.276 -211.633,766.836 -167.673,773.02 			"/>
			<polygon fill="#D1BA2D" points="-199.17,734.276 -167.673,773.02 -171.054,750.122 			"/>
			<polygon fill="#E7B953" points="-85.741,816.691 -91.635,743.165 -100.62,790.7 			"/>
			<polygon fill="#E0C570" points="-86.997,800.653 -68.64,782.102 -91.635,743.165 			"/>
			<polygon fill="#E9C39D" points="-68.64,782.102 -55.5,782.102 -55.5,748.092 			"/>
			<polygon fill="#DC9B52" points="-91.635,743.165 -55.5,748.092 -68.64,782.102 			"/>
			<polygon fill="#F9F0AF" points="-122.456,804.71 -100.62,790.7 -85.741,816.691 			"/>
			<polygon fill="#DFECDD" points="-122.456,804.71 -117.432,830.217 -85.741,816.691 			"/>
			<polygon fill="#E8E9EA" points="-85.741,816.691 -95.692,840.845 -117.432,830.217 			"/>
			<polygon fill="#D1D2D4" points="-85.741,816.691 -74.05,825.483 -95.692,840.845 			"/>
			<polygon fill="#B0D3D7" points="-74.05,825.483 -62.071,830.217 -73.857,842.874 			"/>
			<polygon fill="#CCD1E3" points="-74.05,825.483 -73.857,842.874 -95.692,840.845 			"/>
			<polygon fill="#CCD1E3" points="-62.071,830.217 -55.5,833.212 -55.5,842.874 -73.857,842.874 			"/>
			<polygon fill="#C2C2C6" points="-95.692,840.845 -73.567,854.758 -73.857,842.874 			"/>
			<polygon fill="#B6BACB" points="-73.567,854.758 -55.5,857.56 -55.5,842.874 -73.857,842.874 			"/>
			<polygon fill="#002F3F" points="-69.413,803.744 -73.857,812.053 -62.071,830.217 			"/>
			<polygon fill="#384D52" points="-73.857,812.053 -85.741,816.691 -74.05,825.483 			"/>
			<polygon fill="#3E3855" points="-73.857,812.053 -86.997,800.653 -85.741,816.691 			"/>
			<polygon fill="#68524C" points="-73.857,812.053 -68.64,782.102 -86.997,800.653 			"/>
			<polygon fill="#71381B" points="-68.64,782.102 -69.413,803.744 -73.857,812.053 			"/>
			<polygon fill="#506081" points="-69.413,803.744 -55.5,782.102 -68.64,782.102 			"/>
			<polygon fill="#613860" points="-62.071,830.217 -73.857,812.053 -74.05,825.483 			"/>
			<polygon fill="#3E3855" points="-69.413,803.744 -55.5,782.102 -62.071,830.217 			"/>
			<polygon fill="#384D52" points="-62.071,830.217 -55.5,833.212 -55.5,782.102 			"/>
			<polygon fill="#C2C2C6" points="-117.432,830.217 -126.03,849.734 -95.692,840.845 			"/>
			<polygon fill="#9FADB2" points="-95.692,840.845 -121.875,871.086 -126.03,849.734 			"/>
			<polygon fill="#B6BACB" points="-95.692,840.845 -95.692,864.323 -121.875,871.086 			"/>
			<polygon fill="#B4A3BB" points="-95.692,840.845 -73.567,854.758 -95.692,864.323 			"/>
			<polygon fill="#B6BACB" points="-73.567,854.758 -85.741,891.569 -95.692,864.323 			"/>
			<polygon fill="#7BAA98" points="-73.567,854.758 -55.5,891.763 -55.5,857.56 			"/>
			<polygon fill="#96BEE5" points="-81.587,878.913 -55.5,891.763 -73.567,854.758 			"/>
			<polygon fill="#D27B60" points="-117.432,775.919 -91.635,743.165 -100.62,790.7 			"/>
			<polygon fill="#D89180" points="-117.432,775.919 -122.456,804.71 -100.62,790.7 			"/>
			<polygon fill="#D4834D" points="-117.432,775.919 -136.176,745.967 -91.635,743.165 			"/>
			<polygon fill="#D1BA2D" points="-91.635,743.165 -55.5,726.547 -55.5,748.092 			"/>
			<polygon fill="#CF7150" points="-87.866,687.223 -71.248,707.514 -91.635,743.165 			"/>
			<polygon fill="#CE6D33" points="-87.866,687.223 -113.373,711.281 -91.635,743.165 			"/>
			<polygon fill="#D78C1D" points="-87.866,687.223 -63.906,683.359 -55.5,726.547 			"/>
			<polygon fill="#CE6D33" points="-63.906,683.359 -55.5,683.359 -55.5,660.267 			"/>
			<polygon fill="#CD6D42" points="-63.906,683.359 -71.248,660.267 -87.866,687.223 			"/>
			<polygon fill="#BA562B" points="-71.248,660.267 -84.195,629.544 -87.866,687.223 			"/>
			<polygon fill="#D1762A" points="-63.906,683.359 -55.5,726.547 -55.5,683.359 			"/>
			<polygon fill="#D4834D" points="-71.636,706.934 -91.635,743.165 -55.5,726.547 			"/>
			<polygon fill="#C95933" points="-129.315,725.001 -91.635,743.165 -113.373,711.281 			"/>
			<polygon fill="#CA5C2C" points="-129.315,725.001 -136.176,745.967 -91.635,743.165 			"/>
			<polygon fill="#C95933" points="-171.054,739.59 -136.176,745.967 -129.315,725.001 			"/>
			<polygon fill="#AE4817" points="-113.953,646.645 -113.953,664.132 -106.031,675.244 -99.847,662.201 			"/>
			<polygon fill="#CE8F82" points="-231.343,540.946 -243.517,563.361 -208.735,603.263 			"/>
			<polygon fill="#C18474" points="-243.517,563.361 -239.168,591.67 -208.735,603.263 			"/>
			<polygon fill="#D27B60" points="-239.168,591.67 -215.401,621.911 -208.735,603.263 			"/>
			<polygon fill="#CD6D42" points="-239.168,591.67 -251.149,618.916 -215.401,621.911 			"/>
			<polygon fill="#D4834D" points="-251.149,618.916 -226.126,641.331 -215.401,621.911 			"/>
			<polygon fill="#CF7150" points="-251.149,618.916 -262.163,640.268 -226.126,641.331 			"/>
			<polygon fill="#DE9F31" points="-262.163,640.268 -239.942,664.23 -226.126,641.331 			"/>
			<polygon fill="#E7B953" points="-262.163,640.268 -279.844,677.37 -239.942,664.23 			"/>
			<polygon fill="#D1BA2D" points="-265.642,672.731 -239.942,685.388 -239.942,664.23 			"/>
			<polygon fill="#CE6D33" points="-208.735,603.263 -188.638,575.148 -144.774,622.974 			"/>
			<polygon fill="#D78C1D" points="-188.638,575.148 -153.759,551.671 -144.774,622.974 			"/>
			<polygon fill="#BF944A" points="-153.759,551.671 -120.62,613.891 -144.774,622.974 			"/>
			<polygon fill="#AFA92B" points="-153.759,551.671 -100.331,576.501 -120.62,613.891 			"/>
			<polygon fill="#D78C1D" points="-153.759,551.671 -109.122,531.96 -100.331,576.501 			"/>
			<polygon fill="#CF7150" points="-100.331,576.501 -102.745,630.219 -120.62,613.891 			"/>
			<polygon fill="#C95933" points="-100.331,576.501 -84.195,629.544 -102.745,630.219 			"/>
			<polygon fill="#D1762A" points="-100.331,576.501 -55.5,609.061 -84.195,629.544 			"/>
			<polygon fill="#CA5C2C" points="-100.331,576.501 -55.5,567.419 -55.5,609.061 			"/>
			<polygon fill="#CA5C2C" points="-92.891,520.173 -100.331,576.501 -109.122,531.96 			"/>
			<polygon fill="#CE6D33" points="-92.891,520.173 -55.5,567.419 -100.331,576.501 			"/>
			<polygon fill="#D78C1D" points="-84.195,629.544 -55.5,660.267 -71.248,660.267 			"/>
			<polygon fill="#D1762A" points="-71.248,660.267 -55.5,660.267 -63.906,683.359 			"/>
			<polygon fill="#D27C3E" points="-84.195,629.544 -55.5,609.061 -55.5,660.267 			"/>
			<polygon fill="#D27C3E" points="-92.891,520.173 -69.026,517.081 -55.5,567.419 			"/>
			<polygon fill="#D9913D" points="-69.026,517.081 -55.5,517.081 -55.5,567.419 			"/>
			<polygon fill="#87381D" points="-180.426,673.891 -202.261,685.388 -188.638,699.204 			"/>
			<polygon fill="#A64219" points="-202.261,685.388 -211.633,719.591 -188.638,699.204 			"/>
			<polygon fill="#C25B19" points="-211.633,719.591 -199.17,734.276 -252.792,765.097 			"/>
			<polygon fill="#D78C1D" points="-233.276,743.551 -239.168,710.219 -211.633,719.591 			"/>
			<polygon fill="#CA5C2C" points="-239.168,710.219 -202.261,685.388 -211.633,719.591 			"/>
			<polygon fill="#C15619" points="-188.638,699.204 -167.093,699.688 -180.426,673.891 			"/>
			<polygon fill="#CE6D33" points="-188.638,699.204 -199.17,734.276 -167.093,699.688 			"/>
			<polygon fill="#C95933" points="-188.638,699.204 -211.633,719.591 -199.17,734.276 			"/>
			<polygon fill="#CC6633" points="-167.093,699.688 -171.054,739.59 -199.17,734.276 			"/>
			<polygon fill="#CD6D42" points="-211.633,766.836 -228.154,750.991 -199.17,734.276 			"/>
			<polygon fill="#D27B60" points="-228.154,750.991 -239.942,774.083 -211.633,766.836 			"/>
			<polygon fill="#D27B60" points="-239.942,664.23 -202.261,685.388 -239.942,685.388 			"/>
			<polygon fill="#CD6D42" points="-239.942,685.388 -239.168,710.219 -202.261,685.388 			"/>
			<polygon fill="#B97B48" points="-239.942,664.23 -180.426,673.891 -202.261,685.388 			"/>
			<polygon fill="#8F7C48" points="-239.942,664.23 -184.58,658.142 -180.426,673.891 			"/>
			<polygon fill="#A97C48" points="-176.948,640.268 -239.942,664.23 -184.58,658.142 			"/>
			<polygon fill="#BF944A" points="-176.948,640.268 -226.126,641.331 -239.942,664.23 			"/>
			<polygon fill="#D88E37" points="-176.948,640.268 -215.401,621.911 -226.126,641.331 			"/>
			<polygon fill="#D88C28" points="-208.735,603.263 -176.948,640.268 -215.401,621.911 			"/>
			<polygon fill="#CF7150" points="-208.735,603.263 -144.774,622.974 -176.948,640.268 			"/>
			<polygon fill="#E0C570" points="-239.942,685.388 -289.507,706.547 -265.642,672.731 			"/>
			<polygon fill="#E7B953" points="-239.168,710.219 -269.024,697.755 -294.433,730.219 			"/>
			<polygon fill="#D1BA2D" points="-239.168,710.219 -274.628,723.069 -233.276,743.551 			"/>
			<polygon fill="#E0A96F" points="-274.628,723.069 -287.96,753.696 -253.951,733.311 			"/>
			<polygon fill="#DC9B52" points="-253.951,733.311 -233.276,743.551 -264.773,763.068 			"/>
			<polygon fill="#D4834D" points="-269.024,697.755 -239.942,685.388 -239.168,710.219 			"/>
			<polygon fill="#C2C2C6" points="-167.673,773.02 -186.223,787.223 -211.633,766.836 			"/>
			<polygon fill="#B0D3D7" points="-167.673,773.02 -122.456,804.71 -186.223,787.223 			"/>
			<polygon fill="#CCD1E3" points="-186.223,787.223 -188.638,812.053 -122.456,804.71 			"/>
			<polygon fill="#C2C2C6" points="-122.456,804.71 -171.054,831.763 -169.895,810.024 			"/>
			<polygon fill="#B6BACB" points="-122.456,804.71 -162.551,847.802 -155.596,823.068 			"/>
			<polygon fill="#B4A3BB" points="-162.551,847.802 -117.432,830.217 -122.456,804.71 			"/>
			<polygon fill="#7BAA98" points="-117.432,830.217 -126.03,849.734 -143.711,840.459 			"/>
		</g>
		<g>
			<polygon fill="#91451D" points="14.354,471.091 2.567,463.169 20.054,449.933 			"/>
			<polygon fill="#C23E18" points="14.354,471.091 -18.109,520.173 2.567,463.169 			"/>
			<polygon fill="#BA562B" points="2.567,463.169 -23.906,482.106 -18.109,520.173 			"/>
			<polygon fill="#CA5C2C" points="-23.906,482.106 -41.974,517.081 -18.109,520.173 			"/>
			<polygon fill="#B97B48" points="-23.906,482.106 -47.867,482.106 -41.974,517.081 			"/>
			<polygon fill="#BA562B" points="-47.867,482.106 -55.5,517.081 -41.974,517.081 			"/>
			<polygon fill="#C23E18" points="-47.867,482.106 -55.5,481.333 -55.5,517.081 			"/>
			<polygon fill="#C15619" points="-47.867,482.106 -55.5,446.841 -55.5,481.333 			"/>
			<polygon fill="#BA562B" points="-23.906,482.106 -29.993,456.406 -47.867,482.106 			"/>
			<polygon fill="#8F7C48" points="14.354,471.091 -1.878,531.96 -18.109,520.173 			"/>
			<polygon fill="#87381D" points="14.354,471.091 23.146,485.778 -1.878,531.96 			"/>
			<polygon fill="#E0A96F" points="23.146,485.778 117.638,401.237 72.421,463.169 			"/>
			<polygon fill="#737271" points="117.638,401.237 76.672,406.359 83.242,432.058 			"/>
			<polygon fill="#506081" points="76.672,406.359 51.261,422.397 83.242,432.058 			"/>
			<polygon fill="#384D52" points="51.261,422.397 60.44,452.348 83.242,432.058 			"/>
			<polygon fill="#47302C" points="51.261,422.397 33.774,437.372 60.44,452.348 			"/>
			<polygon fill="#71381B" points="33.774,437.372 42.759,468.193 60.44,452.348 			"/>
			<polygon fill="#444B4B" points="33.774,437.372 20.054,449.933 42.759,468.193 			"/>
			<polygon fill="#68524C" points="20.054,449.933 14.354,471.091 42.759,468.193 			"/>
			<polygon fill="#575756" points="42.759,468.193 23.146,485.778 14.354,471.091 			"/>
			<polygon fill="#DC9B52" points="117.638,401.237 103.435,489.449 142.468,476.599 			"/>
			<polygon fill="#E7BB75" points="103.435,489.449 126.817,517.081 142.468,476.599 			"/>
			<polygon fill="#B97B48" points="103.435,489.449 70.392,482.106 106.624,469.256 			"/>
			<polygon fill="#D89180" points="103.435,489.449 95.512,518.724 126.817,517.081 			"/>
			<polygon fill="#E0C570" points="126.817,517.081 120.342,540.946 95.512,518.724 			"/>
			<polygon fill="#CD6D42" points="103.435,489.449 65.078,504.522 95.512,518.724 			"/>
			<polygon fill="#BF944A" points="103.435,489.449 70.392,482.106 65.078,504.522 			"/>
			<polygon fill="#AFA92B" points="106.624,469.256 72.421,463.169 70.392,482.106 			"/>
			<polygon fill="#BF944A" points="106.624,469.256 111.164,443.556 72.421,463.169 			"/>
			<polygon fill="#E7B953" points="117.638,401.237 111.164,443.556 72.421,463.169 			"/>
			<polygon fill="#D89180" points="70.392,482.106 23.146,485.778 72.421,463.169 			"/>
			<polygon fill="#D4834D" points="70.392,482.106 -1.878,531.96 23.146,485.778 			"/>
			<polygon fill="#CF7150" points="65.078,504.522 -1.878,531.96 55.513,531.96 			"/>
			<polygon fill="#CA5C2C" points="55.513,531.96 42.759,551.671 -1.878,531.96 			"/>
			<polygon fill="#B97B48" points="95.512,518.724 55.513,531.96 65.078,504.522 			"/>
			<polygon fill="#8F7C48" points="95.512,518.724 88.556,544.617 55.513,531.96 			"/>
			<polygon fill="#518063" points="88.556,544.617 42.759,551.671 77.638,575.148 			"/>
			<polygon fill="#AF5C25" points="88.556,544.617 55.513,531.96 42.759,551.671 			"/>
			<polygon fill="#E7B953" points="120.342,540.946 88.556,544.617 95.512,518.724 			"/>
			<polygon fill="#DC9B52" points="120.342,540.946 97.735,603.263 88.556,544.617 			"/>
			<polygon fill="#D4834D" points="88.556,544.617 77.638,575.148 97.735,603.263 			"/>
			<polygon fill="#68524C" points="2.373,711.281 25.176,702.393 2.663,688.094 -8.641,691.572 			"/>
			<polygon fill="#47302C" points="33.774,681.331 25.176,702.393 2.663,688.094 			"/>
			<polygon fill="#CD6D42" points="70.392,482.106 65.078,504.522 -1.878,531.96 			"/>
			<polygon fill="#87381D" points="35.996,660.267 33.774,622.974 2.953,664.132 			"/>
			<polygon fill="#47302C" points="35.996,660.267 18.122,658.142 2.953,664.132 -4.969,675.244 -8.641,691.572 0.538,696.596 
				-4.776,690.702 2.663,688.094 20.827,689.06 33.774,681.331 			"/>
			<g>
				<path fill="#BA562B" d="M15.32,669.446c-6.667,0-12.271,4.057-14.203,9.565c-0.483-1.353-0.676-2.706-0.676-4.251
					c0-7.633,6.667-13.816,14.975-13.816c8.212,0,14.975,6.183,14.975,13.816c0,1.449-0.29,2.898-0.676,4.251
					C27.687,673.505,21.987,669.446,15.32,669.446z"/>
				<path fill="#E6B870" d="M15.32,688.576c-6.667,0-12.271-4.057-14.203-9.565c1.932-5.604,7.536-9.565,14.203-9.565
					s12.271,4.057,14.203,9.565C27.687,684.615,21.987,688.576,15.32,688.576z"/>
			</g>
			<g>
				<line fill="none" x1="15.32" y1="664.616" x2="15.32" y2="685.388"/>
				<path fill="#47302C" d="M15.32,664.616c0,0,0.096,0.096,0.29,0.194c0.096,0.194,0.386,0.386,0.58,0.676
					c0.194,0.29,0.58,0.58,0.773,1.063c0.29,0.386,0.58,0.869,0.869,1.353c0.58,0.966,1.063,2.126,1.353,3.285
					c0.29,1.257,0.483,2.512,0.483,3.769s-0.194,2.608-0.483,3.769c-0.29,1.257-0.773,2.319-1.353,3.285
					c-0.29,0.483-0.58,0.966-0.869,1.353c-0.29,0.386-0.58,0.773-0.773,1.063s-0.483,0.483-0.58,0.676
					c-0.194,0.194-0.29,0.194-0.29,0.194s-0.096-0.096-0.29-0.194c-0.096-0.194-0.386-0.386-0.58-0.676s-0.58-0.58-0.773-1.063
					c-0.29-0.386-0.58-0.869-0.869-1.353c-0.58-0.966-1.063-2.126-1.353-3.285c-0.29-1.257-0.483-2.512-0.483-3.769
					s0.194-2.608,0.483-3.769c0.29-1.257,0.773-2.318,1.353-3.285c0.29-0.483,0.58-0.966,0.869-1.353
					c0.289-0.386,0.58-0.773,0.773-1.063c0.194-0.29,0.483-0.483,0.58-0.676C15.224,664.712,15.32,664.616,15.32,664.616z"/>
			</g>
			<path fill="#C23E18" d="M-4.969,675.244"/>
			<polygon fill="#C23E18" points="-26.805,629.544 -4.969,675.244 -23.134,687.223 			"/>
			<polygon fill="#91451D" points="-8.641,691.572 -23.134,687.223 -4.969,675.244 			"/>
			<polygon fill="#87381D" points="0.538,696.596 2.373,711.281 -23.134,687.223 -8.641,691.572 			"/>
			<polygon fill="#47302C" points="33.774,681.331 69.426,673.891 35.996,660.267 			"/>
			<polygon fill="#C23E18" points="33.774,622.974 2.953,646.645 2.953,664.132 			"/>
			<polygon fill="#87381D" points="2.953,646.645 -8.255,630.219 -11.153,662.201 			"/>
			<polygon fill="#71381B" points="2.953,646.645 9.62,613.891 -8.255,630.219 			"/>
			<polygon fill="#C25B19" points="-8.255,630.219 -26.805,629.544 -11.153,662.201 			"/>
			<polygon fill="#C14A18" points="33.774,622.974 9.62,613.891 2.953,646.645 			"/>
			<polygon fill="#AE4817" points="35.996,660.267 65.948,640.268 34.547,635.727 			"/>
			<polygon fill="#C15619" points="65.948,640.268 33.774,622.974 34.547,635.727 			"/>
			<polygon fill="#91451D" points="69.426,673.891 73.58,658.142 35.996,660.267 			"/>
			<polygon fill="#C15619" points="65.948,640.268 73.58,658.142 35.996,660.267 			"/>
			<polygon fill="#91451D" points="25.176,702.393 18.315,725.001 2.373,711.281 			"/>
			<polygon fill="#87381D" points="69.426,673.891 56.093,699.688 33.774,681.331 			"/>
			<polygon fill="#91451D" points="33.774,681.331 25.176,702.393 56.093,699.688 			"/>
			<polygon fill="#C15619" points="56.093,699.688 60.054,739.59 25.176,702.393 			"/>
			<polygon fill="#A64219" points="25.176,702.393 18.315,725.001 60.054,739.59 			"/>
			<polygon fill="#D78C1D" points="25.176,745.967 60.054,750.122 88.17,734.276 			"/>
			<polygon fill="#E7BB75" points="25.176,745.967 6.432,775.919 60.054,750.122 			"/>
			<polygon fill="#F1D78F" points="60.054,750.122 56.673,773.02 6.432,775.919 			"/>
			<polygon fill="#D1D2D4" points="6.432,775.919 11.456,804.71 56.673,773.02 			"/>
			<polygon fill="#D89180" points="88.17,734.276 100.633,766.836 56.673,773.02 			"/>
			<polygon fill="#D1BA2D" points="88.17,734.276 56.673,773.02 60.054,750.122 			"/>
			<polygon fill="#E7B953" points="-25.259,816.691 -19.365,743.165 -10.38,790.7 			"/>
			<polygon fill="#E0C570" points="-24.003,800.653 -42.36,782.102 -19.365,743.165 			"/>
			<polygon fill="#E9C39D" points="-42.36,782.102 -55.5,782.102 -55.5,748.092 			"/>
			<polygon fill="#DC9B52" points="-19.365,743.165 -55.5,748.092 -42.36,782.102 			"/>
			<polygon fill="#F9F0AF" points="11.456,804.71 -10.38,790.7 -25.259,816.691 			"/>
			<polygon fill="#DFECDD" points="11.456,804.71 6.432,830.217 -25.259,816.691 			"/>
			<polygon fill="#E8E9EA" points="-25.259,816.691 -15.308,840.845 6.432,830.217 			"/>
			<polygon fill="#D1D2D4" points="-25.259,816.691 -36.95,825.483 -15.308,840.845 			"/>
			<polygon fill="#B0D3D7" points="-36.95,825.483 -48.929,830.217 -37.143,842.874 			"/>
			<polygon fill="#CCD1E3" points="-36.95,825.483 -37.143,842.874 -15.308,840.845 			"/>
			<polygon fill="#CCD1E3" points="-48.929,830.217 -55.5,833.212 -55.5,842.874 -37.143,842.874 			"/>
			<polygon fill="#C2C2C6" points="-15.308,840.845 -37.433,854.758 -37.143,842.874 			"/>
			<polygon fill="#B6BACB" points="-37.433,854.758 -55.5,857.56 -55.5,842.874 -37.143,842.874 			"/>
			<polygon fill="#002F3F" points="-41.587,803.744 -37.143,812.053 -48.929,830.217 			"/>
			<polygon fill="#384D52" points="-37.143,812.053 -25.259,816.691 -36.95,825.483 			"/>
			<polygon fill="#3E3855" points="-37.143,812.053 -24.003,800.653 -25.259,816.691 			"/>
			<polygon fill="#68524C" points="-37.143,812.053 -42.36,782.102 -24.003,800.653 			"/>
			<polygon fill="#71381B" points="-42.36,782.102 -41.587,803.744 -37.143,812.053 			"/>
			<polygon fill="#506081" points="-41.587,803.744 -55.5,782.102 -42.36,782.102 			"/>
			<polygon fill="#613860" points="-48.929,830.217 -37.143,812.053 -36.95,825.483 			"/>
			<polygon fill="#3E3855" points="-41.587,803.744 -55.5,782.102 -48.929,830.217 			"/>
			<polygon fill="#384D52" points="-48.929,830.217 -55.5,833.212 -55.5,782.102 			"/>
			<polygon fill="#C2C2C6" points="6.432,830.217 15.03,849.734 -15.308,840.845 			"/>
			<polygon fill="#9FADB2" points="-15.308,840.845 10.875,871.086 15.03,849.734 			"/>
			<polygon fill="#B6BACB" points="-15.308,840.845 -15.308,864.323 10.875,871.086 			"/>
			<polygon fill="#B4A3BB" points="-15.308,840.845 -37.433,854.758 -15.308,864.323 			"/>
			<polygon fill="#B6BACB" points="-37.433,854.758 -25.259,891.569 -15.308,864.323 			"/>
			<polygon fill="#7BAA98" points="-37.433,854.758 -55.5,891.763 -55.5,857.56 			"/>
			<polygon fill="#96BEE5" points="-29.897,877.462 -55.5,891.763 -37.433,854.758 			"/>
			<polygon fill="#D27B60" points="6.432,775.919 -19.365,743.165 -10.38,790.7 			"/>
			<polygon fill="#D89180" points="6.432,775.919 11.456,804.71 -10.38,790.7 			"/>
			<polygon fill="#D4834D" points="6.432,775.919 25.176,745.967 -19.365,743.165 			"/>
			<polygon fill="#D1BA2D" points="-19.365,743.165 -55.5,726.547 -55.5,748.092 			"/>
			<polygon fill="#CF7150" points="-23.134,687.223 -39.752,707.514 -19.365,743.165 			"/>
			<polygon fill="#CE6D33" points="-23.134,687.223 2.373,711.281 -19.365,743.165 			"/>
			<polygon fill="#D78C1D" points="-23.134,687.223 -47.094,683.359 -55.5,726.547 			"/>
			<polygon fill="#CE6D33" points="-47.094,683.359 -55.5,683.359 -55.5,660.267 			"/>
			<polygon fill="#CD6D42" points="-47.094,683.359 -39.752,660.267 -23.134,687.223 			"/>
			<polygon fill="#BA562B" points="-39.752,660.267 -26.805,629.544 -23.134,687.223 			"/>
			<polygon fill="#D1762A" points="-47.094,683.359 -55.5,726.547 -55.5,683.359 			"/>
			<polygon fill="#D4834D" points="-39.364,706.934 -19.365,743.165 -55.5,726.547 			"/>
			<polygon fill="#C95933" points="18.315,725.001 -19.365,743.165 2.373,711.281 			"/>
			<polygon fill="#CA5C2C" points="18.315,725.001 25.176,745.967 -19.365,743.165 			"/>
			<polygon fill="#C95933" points="60.054,739.59 25.176,745.967 18.315,725.001 			"/>
			<polygon fill="#AE4817" points="2.953,646.645 2.953,664.132 -4.969,675.244 -11.153,662.201 			"/>
			<polygon fill="#CE8F82" points="120.342,540.946 132.517,563.361 97.735,603.263 			"/>
			<polygon fill="#C18474" points="132.517,563.361 128.168,591.67 97.735,603.263 			"/>
			<polygon fill="#D27B60" points="128.168,591.67 104.401,621.911 97.735,603.263 			"/>
			<polygon fill="#CD6D42" points="128.168,591.67 140.149,618.916 104.401,621.911 			"/>
			<polygon fill="#D4834D" points="140.149,618.916 115.126,641.331 104.401,621.911 			"/>
			<polygon fill="#CF7150" points="140.149,618.916 151.163,640.268 115.126,641.331 			"/>
			<polygon fill="#DE9F31" points="151.163,640.268 128.942,664.23 115.126,641.331 			"/>
			<polygon fill="#E7B953" points="151.163,640.268 168.844,677.37 128.942,664.23 			"/>
			<polygon fill="#D1BA2D" points="154.642,672.731 128.942,685.388 128.942,664.23 			"/>
			<polygon fill="#CE6D33" points="97.735,603.263 77.638,575.148 33.774,622.974 			"/>
			<polygon fill="#D78C1D" points="77.638,575.148 42.759,551.671 33.774,622.974 			"/>
			<polygon fill="#BF944A" points="42.759,551.671 9.62,613.891 33.774,622.974 			"/>
			<polygon fill="#AFA92B" points="42.759,551.671 -10.669,576.501 9.62,613.891 			"/>
			<polygon fill="#D78C1D" points="42.759,551.671 -1.878,531.96 -10.669,576.501 			"/>
			<polygon fill="#CF7150" points="-10.669,576.501 -8.255,630.219 9.62,613.891 			"/>
			<polygon fill="#C95933" points="-10.669,576.501 -26.805,629.544 -8.255,630.219 			"/>
			<polygon fill="#D1762A" points="-10.669,576.501 -55.5,609.061 -26.805,629.544 			"/>
			<polygon fill="#CA5C2C" points="-10.669,576.501 -55.5,567.419 -55.5,609.061 			"/>
			<polygon fill="#CA5C2C" points="-18.109,520.173 -10.669,576.501 -1.878,531.96 			"/>
			<polygon fill="#CE6D33" points="-18.109,520.173 -55.5,567.419 -10.669,576.501 			"/>
			<polygon fill="#D78C1D" points="-26.805,629.544 -55.5,660.267 -39.752,660.267 			"/>
			<polygon fill="#D1762A" points="-39.752,660.267 -55.5,660.267 -47.094,683.359 			"/>
			<polygon fill="#D27C3E" points="-26.805,629.544 -55.5,609.061 -55.5,660.267 			"/>
			<polygon fill="#D27C3E" points="-18.109,520.173 -41.974,517.081 -55.5,567.419 			"/>
			<polygon fill="#D9913D" points="-41.974,517.081 -55.5,517.081 -55.5,567.419 			"/>
			<polygon fill="#87381D" points="69.426,673.891 91.261,685.388 77.638,699.204 			"/>
			<polygon fill="#A64219" points="91.261,685.388 100.633,719.591 77.638,699.204 			"/>
			<polygon fill="#C25B19" points="100.633,719.591 88.17,734.276 141.792,765.097 			"/>
			<polygon fill="#D78C1D" points="122.276,743.551 128.168,710.219 100.633,719.591 			"/>
			<polygon fill="#CA5C2C" points="128.168,710.219 91.261,685.388 100.633,719.591 			"/>
			<polygon fill="#C15619" points="77.638,699.204 56.093,699.688 69.426,673.891 			"/>
			<polygon fill="#CE6D33" points="77.638,699.204 88.17,734.276 56.093,699.688 			"/>
			<polygon fill="#C95933" points="77.638,699.204 100.633,719.591 88.17,734.276 			"/>
			<polygon fill="#CC6633" points="56.093,699.688 60.054,739.59 88.17,734.276 			"/>
			<polygon fill="#CD6D42" points="100.633,766.836 117.154,750.991 88.17,734.276 			"/>
			<polygon fill="#D27B60" points="117.154,750.991 128.942,774.083 100.633,766.836 			"/>
			<polygon fill="#D27B60" points="128.942,664.23 91.261,685.388 128.942,685.388 			"/>
			<polygon fill="#CD6D42" points="128.942,685.388 128.168,710.219 91.261,685.388 			"/>
			<polygon fill="#B97B48" points="128.942,664.23 69.426,673.891 91.261,685.388 			"/>
			<polygon fill="#8F7C48" points="128.942,664.23 73.58,658.142 69.426,673.891 			"/>
			<polygon fill="#A97C48" points="65.948,640.268 128.942,664.23 73.58,658.142 			"/>
			<polygon fill="#BF944A" points="65.948,640.268 115.126,641.331 128.942,664.23 			"/>
			<polygon fill="#D88E37" points="65.948,640.268 104.401,621.911 115.126,641.331 			"/>
			<polygon fill="#D88C28" points="97.735,603.263 65.948,640.268 104.401,621.911 			"/>
			<polygon fill="#CF7150" points="97.735,603.263 33.774,622.974 65.948,640.268 			"/>
			<polygon fill="#E0C570" points="128.942,685.388 178.507,706.547 154.642,672.731 			"/>
			<polygon fill="#E7B953" points="128.168,710.219 158.024,697.755 183.433,730.219 			"/>
			<polygon fill="#D1BA2D" points="128.168,710.219 163.628,723.069 122.276,743.551 			"/>
			<polygon fill="#E0A96F" points="163.628,723.069 176.96,753.696 142.951,733.311 			"/>
			<polygon fill="#DC9B52" points="142.951,733.311 122.276,743.551 153.773,763.068 			"/>
			<polygon fill="#D4834D" points="158.024,697.755 128.942,685.388 128.168,710.219 			"/>
			<polygon fill="#C2C2C6" points="56.673,773.02 75.223,787.223 100.633,766.836 			"/>
			<polygon fill="#B0D3D7" points="56.673,773.02 11.456,804.71 75.223,787.223 			"/>
			<polygon fill="#CCD1E3" points="75.223,787.223 77.638,812.053 11.456,804.71 			"/>
			<polygon fill="#C2C2C6" points="11.456,804.71 60.054,831.763 58.895,810.024 			"/>
			<polygon fill="#B6BACB" points="11.456,804.71 51.551,847.802 44.596,823.068 			"/>
			<polygon fill="#B4A3BB" points="51.551,847.802 6.432,830.217 11.456,804.71 			"/>
			<polygon fill="#7BAA98" points="6.432,830.217 15.03,849.734 32.711,840.459 			"/>
		</g>
	</g>
	<g>
		<g>
			<g>
				<defs>
					<path id="SVGID_1_" d="M-159.267,628.578c7.922-1.159,15.846-0.386,23.864-0.676c6.087,0.194,12.173-0.58,18.164,0.676
						c2.512,0.29,5.12-0.096,7.536,0.869c3.961,0.194,7.73,1.739,11.497,2.996c10.434,2.318,20.773,4.928,31.401,5.894
						c8.696,0.29,17.391,0.29,26.183-0.194c9.179-1.739,18.357-3.382,27.342-5.7c5.604-1.643,11.208-3.575,17.198-3.671
						c3.092,0.096,6.183-0.966,9.275-0.869c9.275,0,18.55,0,27.923,0c10.822,0.966,21.738,1.353,32.56,2.898
						c8.502,0.773,16.908,2.512,25.411,3.285c0.194,7.149,0,14.299,0.096,21.352c-3.671,1.545-8.02,3.188-9.371,7.343
						c-0.386,4.541,0.29,9.083-0.676,13.526c-0.386,10.338-2.512,20.676-6.571,30.144c-1.932,4.155-4.445,8.212-7.44,11.787
						c-8.02,8.696-19.71,13.14-31.207,14.879c-4.928,1.159-10.048,0.483-15.073,0.676c-7.826,0.386-15.459-1.449-22.995-3.188
						c-7.343-2.029-14.685-4.638-20.676-9.565c-8.502-7.053-15.362-16.038-20.483-25.797c-0.194-1.449-0.773-2.802-2.126-3.671
						c-0.58-3.188-2.222-6.087-3.188-9.179c-2.222-5.894-2.608-12.561-6.473-17.777c-1.932-1.545-4.057-2.706-6.183-3.769
						c-4.347-0.194-9.469,1.353-11.497,5.508c-2.706,4.251-3.285,9.275-4.734,14.009c-1.159,2.222-1.643,4.637-2.222,7.053
						c-6.473,14.493-15.846,28.405-29.275,37.198c-10.338,5.314-21.836,8.309-33.429,9.275c-9.661,0.096-19.42,0.483-28.695-2.416
						c-10.048-2.706-19.613-8.212-25.603-16.811c-1.836-2.512-2.995-5.41-4.541-8.116c-0.869-2.029-1.643-4.057-2.222-6.183
						c-3.478-9.565-4.347-19.807-4.928-29.951c-0.29-3.092,0.773-6.667-0.966-9.469c-1.063-2.222-3.575-2.996-5.41-4.251
						c-0.967-0.483-2.029-0.966-2.995-1.449c0.096-7.053-0.194-14.106,0.194-21.159
						C-193.082,631.959-176.271,629.35-159.267,628.578z M9.426,637.176c-11.014,1.257-22.319,3.671-31.787,9.759
						c-3.092,2.222-6.183,4.928-7.149,8.695c-1.835,6.087-1.063,12.561-0.483,18.744c2.029,11.885,6.667,23.381,13.816,33.14
						c4.155,5.314,9.855,9.082,15.748,12.271c10.242,4.637,21.45,6.957,32.656,7.149c6.667-0.386,13.334-1.449,19.613-3.671
						c6.763-2.802,13.14-7.246,16.715-13.816c3.575-6.859,5.508-14.493,6.859-22.029c0.58-6.473,2.029-13.044,0.386-19.517
						c-0.386-6.184-1.932-12.173-3.865-17.971c-1.545-4.251-5.797-6.473-9.759-8.02c-7.149-2.706-14.783-4.155-22.415-4.734
						c-5.99-1.159-12.173-0.386-18.164-1.353C17.832,637.176,13.485,636.017,9.426,637.176z M-164.001,639.206
						c-6.473,1.449-13.236,3.382-17.971,8.212c-3.865,8.599-4.928,18.067-5.7,27.342c0.29,10.434,2.222,20.869,6.087,30.627
						c3.092,8.406,10.434,14.493,18.648,17.874c6.571,2.416,13.526,3.188,20.483,3.671c3.285,0.29,6.473-0.773,9.759-0.966
						c7.053-0.676,13.72-2.995,20.289-5.41c4.928-2.802,10.145-5.41,14.106-9.565c4.637-4.057,7.246-9.758,10.434-14.975
						c2.222-6.667,6.183-12.85,6.473-19.999c1.063-2.029,0.58-4.347,0.773-6.57c0.096-5.797,0.869-12.173-2.512-17.391
						c-3.671-5.12-9.661-7.826-15.265-10.242c-6.957-2.222-14.203-3.961-21.546-4.734c-8.889-1.449-17.971-0.773-27.052-0.58
						C-152.696,637.563-158.397,637.756-164.001,639.206z"/>
				</defs>
				<clipPath id="SVGID_2_">
					<use xlink:href="#SVGID_1_"  overflow="visible"/>
				</clipPath>
				<g clip-path="url(#SVGID_2_)">
					<g>
						<polygon fill="#6AAED1" points="-129.605,466.744 -117.722,458.822 -135.209,445.584 						"/>
						<polygon fill="#44A6C8" points="-129.605,466.744 -97.045,515.826 -117.722,458.822 						"/>
						<polygon fill="#439CC3" points="-117.722,458.822 -91.248,477.662 -97.045,515.826 						"/>
						<polygon fill="#3597C1" points="-91.248,477.662 -73.277,512.638 -97.045,515.826 						"/>
						<polygon fill="#437CAB" points="-91.248,477.662 -67.287,477.662 -73.277,512.638 						"/>
						<polygon fill="#439CC3" points="-67.287,477.662 -59.751,512.638 -73.277,512.638 						"/>
						<polygon fill="#44A6C8" points="-67.287,477.662 -59.751,476.889 -59.751,512.638 						"/>
						<polygon fill="#3F9BD1" points="-67.287,477.662 -59.751,442.494 -59.751,476.889 						"/>
						<polygon fill="#439CC3" points="-91.248,477.662 -85.162,452.059 -67.287,477.662 						"/>
						<polygon fill="#6B7DAD" points="-129.605,466.744 -113.373,527.517 -97.045,515.826 						"/>
						<polygon fill="#74B6CF" points="-129.605,466.744 -138.301,481.333 -113.373,527.517 						"/>
						<polygon fill="#1E5288" points="-138.301,481.333 -232.889,396.89 -187.672,458.822 						"/>
						<polygon fill="#8C8D8E" points="-232.889,396.89 -191.923,401.914 -198.396,427.615 						"/>
						<polygon fill="#AB9D7C" points="-191.923,401.914 -166.512,417.952 -198.396,427.615 						"/>
						<polygon fill="#C4B0AB" points="-166.512,417.952 -175.691,448 -198.396,427.615 						"/>
						<polygon fill="#B4CBCE" points="-166.512,417.952 -149.025,432.929 -175.691,448 						"/>
						<polygon fill="#89BED7" points="-149.025,432.929 -158.01,463.749 -175.691,448 						"/>
						<polygon fill="#BAB4B3" points="-149.025,432.929 -135.209,445.584 -158.01,463.749 						"/>
						<polygon fill="#93A9AE" points="-135.209,445.584 -129.605,466.744 -158.01,463.749 						"/>
						<polygon fill="#A8A8A9" points="-158.01,463.749 -138.301,481.333 -129.605,466.744 						"/>
						<polygon fill="#245E9F" points="-232.889,396.89 -218.589,485.005 -257.72,472.252 						"/>
						<polygon fill="#174182" points="-218.589,485.005 -241.97,512.638 -257.72,472.252 						"/>
						<polygon fill="#437CAB" points="-218.589,485.005 -185.643,477.662 -221.875,464.908 						"/>
						<polygon fill="#266979" points="-218.589,485.005 -210.763,514.279 -241.97,512.638 						"/>
						<polygon fill="#1D3886" points="-241.97,512.638 -235.497,536.598 -210.763,514.279 						"/>
						<polygon fill="#3288AF" points="-218.589,485.005 -180.232,500.173 -210.763,514.279 						"/>
						<polygon fill="#3D65A8" points="-218.589,485.005 -185.643,477.662 -180.232,500.173 						"/>
						<polygon fill="#4A5098" points="-221.875,464.908 -187.672,458.822 -185.643,477.662 						"/>
						<polygon fill="#3D65A8" points="-221.875,464.908 -226.415,439.111 -187.672,458.822 						"/>
						<polygon fill="#224692" points="-232.889,396.89 -226.415,439.111 -187.672,458.822 						"/>
						<polygon fill="#266979" points="-185.643,477.662 -138.301,481.333 -187.672,458.822 						"/>
						<polygon fill="#2B74A5" points="-185.643,477.662 -113.373,527.517 -138.301,481.333 						"/>
						<polygon fill="#2F85A3" points="-180.232,500.173 -113.373,527.517 -170.764,527.517 						"/>
						<polygon fill="#3597C1" points="-170.764,527.517 -158.01,547.323 -113.373,527.517 						"/>
						<polygon fill="#437CAB" points="-210.763,514.279 -170.764,527.517 -180.232,500.173 						"/>
						<polygon fill="#6B7DAD" points="-210.763,514.279 -203.71,540.27 -170.764,527.517 						"/>
						<polygon fill="#A77C97" points="-203.71,540.27 -158.01,547.323 -192.89,570.801 						"/>
						<polygon fill="#4E97C7" points="-203.71,540.27 -170.764,527.517 -158.01,547.323 						"/>
						<polygon fill="#224692" points="-235.497,536.598 -203.71,540.27 -210.763,514.279 						"/>
						<polygon fill="#245E9F" points="-235.497,536.598 -212.986,598.82 -203.71,540.27 						"/>
						<polygon fill="#2B74A5" points="-203.71,540.27 -192.89,570.801 -212.986,598.82 						"/>
						<polygon fill="#93A9AE" points="-117.624,706.838 -140.427,698.045 -117.818,683.649 -106.61,687.127 						"/>
						<polygon fill="#B4CBCE" points="-149.025,676.886 -140.427,698.045 -117.818,683.649 						"/>
						<polygon fill="#3288AF" points="-185.643,477.662 -180.232,500.173 -113.373,527.517 						"/>
						<polygon fill="#74B6CF" points="-151.247,655.824 -149.025,618.53 -118.108,659.689 						"/>
						<polygon fill="#B4CBCE" points="-151.247,655.824 -133.374,653.794 -118.108,659.689 -110.282,670.799 -106.61,687.127 
							-115.789,692.249 -110.475,686.354 -117.818,683.649 -135.982,684.615 -149.025,676.886 						"/>
						<g>
							<path fill="#439CC3" d="M-130.572,665.002c6.667,0,12.271,4.057,14.203,9.565c0.483-1.353,0.676-2.706,0.676-4.251
								c0-7.632-6.667-13.816-14.975-13.816c-8.212,0-14.975,6.184-14.975,13.816c0,1.449,0.29,2.898,0.676,4.251
								C-142.842,669.06-137.238,665.002-130.572,665.002z"/>
							<path fill="#184486" d="M-130.572,684.229c6.667,0,12.271-4.057,14.203-9.565c-1.932-5.604-7.536-9.565-14.203-9.565
								c-6.667,0-12.271,4.057-14.203,9.565C-142.842,680.172-137.238,684.229-130.572,684.229z"/>
						</g>
						<g>
							<line fill="none" x1="-130.572" y1="660.267" x2="-130.572" y2="680.944"/>
							<path fill="#B4CBCE" d="M-130.572,660.267c0,0,0.096,0.096,0.29,0.194c0.096,0.194,0.386,0.386,0.58,0.676
								c0.194,0.29,0.58,0.58,0.773,1.063c0.29,0.386,0.58,0.87,0.869,1.353c0.58,0.966,1.063,2.125,1.353,3.285
								c0.29,1.257,0.483,2.512,0.483,3.769s-0.194,2.608-0.483,3.769c-0.29,1.257-0.773,2.318-1.353,3.285
								c-0.29,0.483-0.58,0.966-0.869,1.353c-0.29,0.386-0.58,0.773-0.773,1.063c-0.194,0.29-0.483,0.483-0.58,0.676
								c-0.194,0.194-0.29,0.194-0.29,0.194s-0.096-0.096-0.29-0.194c-0.096-0.194-0.386-0.386-0.58-0.676
								c-0.194-0.29-0.58-0.58-0.773-1.063c-0.29-0.386-0.58-0.869-0.869-1.353c-0.58-0.966-1.063-2.125-1.353-3.285
								c-0.29-1.257-0.483-2.512-0.483-3.769s0.194-2.608,0.483-3.769c0.29-1.257,0.773-2.318,1.353-3.285
								c0.29-0.483,0.58-0.966,0.869-1.353c0.29-0.386,0.58-0.773,0.773-1.063c0.194-0.29,0.483-0.483,0.58-0.676
								C-130.668,660.365-130.572,660.267-130.572,660.267z"/>
						</g>
						<path fill="#44A6C8" d="M-110.282,670.799"/>
						<polygon fill="#44A6C8" points="-88.446,625.099 -110.282,670.799 -92.021,682.78 						"/>
						<polygon fill="#6AAED1" points="-106.61,687.127 -92.021,682.78 -110.282,670.799 						"/>
						<polygon fill="#74B6CF" points="-115.789,692.249 -117.624,706.838 -92.021,682.78 -106.61,687.127 						"/>
						<polygon fill="#B4CBCE" points="-149.025,676.886 -184.58,669.446 -151.247,655.824 						"/>
						<polygon fill="#44A6C8" points="-149.025,618.53 -118.108,642.2 -118.108,659.689 						"/>
						<polygon fill="#74B6CF" points="-118.108,642.2 -106.996,625.776 -104.002,657.755 						"/>
						<polygon fill="#89BED7" points="-118.108,642.2 -124.775,609.448 -106.996,625.776 						"/>
						<polygon fill="#3E97D2" points="-106.996,625.776 -88.446,625.099 -104.002,657.755 						"/>
						<polygon fill="#41A6D1" points="-149.025,618.53 -124.775,609.448 -118.108,642.2 						"/>
						<polygon fill="#50AAD4" points="-151.247,655.824 -181.199,635.823 -149.798,631.282 						"/>
						<polygon fill="#3F9BD1" points="-181.199,635.823 -149.025,618.53 -149.798,631.282 						"/>
						<polygon fill="#6AAED1" points="-184.58,669.446 -188.831,653.794 -151.247,655.824 						"/>
						<polygon fill="#3F9BD1" points="-181.199,635.823 -188.831,653.794 -151.247,655.824 						"/>
						<polygon fill="#6AAED1" points="-140.427,698.045 -133.566,720.654 -117.624,706.838 						"/>
						<polygon fill="#74B6CF" points="-184.58,669.446 -171.248,695.243 -149.025,676.886 						"/>
						<polygon fill="#6AAED1" points="-149.025,676.886 -140.427,698.045 -171.248,695.243 						"/>
						<polygon fill="#3F9BD1" points="-171.248,695.243 -175.305,735.146 -140.427,698.045 						"/>
						<polygon fill="#57ACD0" points="-140.427,698.045 -133.566,720.654 -175.305,735.146 						"/>
						<polygon fill="#3966A9" points="-140.427,741.523 -175.305,745.774 -203.421,729.929 						"/>
						<polygon fill="#174182" points="-140.427,741.523 -121.683,771.571 -175.305,745.774 						"/>
						<polygon fill="#07266B" points="-175.305,745.774 -171.924,768.576 -121.683,771.571 						"/>
						<polygon fill="#2E2C2A" points="-121.683,771.571 -126.707,800.265 -171.924,768.576 						"/>
						<polygon fill="#266979" points="-203.421,729.929 -215.885,762.489 -171.924,768.576 						"/>
						<polygon fill="#394994" points="-203.421,729.929 -171.924,768.576 -175.305,745.774 						"/>
						<polygon fill="#224692" points="-89.896,812.344 -95.886,738.817 -104.871,786.353 						"/>
						<polygon fill="#1D3886" points="-91.248,796.304 -72.795,777.658 -95.886,738.817 						"/>
						<polygon fill="#133B5E" points="-72.795,777.658 -59.751,777.658 -59.751,743.649 						"/>
						<polygon fill="#245E9F" points="-95.886,738.817 -59.751,743.649 -72.795,777.658 						"/>
						<polygon fill="#0C1D4E" points="-126.707,800.265 -104.871,786.353 -89.896,812.344 						"/>
						<polygon fill="#1E1221" points="-126.707,800.265 -121.683,825.87 -89.896,812.344 						"/>
						<polygon fill="#161514" points="-89.896,812.344 -99.847,836.401 -121.683,825.87 						"/>
						<polygon fill="#2E2C2A" points="-89.896,812.344 -78.301,821.135 -99.847,836.401 						"/>
						<polygon fill="#4E2B27" points="-78.301,821.135 -66.322,825.87 -78.109,838.526 						"/>
						<polygon fill="#322E1A" points="-78.301,821.135 -78.109,838.526 -99.847,836.401 						"/>
						<polygon fill="#322E1A" points="-66.322,825.87 -59.751,828.768 -59.751,838.526 -78.109,838.526 						"/>
						<polygon fill="#3D3C38" points="-99.847,836.401 -77.819,850.314 -78.109,838.526 						"/>
						<polygon fill="#484434" points="-77.819,850.314 -59.751,853.212 -59.751,838.526 -78.109,838.526 						"/>
						<polygon fill="#EAC7BE" points="-73.664,799.3 -78.109,807.706 -66.322,825.87 						"/>
						<polygon fill="#C4B0AB" points="-78.109,807.706 -89.896,812.344 -78.301,821.135 						"/>
						<polygon fill="#BEC4A8" points="-78.109,807.706 -91.248,796.304 -89.896,812.344 						"/>
						<polygon fill="#93A9AE" points="-78.109,807.706 -72.795,777.658 -91.248,796.304 						"/>
						<polygon fill="#89BED7" points="-72.795,777.658 -73.664,799.3 -78.109,807.706 						"/>
						<polygon fill="#AB9D7C" points="-73.664,799.3 -59.751,777.658 -72.795,777.658 						"/>
						<polygon fill="#99C09A" points="-66.322,825.87 -78.109,807.706 -78.301,821.135 						"/>
						<polygon fill="#BEC4A8" points="-73.664,799.3 -59.751,777.658 -66.322,825.87 						"/>
						<polygon fill="#C4B0AB" points="-66.322,825.87 -59.751,828.768 -59.751,777.658 						"/>
						<polygon fill="#3D3C38" points="-121.683,825.87 -130.281,845.29 -99.847,836.401 						"/>
						<polygon fill="#5F524C" points="-99.847,836.401 -126.03,866.642 -130.281,845.29 						"/>
						<polygon fill="#484434" points="-99.847,836.401 -99.847,859.879 -126.03,866.642 						"/>
						<polygon fill="#4A5B43" points="-99.847,836.401 -77.819,850.314 -99.847,859.879 						"/>
						<polygon fill="#484434" points="-77.819,850.314 -89.896,887.125 -99.847,859.879 						"/>
						<polygon fill="#805264" points="-77.819,850.314 -59.751,887.318 -59.751,853.212 						"/>
						<polygon fill="#67401B" points="-85.741,874.564 -59.751,887.318 -77.819,850.314 						"/>
						<polygon fill="#2D7C95" points="-121.683,771.571 -95.886,738.817 -104.871,786.353 						"/>
						<polygon fill="#266979" points="-121.683,771.571 -126.707,800.265 -104.871,786.353 						"/>
						<polygon fill="#2B74A5" points="-121.683,771.571 -140.427,741.523 -95.886,738.817 						"/>
						<polygon fill="#394994" points="-95.886,738.817 -59.751,722.103 -59.751,743.649 						"/>
						<polygon fill="#2F85A3" points="-92.021,682.78 -75.403,703.069 -95.886,738.817 						"/>
						<polygon fill="#3288BA" points="-92.021,682.78 -117.624,706.838 -95.886,738.817 						"/>
						<polygon fill="#3966A9" points="-92.021,682.78 -68.157,679.011 -59.751,722.103 						"/>
						<polygon fill="#3288BA" points="-68.157,679.011 -59.751,679.011 -59.751,655.824 						"/>
						<polygon fill="#3288AF" points="-68.157,679.011 -75.403,655.824 -92.021,682.78 						"/>
						<polygon fill="#439CC3" points="-75.403,655.824 -88.446,625.099 -92.021,682.78 						"/>
						<polygon fill="#317FBF" points="-68.157,679.011 -59.751,722.103 -59.751,679.011 						"/>
						<polygon fill="#2B74A5" points="-75.887,702.586 -95.886,738.817 -59.751,722.103 						"/>
						<polygon fill="#3799BB" points="-133.566,720.654 -95.886,738.817 -117.624,706.838 						"/>
						<polygon fill="#3597C1" points="-133.566,720.654 -140.427,741.523 -95.886,738.817 						"/>
						<polygon fill="#3799BB" points="-175.305,735.243 -140.427,741.523 -133.566,720.654 						"/>
						<polygon fill="#50AAD4" points="-118.108,642.2 -118.108,659.689 -110.282,670.799 -104.002,657.755 						"/>
						<polygon fill="#306B77" points="-235.497,536.598 -247.768,559.014 -212.986,598.82 						"/>
						<polygon fill="#3C7684" points="-247.768,559.014 -243.323,587.321 -212.986,598.82 						"/>
						<polygon fill="#2D7C95" points="-243.323,587.321 -219.652,617.467 -212.986,598.82 						"/>
						<polygon fill="#3288AF" points="-243.323,587.321 -255.4,614.568 -219.652,617.467 						"/>
						<polygon fill="#2B74A5" points="-255.4,614.568 -230.377,636.984 -219.652,617.467 						"/>
						<polygon fill="#2F85A3" points="-255.4,614.568 -266.414,635.823 -230.377,636.984 						"/>
						<polygon fill="#335AA0" points="-266.414,635.823 -244.193,659.881 -230.377,636.984 						"/>
						<polygon fill="#224692" points="-266.414,635.823 -284.096,673.021 -244.193,659.881 						"/>
						<polygon fill="#394994" points="-269.893,668.287 -244.193,680.944 -244.193,659.881 						"/>
						<polygon fill="#3288BA" points="-212.986,598.82 -192.89,570.801 -149.025,618.53 						"/>
						<polygon fill="#3966A9" points="-192.89,570.801 -158.01,547.323 -149.025,618.53 						"/>
						<polygon fill="#3D65A8" points="-158.01,547.323 -124.775,609.448 -149.025,618.53 						"/>
						<polygon fill="#4A5098" points="-158.01,547.323 -104.484,572.056 -124.775,609.448 						"/>
						<polygon fill="#3966A9" points="-158.01,547.323 -113.373,527.517 -104.484,572.056 						"/>
						<polygon fill="#2F85A3" points="-104.484,572.056 -106.996,625.776 -124.775,609.448 						"/>
						<polygon fill="#3799BB" points="-104.484,572.056 -88.446,625.099 -106.996,625.776 						"/>
						<polygon fill="#317FBF" points="-104.484,572.056 -59.751,604.616 -88.446,625.099 						"/>
						<polygon fill="#3597C1" points="-104.484,572.056 -59.751,562.975 -59.751,604.616 						"/>
						<polygon fill="#3597C1" points="-97.045,515.826 -104.484,572.056 -113.373,527.517 						"/>
						<polygon fill="#3288BA" points="-97.045,515.826 -59.751,562.975 -104.484,572.056 						"/>
						<polygon fill="#3966A9" points="-88.446,625.099 -59.751,655.824 -75.403,655.824 						"/>
						<polygon fill="#317FBF" points="-75.403,655.824 -59.751,655.824 -68.157,679.011 						"/>
						<polygon fill="#2D7AB2" points="-88.446,625.099 -59.751,604.616 -59.751,655.824 						"/>
						<polygon fill="#2D7AB2" points="-97.045,515.826 -73.277,512.638 -59.751,562.975 						"/>
						<polygon fill="#2B66AA" points="-73.277,512.638 -59.751,512.638 -59.751,562.975 						"/>
						<polygon fill="#74B6CF" points="-184.58,669.446 -206.512,680.944 -192.89,694.857 						"/>
						<polygon fill="#57ACD0" points="-206.512,680.944 -215.885,715.242 -192.89,694.857 						"/>
						<polygon fill="#3E97D2" points="-215.885,715.242 -203.421,729.929 -257.043,760.653 						"/>
						<polygon fill="#3966A9" points="-237.527,739.108 -243.323,705.871 -215.885,715.242 						"/>
						<polygon fill="#3597C1" points="-243.323,705.871 -206.512,680.944 -215.885,715.242 						"/>
						<polygon fill="#3F9BD1" points="-192.89,694.857 -171.248,695.243 -184.58,669.446 						"/>
						<polygon fill="#3288BA" points="-192.89,694.857 -203.421,729.929 -171.248,695.243 						"/>
						<polygon fill="#3799BB" points="-192.89,694.857 -215.885,715.242 -203.421,729.929 						"/>
						<polygon fill="#348EBB" points="-171.248,695.243 -175.305,735.243 -203.421,729.929 						"/>
						<polygon fill="#3288AF" points="-215.885,762.489 -232.405,746.547 -203.421,729.929 						"/>
						<polygon fill="#2D7C95" points="-232.405,746.547 -244.193,769.638 -215.885,762.489 						"/>
						<polygon fill="#2D7C95" points="-244.193,659.881 -206.512,680.944 -244.193,680.944 						"/>
						<polygon fill="#3288AF" points="-244.193,680.944 -243.323,705.871 -206.512,680.944 						"/>
						<polygon fill="#437CAB" points="-244.193,659.881 -184.58,669.446 -206.512,680.944 						"/>
						<polygon fill="#6B7DAD" points="-244.193,659.881 -188.831,653.794 -184.58,669.446 						"/>
						<polygon fill="#537CAB" points="-181.199,635.823 -244.193,659.881 -188.831,653.794 						"/>
						<polygon fill="#3D65A8" points="-181.199,635.823 -230.377,636.984 -244.193,659.881 						"/>
						<polygon fill="#2E68AC" points="-181.199,635.823 -219.652,617.467 -230.377,636.984 						"/>
						<polygon fill="#3568AB" points="-212.986,598.82 -181.199,635.823 -219.652,617.467 						"/>
						<polygon fill="#2F85A3" points="-212.986,598.82 -149.025,618.53 -181.199,635.823 						"/>
						<polygon fill="#1D3886" points="-244.193,680.944 -293.758,702.102 -269.893,668.287 						"/>
						<polygon fill="#224692" points="-243.323,705.871 -273.275,693.408 -298.588,725.774 						"/>
						<polygon fill="#394994" points="-243.323,705.871 -278.879,718.624 -237.527,739.108 						"/>
						<polygon fill="#1E5288" points="-278.879,718.624 -292.115,749.253 -258.202,728.866 						"/>
						<polygon fill="#245E9F" points="-258.202,728.866 -237.527,739.108 -268.926,758.624 						"/>
						<polygon fill="#2B74A5" points="-273.275,693.408 -244.193,680.944 -243.323,705.871 						"/>
						<polygon fill="#3D3C38" points="-171.924,768.576 -190.474,782.778 -215.885,762.489 						"/>
						<polygon fill="#4E2B27" points="-171.924,768.576 -126.707,800.265 -190.474,782.778 						"/>
						<polygon fill="#322E1A" points="-190.474,782.778 -192.89,807.706 -126.707,800.265 						"/>
						<polygon fill="#3D3C38" points="-126.707,800.265 -175.305,827.319 -174.05,805.579 						"/>
						<polygon fill="#484434" points="-126.707,800.265 -166.803,843.357 -159.749,818.72 						"/>
						<polygon fill="#4A5B43" points="-166.803,843.357 -121.683,825.87 -126.707,800.265 						"/>
						<polygon fill="#805264" points="-121.683,825.87 -130.281,845.29 -147.866,836.014 						"/>
					</g>
					<g>
						<polygon fill="#6AAED1" points="10.103,466.744 -1.684,458.822 15.803,445.584 						"/>
						<polygon fill="#44A6C8" points="10.103,466.744 -22.36,515.826 -1.684,458.822 						"/>
						<polygon fill="#439CC3" points="-1.684,458.822 -28.158,477.662 -22.36,515.826 						"/>
						<polygon fill="#3597C1" points="-28.158,477.662 -46.129,512.638 -22.36,515.826 						"/>
						<polygon fill="#437CAB" points="-28.158,477.662 -52.118,477.662 -46.129,512.638 						"/>
						<polygon fill="#439CC3" points="-52.118,477.662 -59.751,512.638 -46.129,512.638 						"/>
						<polygon fill="#44A6C8" points="-52.118,477.662 -59.751,476.889 -59.751,512.638 						"/>
						<polygon fill="#3F9BD1" points="-52.118,477.662 -59.751,442.494 -59.751,476.889 						"/>
						<polygon fill="#439CC3" points="-28.158,477.662 -34.244,452.059 -52.118,477.662 						"/>
						<polygon fill="#6B7DAD" points="10.103,466.744 -6.129,527.517 -22.36,515.826 						"/>
						<polygon fill="#74B6CF" points="10.103,466.744 18.895,481.333 -6.129,527.517 						"/>
						<polygon fill="#1E5288" points="18.895,481.333 113.387,396.89 68.17,458.822 						"/>
						<polygon fill="#8C8D8E" points="113.387,396.89 72.421,401.914 78.991,427.615 						"/>
						<polygon fill="#AB9D7C" points="72.421,401.914 47.01,417.952 78.991,427.615 						"/>
						<polygon fill="#C4B0AB" points="47.01,417.952 56.286,448 78.991,427.615 						"/>
						<polygon fill="#B4CBCE" points="47.01,417.952 29.619,432.929 56.286,448 						"/>
						<polygon fill="#89BED7" points="29.619,432.929 38.508,463.749 56.286,448 						"/>
						<polygon fill="#BAB4B3" points="29.619,432.929 15.803,445.584 38.508,463.749 						"/>
						<polygon fill="#93A9AE" points="15.803,445.584 10.103,466.744 38.508,463.749 						"/>
						<polygon fill="#A8A8A9" points="38.508,463.749 18.895,481.333 10.103,466.744 						"/>
						<polygon fill="#245E9F" points="113.387,396.89 99.184,485.005 138.314,472.252 						"/>
						<polygon fill="#174182" points="99.184,485.005 122.566,512.638 138.314,472.252 						"/>
						<polygon fill="#437CAB" points="99.184,485.005 66.14,477.662 102.469,464.908 						"/>
						<polygon fill="#266979" points="99.184,485.005 91.261,514.279 122.566,512.638 						"/>
						<polygon fill="#1D3886" points="122.566,512.638 116.091,536.598 91.261,514.279 						"/>
						<polygon fill="#3288AF" points="99.184,485.005 60.826,500.173 91.261,514.279 						"/>
						<polygon fill="#3D65A8" points="99.184,485.005 66.14,477.662 60.826,500.173 						"/>
						<polygon fill="#4A5098" points="102.469,464.908 68.17,458.822 66.14,477.662 						"/>
						<polygon fill="#3D65A8" points="102.469,464.908 106.913,439.111 68.17,458.822 						"/>
						<polygon fill="#224692" points="113.387,396.89 106.913,439.111 68.17,458.822 						"/>
						<polygon fill="#266979" points="66.14,477.662 18.895,481.333 68.17,458.822 						"/>
						<polygon fill="#2B74A5" points="66.14,477.662 -6.129,527.517 18.895,481.333 						"/>
						<polygon fill="#2F85A3" points="60.826,500.173 -6.129,527.517 51.261,527.517 						"/>
						<polygon fill="#3597C1" points="51.261,527.517 38.508,547.323 -6.129,527.517 						"/>
						<polygon fill="#437CAB" points="91.261,514.279 51.261,527.517 60.826,500.173 						"/>
						<polygon fill="#6B7DAD" points="91.261,514.279 84.305,540.27 51.261,527.517 						"/>
						<polygon fill="#A77C97" points="84.305,540.27 38.508,547.323 73.387,570.801 						"/>
						<polygon fill="#4E97C7" points="84.305,540.27 51.261,527.517 38.508,547.323 						"/>
						<polygon fill="#224692" points="116.091,536.598 84.305,540.27 91.261,514.279 						"/>
						<polygon fill="#245E9F" points="116.091,536.598 93.58,598.82 84.305,540.27 						"/>
						<polygon fill="#2B74A5" points="84.305,540.27 73.387,570.801 93.58,598.82 						"/>
						<polygon fill="#93A9AE" points="-1.78,706.838 21.021,698.045 -1.588,683.649 -12.892,687.127 						"/>
						<polygon fill="#B4CBCE" points="29.523,676.886 21.021,698.045 -1.588,683.649 						"/>
						<polygon fill="#3288AF" points="66.14,477.662 60.826,500.173 -6.129,527.517 						"/>
						<polygon fill="#74B6CF" points="31.745,655.824 29.523,618.53 -1.298,659.689 						"/>
						<polygon fill="#B4CBCE" points="31.745,655.824 13.871,653.794 -1.298,659.689 -9.22,670.799 -12.892,687.127 -3.714,692.249 
							-8.931,686.354 -1.588,683.649 16.576,684.615 29.523,676.886 						"/>
						<g>
							<path fill="#439CC3" d="M11.166,665.002c-6.667,0-12.271,4.057-14.203,9.565c-0.483-1.353-0.676-2.706-0.676-4.251
								c0-7.632,6.667-13.816,14.975-13.816c8.212,0,14.975,6.184,14.975,13.816c0,1.449-0.29,2.898-0.676,4.251
								C23.436,669.06,17.832,665.002,11.166,665.002z"/>
							<path fill="#184486" d="M11.166,684.229c-6.667,0-12.271-4.057-14.203-9.565c1.932-5.604,7.536-9.565,14.203-9.565
								s12.271,4.057,14.203,9.565C23.436,680.172,17.832,684.229,11.166,684.229z"/>
						</g>
						<g>
							<line fill="none" x1="11.166" y1="660.267" x2="11.166" y2="680.944"/>
							<path fill="#B4CBCE" d="M11.166,660.267c0,0,0.096,0.096,0.29,0.194c0.096,0.194,0.386,0.386,0.58,0.676
								s0.58,0.58,0.773,1.063c0.29,0.386,0.58,0.87,0.869,1.353c0.58,0.966,1.063,2.125,1.353,3.285
								c0.29,1.257,0.483,2.512,0.483,3.769s-0.194,2.608-0.483,3.769c-0.29,1.257-0.773,2.318-1.353,3.285
								c-0.29,0.483-0.58,0.966-0.869,1.353c-0.289,0.386-0.58,0.773-0.773,1.063c-0.194,0.29-0.483,0.483-0.58,0.676
								c-0.194,0.194-0.29,0.194-0.29,0.194s-0.096-0.096-0.29-0.194c-0.096-0.194-0.386-0.386-0.58-0.676
								c-0.194-0.29-0.58-0.58-0.773-1.063c-0.29-0.386-0.58-0.869-0.869-1.353c-0.58-0.966-1.063-2.125-1.353-3.285
								c-0.29-1.257-0.483-2.512-0.483-3.769s0.194-2.608,0.483-3.769c0.29-1.257,0.773-2.318,1.353-3.285
								c0.29-0.483,0.58-0.966,0.869-1.353c0.29-0.386,0.58-0.773,0.773-1.063c0.194-0.29,0.483-0.483,0.58-0.676
								C11.069,660.365,11.166,660.267,11.166,660.267z"/>
						</g>
						<path fill="#44A6C8" d="M-9.22,670.799"/>
						<polygon fill="#44A6C8" points="-30.96,625.099 -9.22,670.799 -27.385,682.78 						"/>
						<polygon fill="#6AAED1" points="-12.892,687.127 -27.385,682.78 -9.22,670.799 						"/>
						<polygon fill="#74B6CF" points="-3.714,692.249 -1.78,706.838 -27.385,682.78 -12.892,687.127 						"/>
						<polygon fill="#B4CBCE" points="29.523,676.886 65.175,669.446 31.745,655.824 						"/>
						<polygon fill="#44A6C8" points="29.523,618.53 -1.298,642.2 -1.298,659.689 						"/>
						<polygon fill="#74B6CF" points="-1.298,642.2 -12.408,625.776 -15.404,657.755 						"/>
						<polygon fill="#89BED7" points="-1.298,642.2 5.369,609.448 -12.408,625.776 						"/>
						<polygon fill="#3E97D2" points="-12.408,625.776 -30.96,625.099 -15.404,657.755 						"/>
						<polygon fill="#41A6D1" points="29.523,618.53 5.369,609.448 -1.298,642.2 						"/>
						<polygon fill="#50AAD4" points="31.745,655.824 61.697,635.823 30.296,631.282 						"/>
						<polygon fill="#3F9BD1" points="61.697,635.823 29.523,618.53 30.296,631.282 						"/>
						<polygon fill="#6AAED1" points="65.175,669.446 69.426,653.794 31.745,655.824 						"/>
						<polygon fill="#3F9BD1" points="61.697,635.823 69.426,653.794 31.745,655.824 						"/>
						<polygon fill="#6AAED1" points="21.021,698.045 14.064,720.654 -1.78,706.838 						"/>
						<polygon fill="#74B6CF" points="65.175,669.446 51.842,695.243 29.523,676.886 						"/>
						<polygon fill="#6AAED1" points="29.523,676.886 21.021,698.045 51.842,695.243 						"/>
						<polygon fill="#3F9BD1" points="51.842,695.243 55.899,735.146 21.021,698.045 						"/>
						<polygon fill="#57ACD0" points="21.021,698.045 14.064,720.654 55.899,735.146 						"/>
						<polygon fill="#3966A9" points="21.021,741.523 55.899,745.774 83.919,729.929 						"/>
						<polygon fill="#174182" points="21.021,741.523 2.181,771.571 55.899,745.774 						"/>
						<polygon fill="#07266B" points="55.899,745.774 52.518,768.576 2.181,771.571 						"/>
						<polygon fill="#2E2C2A" points="2.181,771.571 7.301,800.265 52.518,768.576 						"/>
						<polygon fill="#266979" points="83.919,729.929 96.382,762.489 52.518,768.576 						"/>
						<polygon fill="#394994" points="83.919,729.929 52.518,768.576 55.899,745.774 						"/>
						<polygon fill="#224692" points="-29.51,812.344 -23.616,738.817 -14.631,786.353 						"/>
						<polygon fill="#1D3886" points="-28.254,796.304 -46.611,777.658 -23.616,738.817 						"/>
						<polygon fill="#133B5E" points="-46.611,777.658 -59.751,777.658 -59.751,743.649 						"/>
						<polygon fill="#245E9F" points="-23.616,738.817 -59.751,743.649 -46.611,777.658 						"/>
						<polygon fill="#0C1D4E" points="7.301,800.265 -14.631,786.353 -29.51,812.344 						"/>
						<polygon fill="#1E1221" points="7.301,800.265 2.181,825.87 -29.51,812.344 						"/>
						<polygon fill="#161514" points="-29.51,812.344 -19.559,836.401 2.181,825.87 						"/>
						<polygon fill="#2E2C2A" points="-29.51,812.344 -41.104,821.135 -19.559,836.401 						"/>
						<polygon fill="#4E2B27" points="-41.104,821.135 -53.181,825.87 -41.394,838.526 						"/>
						<polygon fill="#322E1A" points="-41.104,821.135 -41.394,838.526 -19.559,836.401 						"/>
						<polygon fill="#322E1A" points="-53.181,825.87 -59.751,828.768 -59.751,838.526 -41.394,838.526 						"/>
						<polygon fill="#3D3C38" points="-19.559,836.401 -41.684,850.314 -41.394,838.526 						"/>
						<polygon fill="#484434" points="-41.684,850.314 -59.751,853.212 -59.751,838.526 -41.394,838.526 						"/>
						<polygon fill="#EAC7BE" points="-45.741,799.3 -41.394,807.706 -53.181,825.87 						"/>
						<polygon fill="#C4B0AB" points="-41.394,807.706 -29.51,812.344 -41.104,821.135 						"/>
						<polygon fill="#BEC4A8" points="-41.394,807.706 -28.254,796.304 -29.51,812.344 						"/>
						<polygon fill="#93A9AE" points="-41.394,807.706 -46.611,777.658 -28.254,796.304 						"/>
						<polygon fill="#89BED7" points="-46.611,777.658 -45.741,799.3 -41.394,807.706 						"/>
						<polygon fill="#AB9D7C" points="-45.741,799.3 -59.751,777.658 -46.611,777.658 						"/>
						<polygon fill="#99C09A" points="-53.181,825.87 -41.394,807.706 -41.104,821.135 						"/>
						<polygon fill="#BEC4A8" points="-45.741,799.3 -59.751,777.658 -53.181,825.87 						"/>
						<polygon fill="#C4B0AB" points="-53.181,825.87 -59.751,828.768 -59.751,777.658 						"/>
						<polygon fill="#3D3C38" points="2.181,825.87 10.875,845.29 -19.559,836.401 						"/>
						<polygon fill="#5F524C" points="-19.559,836.401 6.624,866.642 10.875,845.29 						"/>
						<polygon fill="#484434" points="-19.559,836.401 -19.559,859.879 6.624,866.642 						"/>
						<polygon fill="#4A5B43" points="-19.559,836.401 -41.684,850.314 -19.559,859.879 						"/>
						<polygon fill="#484434" points="-41.684,850.314 -29.51,887.125 -19.559,859.879 						"/>
						<polygon fill="#805264" points="-41.684,850.314 -59.751,887.318 -59.751,853.212 						"/>
						<polygon fill="#67401B" points="-34.148,873.115 -59.751,887.318 -41.684,850.314 						"/>
						<polygon fill="#2D7C95" points="2.181,771.571 -23.616,738.817 -14.631,786.353 						"/>
						<polygon fill="#266979" points="2.181,771.571 7.301,800.265 -14.631,786.353 						"/>
						<polygon fill="#2B74A5" points="2.181,771.571 21.021,741.523 -23.616,738.817 						"/>
						<polygon fill="#394994" points="-23.616,738.817 -59.751,722.103 -59.751,743.649 						"/>
						<polygon fill="#2F85A3" points="-27.385,682.78 -44.003,703.069 -23.616,738.817 						"/>
						<polygon fill="#3288BA" points="-27.385,682.78 -1.78,706.838 -23.616,738.817 						"/>
						<polygon fill="#3966A9" points="-27.385,682.78 -51.249,679.011 -59.751,722.103 						"/>
						<polygon fill="#3288BA" points="-51.249,679.011 -59.751,679.011 -59.751,655.824 						"/>
						<polygon fill="#3288AF" points="-51.249,679.011 -44.003,655.824 -27.385,682.78 						"/>
						<polygon fill="#439CC3" points="-44.003,655.824 -30.96,625.099 -27.385,682.78 						"/>
						<polygon fill="#317FBF" points="-51.249,679.011 -59.751,722.103 -59.751,679.011 						"/>
						<polygon fill="#2B74A5" points="-43.519,702.586 -23.616,738.817 -59.751,722.103 						"/>
						<polygon fill="#3799BB" points="14.064,720.654 -23.616,738.817 -1.78,706.838 						"/>
						<polygon fill="#3597C1" points="14.064,720.654 21.021,741.523 -23.616,738.817 						"/>
						<polygon fill="#3799BB" points="55.899,735.243 21.021,741.523 14.064,720.654 						"/>
						<polygon fill="#50AAD4" points="-1.298,642.2 -1.298,659.689 -9.22,670.799 -15.404,657.755 						"/>
						<polygon fill="#306B77" points="116.091,536.598 128.362,559.014 93.58,598.82 						"/>
						<polygon fill="#3C7684" points="128.362,559.014 123.917,587.321 93.58,598.82 						"/>
						<polygon fill="#2D7C95" points="123.917,587.321 100.15,617.467 93.58,598.82 						"/>
						<polygon fill="#3288AF" points="123.917,587.321 135.898,614.568 100.15,617.467 						"/>
						<polygon fill="#2B74A5" points="135.898,614.568 110.971,636.984 100.15,617.467 						"/>
						<polygon fill="#2F85A3" points="135.898,614.568 146.912,635.823 110.971,636.984 						"/>
						<polygon fill="#335AA0" points="146.912,635.823 124.787,659.881 110.971,636.984 						"/>
						<polygon fill="#224692" points="146.912,635.823 164.593,673.021 124.787,659.881 						"/>
						<polygon fill="#394994" points="150.391,668.287 124.787,680.944 124.787,659.881 						"/>
						<polygon fill="#3288BA" points="93.58,598.82 73.387,570.801 29.523,618.53 						"/>
						<polygon fill="#3966A9" points="73.387,570.801 38.508,547.323 29.523,618.53 						"/>
						<polygon fill="#3D65A8" points="38.508,547.323 5.369,609.448 29.523,618.53 						"/>
						<polygon fill="#4A5098" points="38.508,547.323 -14.92,572.056 5.369,609.448 						"/>
						<polygon fill="#3966A9" points="38.508,547.323 -6.129,527.517 -14.92,572.056 						"/>
						<polygon fill="#2F85A3" points="-14.92,572.056 -12.408,625.776 5.369,609.448 						"/>
						<polygon fill="#3799BB" points="-14.92,572.056 -30.96,625.099 -12.408,625.776 						"/>
						<polygon fill="#317FBF" points="-14.92,572.056 -59.751,604.616 -30.96,625.099 						"/>
						<polygon fill="#3597C1" points="-14.92,572.056 -59.751,562.975 -59.751,604.616 						"/>
						<polygon fill="#3597C1" points="-22.36,515.826 -14.92,572.056 -6.129,527.517 						"/>
						<polygon fill="#3288BA" points="-22.36,515.826 -59.751,562.975 -14.92,572.056 						"/>
						<polygon fill="#3966A9" points="-30.96,625.099 -59.751,655.824 -44.003,655.824 						"/>
						<polygon fill="#317FBF" points="-44.003,655.824 -59.751,655.824 -51.249,679.011 						"/>
						<polygon fill="#2D7AB2" points="-30.96,625.099 -59.751,604.616 -59.751,655.824 						"/>
						<polygon fill="#2D7AB2" points="-22.36,515.826 -46.129,512.638 -59.751,562.975 						"/>
						<polygon fill="#2B66AA" points="-46.129,512.638 -59.751,512.638 -59.751,562.975 						"/>
						<polygon fill="#74B6CF" points="65.175,669.446 87.107,680.944 73.387,694.857 						"/>
						<polygon fill="#57ACD0" points="87.107,680.944 96.382,715.242 73.387,694.857 						"/>
						<polygon fill="#3E97D2" points="96.382,715.242 83.919,729.929 137.541,760.653 						"/>
						<polygon fill="#3966A9" points="118.024,739.108 123.917,705.871 96.382,715.242 						"/>
						<polygon fill="#3597C1" points="123.917,705.871 87.107,680.944 96.382,715.242 						"/>
						<polygon fill="#3F9BD1" points="73.387,694.857 51.842,695.243 65.175,669.446 						"/>
						<polygon fill="#3288BA" points="73.387,694.857 83.919,729.929 51.842,695.243 						"/>
						<polygon fill="#3799BB" points="73.387,694.857 96.382,715.242 83.919,729.929 						"/>
						<polygon fill="#348EBB" points="51.842,695.243 55.899,735.243 83.919,729.929 						"/>
						<polygon fill="#3288AF" points="96.382,762.489 112.903,746.547 83.919,729.929 						"/>
						<polygon fill="#2D7C95" points="112.903,746.547 124.787,769.638 96.382,762.489 						"/>
						<polygon fill="#2D7C95" points="124.787,659.881 87.107,680.944 124.787,680.944 						"/>
						<polygon fill="#3288AF" points="124.787,680.944 123.917,705.871 87.107,680.944 						"/>
						<polygon fill="#437CAB" points="124.787,659.881 65.175,669.446 87.107,680.944 						"/>
						<polygon fill="#6B7DAD" points="124.787,659.881 69.426,653.794 65.175,669.446 						"/>
						<polygon fill="#537CAB" points="61.697,635.823 124.787,659.881 69.426,653.794 						"/>
						<polygon fill="#3D65A8" points="61.697,635.823 110.971,636.984 124.787,659.881 						"/>
						<polygon fill="#2E68AC" points="61.697,635.823 100.15,617.467 110.971,636.984 						"/>
						<polygon fill="#3568AB" points="93.58,598.82 61.697,635.823 100.15,617.467 						"/>
						<polygon fill="#2F85A3" points="93.58,598.82 29.523,618.53 61.697,635.823 						"/>
						<polygon fill="#1D3886" points="124.787,680.944 174.256,702.102 150.391,668.287 						"/>
						<polygon fill="#224692" points="123.917,705.871 153.869,693.408 179.182,725.774 						"/>
						<polygon fill="#394994" points="123.917,705.871 159.377,718.624 118.024,739.108 						"/>
						<polygon fill="#1E5288" points="159.377,718.624 172.709,749.253 138.7,728.866 						"/>
						<polygon fill="#245E9F" points="138.7,728.866 118.024,739.108 149.522,758.624 						"/>
						<polygon fill="#2B74A5" points="153.869,693.408 124.787,680.944 123.917,705.871 						"/>
						<polygon fill="#3D3C38" points="52.518,768.576 70.972,782.778 96.382,762.489 						"/>
						<polygon fill="#4E2B27" points="52.518,768.576 7.301,800.265 70.972,782.778 						"/>
						<polygon fill="#322E1A" points="70.972,782.778 73.387,807.706 7.301,800.265 						"/>
						<polygon fill="#3D3C38" points="7.301,800.265 55.899,827.319 54.644,805.579 						"/>
						<polygon fill="#484434" points="7.301,800.265 47.3,843.357 40.345,818.72 						"/>
						<polygon fill="#4A5B43" points="47.3,843.357 2.181,825.87 7.301,800.265 						"/>
						<polygon fill="#805264" points="2.181,825.87 10.875,845.29 28.46,836.014 						"/>
					</g>
				</g>
			</g>
		</g>
	</g>
</g>
</svg>
