<?xml version="1.0" encoding="UTF-8"?>
<svg width="221px" height="89px" viewBox="0 0 221 89" version="1.1" xmlns="http://www.w3.org/2000/svg" xmlns:xlink="http://www.w3.org/1999/xlink">
    <!-- Generator: Sketch 45.2 (43514) - http://www.bohemiancoding.com/sketch -->
    <title>Artboard</title>
    <desc>Created with Sketch.</desc>
    <defs></defs>
    <g id="Page-1" stroke="none" stroke-width="1" fill="none" fill-rule="evenodd">
        <g id="Artboard">
            <g id="Normal">
                <polygon id="Fill-1" fill="#FFFFFE" points="0.547 88.524 220.168 88.524 220.168 0.674 0.547 0.674"></polygon>
                <path d="M16.813,19.137 C16.813,19.137 29.62,16.464 40.38,16.464 C51.14,16.464 64.523,19.137 64.523,19.137 C64.523,19.137 64.523,54.932 64.523,60.301 C64.523,63.655 62.468,65.458 61.737,65.985 C60.098,67.168 52.759,72.735 40.686,72.735 C29.324,72.735 22.393,67.833 19.64,65.904 C18.404,65.034 16.813,63.133 16.813,60.301 C16.813,55.947 16.813,19.137 16.813,19.137" id="Fill-2" fill="#FFF101"></path>
                <path d="M60.957,66.753 C51.226,73.063 41.122,72.721 41.122,72.721 C41.122,72.721 40.843,71.432 40.955,69.209 C41.065,66.985 42.279,67.612 43.157,65.855 C43.475,65.218 43.75,64.777 44.248,63.283 C44.268,63.221 43.665,52.571 43.512,48.051 C43.43,45.616 42.972,41.552 42.436,37.601 C42.12,35.259 41.408,33.404 41.079,31.181 C40.602,27.97 40.049,24.349 40.049,24.349 C39.654,25.371 39.086,29.196 38.517,33.514 C38.244,35.585 37.969,37.769 37.713,39.813 C37.171,44.138 35.821,55.717 35.617,56.345 C35.308,57.298 35.275,56.093 35.275,56.093 C35.275,56.093 36.076,43.947 36.317,38.621 C36.434,36.017 36.631,33.155 36.956,30.41 C37.2,28.349 37.516,26.352 37.924,24.578 C37.924,24.578 39.315,20.377 39.758,20.294 C40.202,20.21 41.806,22.941 42.348,25.372 C43.576,30.859 44.3,31.561 45.235,37.327 C46.125,42.805 46.936,47.387 47.045,48.137 C47.444,50.855 47.247,59.335 46.561,62.712 C46.399,63.634 46.349,63.973 45.748,64.582 C44.337,66.009 43.335,67.709 43.335,68.821 C43.335,69.934 43.149,69.912 43.413,70.557 C43.413,70.557 45.273,73.341 55.963,66.969 C55.963,66.969 59.304,65.219 59.304,61.356 L59.304,22.285 C59.304,22.285 48.704,18.701 40.54,18.701 C32.375,18.701 22.151,22.277 22.151,22.277 L22.151,61.18 C22.151,63.574 22.5,68.065 25.918,69.597 C25.918,69.597 16.813,66.48 16.813,61.132 L16.813,18.973 C16.813,18.973 30.713,16.415 40.545,16.415 C50.377,16.415 64.523,18.973 64.523,18.973 C64.523,18.973 64.523,57.547 64.523,61.183 C64.523,64.817 60.957,66.753 60.957,66.753" id="Fill-3" fill="#1A1919"></path>
                <path d="M193.047,34.1 C192.076,34.642 190.77,34.912 189.129,34.912 C187.475,34.912 186.189,34.412 185.273,33.41 C184.355,32.409 183.898,31.013 183.898,29.219 C183.898,27.411 184.355,25.973 185.273,24.902 C186.164,23.873 187.346,23.358 188.82,23.358 C189.473,23.358 190.037,23.43 190.51,23.573 L190.51,19.035 L193.047,19.035 L193.047,34.1 Z M190.51,33.032 L190.51,24.944 C190.176,24.848 189.801,24.798 189.383,24.798 C187.41,24.798 186.422,26.223 186.422,29.071 C186.422,31.88 187.346,33.283 189.195,33.283 C189.807,33.283 190.244,33.2 190.51,33.032 L190.51,33.032 Z" id="Fill-4" fill="#1A1919"></path>
                <path d="M204.645,29.011 L197.764,30.01 C197.973,32.093 198.996,33.134 200.83,33.134 C201.914,33.134 202.859,32.929 203.666,32.519 L204.27,34.121 C203.311,34.648 202.074,34.912 200.559,34.912 C198.947,34.912 197.674,34.405 196.742,33.391 C195.812,32.377 195.346,30.933 195.346,29.057 C195.346,27.236 195.773,25.815 196.627,24.795 C197.482,23.774 198.654,23.264 200.141,23.264 C201.643,23.264 202.781,23.753 203.56,24.732 C204.34,25.711 204.701,27.137 204.645,29.011 Z M202.269,28.015 C202.269,25.889 201.531,24.825 200.055,24.825 C199.275,24.825 198.678,25.138 198.26,25.764 C197.801,26.444 197.584,27.432 197.613,28.724 L202.269,28.015 L202.269,28.015 Z" id="Fill-5" fill="#1A1919"></path>
                <polygon id="Fill-6" fill="#1A1919" points="72.779 64.68 76.767 64.68 76.767 40.024 72.779 40.024"></polygon>
                <path d="M95.164,55.888 C95.164,58.61 94.564,60.777 93.366,62.389 C92.058,64.131 90.217,65.001 87.843,65.001 C85.468,65.001 83.627,64.131 82.321,62.389 C81.122,60.777 80.523,58.61 80.523,55.888 C80.523,53.144 81.122,50.966 82.321,49.354 C83.627,47.612 85.468,46.741 87.843,46.741 C90.239,46.741 92.081,47.612 93.366,49.354 C94.564,50.966 95.164,53.144 95.164,55.888 Z M91.207,55.857 C91.207,51.457 90.085,49.256 87.843,49.256 C85.6,49.256 84.479,51.457 84.479,55.857 C84.479,60.148 85.6,62.294 87.843,62.294 C90.085,62.294 91.207,60.148 91.207,55.857 L91.207,55.857 Z" id="Fill-7" fill="#1A1919"></path>
                <path d="M108.834,59.611 C108.834,61.093 108.256,62.356 107.101,63.401 C105.947,64.446 104.432,64.97 102.557,64.97 C100.552,64.97 98.928,64.546 97.686,63.697 L98.732,61.152 C99.582,61.829 100.683,62.166 102.036,62.166 C102.842,62.166 103.496,61.933 103.998,61.464 C104.498,60.996 104.75,60.401 104.75,59.683 C104.75,58.942 104.553,58.359 104.162,57.935 C103.77,57.51 103.105,57.122 102.168,56.774 C99.49,55.75 98.151,54.105 98.151,51.84 C98.151,50.401 98.668,49.192 99.702,48.212 C100.736,47.231 102.08,46.741 103.734,46.741 C105.519,46.741 107.043,47.155 108.305,47.983 L107.328,50.304 C106.523,49.648 105.587,49.32 104.522,49.32 C103.739,49.32 103.125,49.543 102.68,49.99 C102.234,50.436 102.01,50.987 102.01,51.64 C102.01,52.795 102.881,53.72 104.623,54.417 C107.43,55.55 108.834,57.28 108.834,59.611" id="Fill-8" fill="#1A1919"></path>
                <path d="M138.25,64.681 L133.598,64.681 L131.715,58.397 L123.832,58.397 L121.879,64.681 L117.828,64.681 L125.928,40.238 L130.187,40.238 L138.25,64.681 Z M131.076,55.768 L128.555,47.16 C128.199,45.952 127.986,44.967 127.914,44.209 L127.844,44.209 C127.727,44.849 127.5,45.832 127.17,47.16 L124.541,55.768 L131.076,55.768 L131.076,55.768 Z" id="Fill-9" fill="#1A1919"></path>
                <path d="M154.65,64.681 L150.662,64.681 L150.662,52.197 C150.662,50.236 149.607,49.256 147.496,49.256 C146.494,49.256 145.58,49.419 144.752,49.746 L144.752,64.681 L140.764,64.681 L140.764,48.016 C142.572,47.167 144.869,46.741 147.658,46.741 C150.119,46.741 151.94,47.285 153.115,48.375 C154.139,49.29 154.65,50.543 154.65,52.134 L154.65,64.681" id="Fill-10" fill="#1A1919"></path>
                <path d="M172.627,63.728 C171.102,64.576 169.051,65.001 166.48,65.001 C163.887,65.001 161.871,64.218 160.432,62.649 C158.994,61.081 158.275,58.892 158.275,56.083 C158.275,53.251 158.994,50.997 160.432,49.319 C161.828,47.707 163.68,46.9 165.99,46.9 C167.014,46.9 167.896,47.011 168.639,47.232 L168.639,40.104 L172.627,40.104 L172.627,63.728 Z M168.639,62.063 L168.639,49.389 C168.115,49.236 167.525,49.16 166.873,49.16 C163.777,49.16 162.23,51.393 162.23,55.856 C162.23,60.256 163.68,62.454 166.578,62.454 C167.537,62.454 168.223,62.324 168.639,62.063 L168.639,62.063 Z" id="Fill-11" fill="#1A1919"></path>
                <path d="M190.773,55.76 L179.988,57.329 C180.315,60.597 181.916,62.23 184.791,62.23 C186.49,62.23 187.973,61.904 189.236,61.251 L190.184,63.762 C188.68,64.589 186.742,65.001 184.367,65.001 C181.84,65.001 179.846,64.206 178.387,62.617 C176.928,61.027 176.197,58.763 176.197,55.822 C176.197,52.97 176.867,50.743 178.207,49.143 C179.547,47.542 181.383,46.741 183.713,46.741 C186.068,46.741 187.853,47.51 189.074,49.045 C190.295,50.581 190.861,52.82 190.773,55.76 Z M187.041,54.192 C187.041,50.858 185.887,49.191 183.576,49.191 C182.357,49.191 181.42,49.683 180.766,50.663 C180.047,51.73 179.711,53.277 179.754,55.303 L187.041,54.192 L187.041,54.192 Z" id="Fill-12" fill="#1A1919"></path>
                <path d="M204.477,59.611 C204.477,61.093 203.898,62.356 202.744,63.401 C201.588,64.446 200.074,64.97 198.199,64.97 C196.195,64.97 194.57,64.546 193.328,63.697 L194.373,61.152 C195.225,61.829 196.326,62.166 197.678,62.166 C198.484,62.166 199.139,61.933 199.639,61.464 C200.141,60.996 200.391,60.401 200.391,59.683 C200.391,58.942 200.195,58.359 199.805,57.935 C199.412,57.51 198.748,57.122 197.81,56.774 C195.131,55.75 193.791,54.105 193.791,51.84 C193.791,50.401 194.309,49.192 195.344,48.212 C196.377,47.231 197.723,46.741 199.377,46.741 C201.162,46.741 202.685,47.155 203.947,47.983 L202.969,50.304 C202.164,49.648 201.228,49.32 200.164,49.32 C199.381,49.32 198.768,49.543 198.32,49.99 C197.875,50.436 197.652,50.987 197.652,51.64 C197.652,52.795 198.523,53.72 200.264,54.417 C203.072,55.55 204.477,57.28 204.477,59.611" id="Fill-13" fill="#1A1919"></path>
                <path d="M93.818,34.742 L91.279,34.742 L91.279,26.777 C91.279,25.525 90.605,24.899 89.256,24.899 C88.618,24.899 88.034,25.004 87.505,25.213 L87.505,34.742 L84.966,34.742 L84.966,24.111 C86.12,23.57 87.585,23.298 89.361,23.298 C90.93,23.298 92.089,23.647 92.838,24.341 C93.492,24.924 93.818,25.723 93.818,26.738 L93.818,34.742" id="Fill-14" fill="#1A1919"></path>
                <path d="M99.294,20.308 C99.294,20.655 99.158,20.952 98.886,21.195 C98.615,21.44 98.285,21.56 97.896,21.56 C97.506,21.56 97.176,21.44 96.905,21.195 C96.634,20.952 96.498,20.655 96.498,20.308 C96.498,19.96 96.634,19.661 96.905,19.411 C97.176,19.161 97.506,19.035 97.896,19.035 C98.285,19.035 98.615,19.157 98.886,19.4 C99.158,19.645 99.294,19.946 99.294,20.308 Z M96.621,34.742 L99.16,34.742 L99.16,23.502 L96.621,23.502 L96.621,34.742 Z" id="Fill-15" fill="#1A1919"></path>
                <path d="M110.734,23.502 L107.127,34.742 L104.708,34.742 L101.038,23.502 L103.748,23.502 L105.73,30.757 C105.883,31.299 105.973,31.812 106.001,32.299 L106.043,32.299 C106.112,31.896 106.209,31.382 106.335,30.757 L108.357,23.502 L110.734,23.502" id="Fill-16" fill="#1A1919"></path>
                <path d="M121.385,29.045 L114.504,30.044 C114.713,32.127 115.734,33.168 117.568,33.168 C118.652,33.168 119.598,32.963 120.404,32.554 L121.01,34.155 C120.051,34.684 118.812,34.946 117.299,34.946 C115.685,34.946 114.414,34.438 113.482,33.425 C112.551,32.411 112.084,30.967 112.084,29.091 C112.084,27.271 112.512,25.851 113.367,24.83 C114.223,23.809 115.393,23.298 116.881,23.298 C118.381,23.298 119.522,23.787 120.299,24.767 C121.078,25.745 121.44,27.171 121.385,29.045 Z M119.01,28.049 C119.01,25.923 118.272,24.859 116.795,24.859 C116.016,24.859 115.416,25.172 114.998,25.798 C114.539,26.478 114.324,27.466 114.352,28.758 L119.01,28.049 L119.01,28.049 Z" id="Fill-17" fill="#1A1919"></path>
                <path d="M129.111,23.311 L128.609,25.171 C128.234,25.046 127.844,24.983 127.44,24.983 C126.953,24.983 126.549,25.074 126.228,25.255 L126.228,34.742 L123.69,34.742 L123.69,24.104 C124.928,23.507 126.734,23.242 129.111,23.311" id="Fill-18" fill="#1A1919"></path>
                <path d="M137.215,31.512 C137.215,32.457 136.846,33.264 136.109,33.932 C135.371,34.6 134.406,34.933 133.211,34.933 C131.93,34.933 130.894,34.661 130.102,34.118 L130.77,32.491 C131.31,32.924 132.014,33.142 132.877,33.142 C133.391,33.142 133.809,32.991 134.129,32.691 C134.447,32.395 134.607,32.015 134.607,31.556 C134.607,31.083 134.482,30.711 134.234,30.44 C133.982,30.17 133.559,29.923 132.963,29.7 C131.254,29.047 130.398,27.997 130.398,26.551 C130.398,25.634 130.728,24.862 131.389,24.236 C132.049,23.61 132.906,23.298 133.961,23.298 C135.1,23.298 136.072,23.563 136.877,24.089 L136.252,25.567 C135.738,25.149 135.143,24.94 134.461,24.94 C133.961,24.94 133.568,25.083 133.283,25.368 C133,25.653 132.857,26.005 132.857,26.422 C132.857,27.159 133.412,27.75 134.525,28.194 C136.318,28.919 137.215,30.023 137.215,31.512" id="Fill-19" fill="#1A1919"></path>
                <path d="M142.187,20.308 C142.187,20.655 142.051,20.952 141.781,21.195 C141.51,21.44 141.18,21.56 140.791,21.56 C140.4,21.56 140.07,21.44 139.799,21.195 C139.529,20.952 139.393,20.655 139.393,20.308 C139.393,19.96 139.529,19.661 139.799,19.411 C140.07,19.161 140.4,19.035 140.791,19.035 C141.18,19.035 141.51,19.157 141.781,19.4 C142.051,19.645 142.187,19.946 142.187,20.308 Z M139.516,34.742 L142.055,34.742 L142.055,23.502 L139.516,23.502 L139.516,34.742 Z" id="Fill-20" fill="#1A1919"></path>
                <path d="M153.598,34.134 C152.625,34.676 151.32,34.946 149.68,34.946 C148.027,34.946 146.74,34.445 145.824,33.444 C144.906,32.444 144.449,31.047 144.449,29.253 C144.449,27.445 144.906,26.006 145.824,24.936 C146.715,23.907 147.897,23.393 149.371,23.393 C150.023,23.393 150.588,23.464 151.06,23.606 L151.06,19.069 L153.598,19.069 L153.598,34.134 Z M151.06,33.067 L151.06,24.978 C150.727,24.882 150.352,24.832 149.934,24.832 C147.959,24.832 146.973,26.257 146.973,29.105 C146.973,31.914 147.898,33.317 149.746,33.317 C150.357,33.317 150.797,33.234 151.06,33.067 L151.06,33.067 Z" id="Fill-21" fill="#1A1919"></path>
                <path d="M164.422,34.134 C163.408,34.676 162.055,34.946 160.357,34.946 C157.301,34.946 155.773,33.808 155.773,31.53 C155.773,30.17 156.393,29.148 157.629,28.468 C158.602,27.941 160.072,27.579 162.047,27.386 L162.047,26.781 C162.047,25.545 161.303,24.928 159.816,24.928 C158.885,24.928 157.949,25.155 157.004,25.609 L156.42,24.151 C157.588,23.583 158.871,23.298 160.275,23.298 C163.039,23.298 164.422,24.591 164.422,27.174 L164.422,34.134 Z M162.047,33.222 L162.047,28.591 C160.715,28.758 159.772,29.015 159.217,29.363 C158.523,29.794 158.176,30.489 158.176,31.449 C158.176,32.839 158.961,33.535 160.527,33.535 C161.123,33.535 161.629,33.431 162.047,33.222 L162.047,33.222 Z" id="Fill-22" fill="#1A1919"></path>
                <path d="M175.869,34.134 C174.897,34.676 173.59,34.946 171.951,34.946 C170.297,34.946 169.012,34.445 168.094,33.444 C167.178,32.444 166.719,31.047 166.719,29.253 C166.719,27.445 167.178,26.006 168.096,24.936 C168.984,23.907 170.166,23.393 171.641,23.393 C172.295,23.393 172.857,23.464 173.33,23.606 L173.33,19.069 L175.869,19.069 L175.869,34.134 Z M173.33,33.067 L173.33,24.978 C172.996,24.882 172.621,24.832 172.205,24.832 C170.23,24.832 169.244,26.257 169.244,29.105 C169.244,31.914 170.168,33.317 172.018,33.317 C172.629,33.317 173.066,33.234 173.33,33.067 L173.33,33.067 Z" id="Fill-23" fill="#1A1919"></path>
                <path d="M72.748,19.095 L75.452,19.095 L75.452,31.179 C75.452,32.507 76.167,33.172 77.598,33.172 C78.278,33.172 78.897,33.061 79.457,32.84 L79.457,19.095 L82.162,19.095 L82.162,34.014 C80.936,34.589 79.378,34.877 77.488,34.877 C75.819,34.877 74.585,34.508 73.789,33.77 C73.094,33.149 72.748,32.3 72.748,31.222 L72.748,19.095" id="Fill-24" fill="#1A1919"></path>
            </g>
        </g>
    </g>
</svg>