<?xml version="1.0" encoding="UTF-8"?>
<svg width="371px" height="149px" viewBox="0 0 371 149" version="1.1" xmlns="http://www.w3.org/2000/svg" xmlns:xlink="http://www.w3.org/1999/xlink">
    <!-- Generator: Sketch 51.2 (57519) - http://www.bohemiancoding.com/sketch -->
    <title>uniandes</title>
    <desc>Created with Sketch.</desc>
    <defs></defs>
    <g id="uniandes" stroke="none" stroke-width="1" fill="none" fill-rule="evenodd">
        <g transform="translate(1.000000, 19.000000)" fill-rule="nonzero">
            <path d="M0,5.27275151 C0,5.27275151 25.2328233,0 46.4325718,0 C67.6323203,0 94,5.27275151 94,5.27275151 C94,5.27275151 94,75.8818574 94,86.4727302 C94,93.0888202 89.9511633,96.6454124 88.5109201,97.6849709 C85.2817019,100.018553 70.8221337,111 47.0354643,111 C24.6496332,111 10.9939216,101.33033 5.56985957,97.5251906 C3.13464682,95.8090313 0,92.0591246 0,86.4727302 C0,77.8840433 0,5.27275151 0,5.27275151" id="Fill-2" fill="#FFF101"></path>
            <path d="M86.9741354,99.2290949 C67.8017606,111.667722 47.8944875,110.993552 47.8944875,110.993552 C47.8944875,110.993552 47.3447914,108.452603 47.565458,104.0705 C47.782184,99.6864263 50.1740516,100.922404 51.9039195,97.4589068 C52.5304548,96.2032166 53.07227,95.3338926 54.0534479,92.3888359 C54.0928527,92.266618 52.9047998,71.2727394 52.6033536,62.3626613 C52.4417942,57.5626525 51.5394257,49.5514672 50.4833787,41.763034 C49.8607839,37.1463519 48.4579753,33.4896717 47.8097673,29.1075691 C46.8699644,22.7778655 45.7804234,15.6399467 45.7804234,15.6399467 C45.0021798,17.6545706 43.8830853,25.1946256 42.7620205,33.7065099 C42.2241459,37.7889815 41.6823307,42.094205 41.1779501,46.1234527 C40.1100817,54.6491358 37.450262,77.4743114 37.0483337,78.7122603 C36.4395305,80.5908675 36.3745127,78.2155037 36.3745127,78.2155037 C36.3745127,78.2155037 37.9526724,54.2726259 38.4274995,43.7737153 C38.6580172,38.6405641 39.0461538,32.9988289 39.6864808,27.5877306 C40.1672186,23.5249716 40.7898135,19.5883729 41.5936701,16.0913644 C41.5936701,16.0913644 44.3342695,7.81011709 45.2070845,7.64650282 C46.0818696,7.4809173 49.2421295,12.864418 50.3099979,17.6565418 C52.7294488,28.4728246 54.1559002,29.8566465 55.9980717,41.2229098 C57.7515825,52.0214513 59.3494446,61.0537472 59.5642004,62.5321894 C60.3503249,67.8900637 59.9621882,84.6063164 58.6106057,91.2632486 C58.2914274,93.0807468 58.1929155,93.7490026 57.0088032,94.9494977 C54.228799,97.7624803 52.2546217,101.113616 52.2546217,103.305653 C52.2546217,105.499661 51.8881576,105.456293 52.4083001,106.727753 C52.4083001,106.727753 56.0729407,112.215731 77.1347726,99.6548862 C77.1347726,99.6548862 83.7173339,96.2051879 83.7173339,88.5902251 L83.7173339,11.5712739 C83.7173339,11.5712739 62.8328233,4.50629169 46.7478097,4.50629169 C30.6608258,4.50629169 10.5171243,11.5555039 10.5171243,11.5555039 L10.5171243,88.2432841 C10.5171243,92.9624714 11.204737,101.815383 17.9390065,104.835348 C17.9390065,104.835348 0,98.6909419 0,88.1486638 L0,5.04247337 C0,5.04247337 27.3862922,0 46.7576609,0 C66.1290296,0 94,5.04247337 94,5.04247337 C94,5.04247337 94,81.0817103 94,88.2491978 C94,95.4127429 86.9741354,99.2290949 86.9741354,99.2290949" id="Fill-3" fill="#1A1919"></path>
            <path d="M348,34.4145619 C346.089627,35.4728223 343.520166,36 340.291617,36 C337.03749,36 334.507378,35.023745 332.705214,33.0673301 C330.899115,31.1128677 330,28.3871638 330,24.884361 C330,21.3542231 330.899115,18.5465138 332.705214,16.4553757 C334.458192,14.446243 336.783692,13.4407004 339.683681,13.4407004 C340.968412,13.4407004 342.078041,13.5812811 343.008635,13.86049 L343.008635,5 L348,5 L348,34.4145619 Z M343.008635,32.3292814 L343.008635,16.5373811 C342.351514,16.3499402 341.613728,16.2523147 340.791343,16.2523147 C336.909608,16.2523147 334.965789,19.0346413 334.965789,24.5953896 C334.965789,30.0799899 336.783692,32.8193613 340.421467,32.8193613 C341.625533,32.8193613 342.485299,32.657303 343.008635,32.3292814 Z" id="Fill-4" fill="#1A1919"></path>
            <path d="M369.98909,24.3479567 L356.677666,26.3205701 C357.081981,30.4336367 359.060993,32.4891827 362.608901,32.4891827 C364.705919,32.4891827 366.534039,32.0843922 368.095196,31.2748111 L369.263645,34.438101 C367.408442,35.4787088 365.015442,36 362.084646,36 C358.966202,36 356.50356,34.9988839 354.700588,32.9966518 C352.901486,30.9944196 352,28.1431147 352,24.4387878 C352,20.8430632 352.82604,18.0371738 354.478119,16.0230941 C356.132132,14.0070398 358.399388,13 361.276017,13 C364.181665,13 366.383147,13.9655735 367.890137,15.8986951 C369.399062,17.8318166 370.097423,20.647579 369.98909,24.3479567 Z M365.392673,22.3812672 C365.392673,18.1832933 363.964999,16.0823317 361.109649,16.0823317 C359.600724,16.0823317 358.445817,16.7003777 357.637188,17.9364698 C356.749244,19.2791896 356.329453,21.2300824 356.385554,23.78125 L365.392673,22.3812672 Z" id="Fill-5" fill="#1A1919"></path>
            <polygon id="Fill-6" fill="#1A1919" points="111 94 119 94 119 46 111 46"></polygon>
            <path d="M155,77.0335159 C155,82.4 153.811557,86.6722892 151.438631,89.8503834 C148.847825,93.2847755 145.201284,95 140.49901,95 C135.794754,95 132.148214,93.2847755 129.561369,89.8503834 C127.186463,86.6722892 126,82.4 126,77.0335159 C126,71.6236583 127.186463,67.3296824 129.561369,64.1515882 C132.148214,60.7171961 135.794754,59 140.49901,59 C145.24486,59 148.893382,60.7171961 151.438631,64.1515882 C153.811557,67.3296824 155,71.6236583 155,77.0335159 Z M147.162216,76.9723987 C147.162216,68.2976999 144.939827,63.958379 140.49901,63.958379 C136.056212,63.958379 133.835804,68.2976999 133.835804,76.9723987 C133.835804,85.4322015 136.056212,89.6630887 140.49901,89.6630887 C144.939827,89.6630887 147.162216,85.4322015 147.162216,76.9723987 Z" id="Fill-7" fill="#1A1919"></path>
            <path d="M182,84.4166438 C182,87.3434089 180.859347,89.8376762 178.580014,91.9014208 C176.302655,93.9651654 173.312881,95 169.612666,95 C165.655902,95 162.451023,94.1626529 160,92.4859839 L162.064227,87.4599265 C163.741658,88.796917 165.914424,89.4624499 168.584499,89.4624499 C170.175099,89.4624499 171.465734,89.002304 172.456405,88.0760876 C173.443129,87.151846 173.940438,85.9767952 173.940438,84.5588348 C173.940438,83.0954523 173.551668,81.9441001 172.78005,81.106753 C172.006459,80.267431 170.694116,79.5011794 168.844995,78.8139229 C163.5601,76.7916507 160.917653,73.542981 160.917653,69.0698886 C160.917653,66.2280432 161.937926,63.8404191 163.978471,61.9050414 C166.019017,59.9676888 168.671331,59 171.935414,59 C175.458019,59 178.465554,59.8175983 180.956046,61.452795 L179.027987,66.0364803 C177.439361,64.7409622 175.592214,64.0932031 173.490492,64.0932031 C171.945282,64.0932031 170.733584,64.5336003 169.8554,65.4163695 C168.975242,66.2971639 168.53319,67.3853201 168.53319,68.6749136 C168.53319,70.9558945 170.252063,72.782654 173.68981,74.159142 C179.229279,76.3966756 182,79.8132097 182,84.4166438" id="Fill-8" fill="#1A1919"></path>
            <path d="M239,95 L229.888258,95 L226.200078,82.6597799 L210.759867,82.6597799 L206.93458,95 L199,95 L214.865243,47 L223.207227,47 L239,95 Z M224.948487,77.4970748 L220.010675,60.5930941 C219.313388,58.2208812 218.89619,56.2865851 218.755166,54.7980608 L218.618059,54.7980608 C218.388894,56.0548623 217.944276,57.9852309 217.297914,60.5930941 L212.148565,77.4970748 L224.948487,77.4970748 Z" id="Fill-9" fill="#1A1919"></path>
            <path d="M272,94 L264.245715,94 L264.245715,69.6443701 C264.245715,65.8185619 262.194368,63.9066332 258.089731,63.9066332 C256.141437,63.9066332 254.364252,64.2246377 252.754285,64.8625975 L252.754285,94 L245,94 L245,61.4874582 C248.515483,59.8311037 252.98178,59 258.404724,59 C263.189903,59 266.730664,60.0613155 269.015339,62.1878484 C271.006409,63.9729654 272,66.4175028 272,69.5214604 L272,94" id="Fill-10" fill="#1A1919"></path>
            <path d="M307,92.4945977 C304.024805,94.1635538 300.023411,95 295.007525,95 C289.948718,95 286.015608,93.458971 283.208194,90.3710086 C280.402731,87.2850143 279,82.9768245 279,77.4484074 C279,71.8747239 280.402731,67.4386071 283.208194,64.1361208 C285.931717,60.9635297 289.544872,59.3752661 294.051561,59.3752661 C296.049331,59.3752661 297.770067,59.5937262 299.219621,60.0286782 L299.219621,46 L307,46 L307,92.4945977 Z M299.219621,89.2176969 L299.219621,64.2738884 C298.197324,63.9727678 297.046265,63.8231915 295.774247,63.8231915 C289.734114,63.8231915 286.715998,68.2179781 286.715998,77.0016468 C286.715998,85.6613247 289.544872,89.9872274 295.198718,89.9872274 C297.069677,89.9872274 298.408027,89.7313733 299.219621,89.2176969 Z" id="Fill-11" fill="#1A1919"></path>
            <path d="M342.982343,76.781161 L321.537875,79.8744797 C322.188068,86.3174151 325.371434,89.5369113 331.08797,89.5369113 C334.466195,89.5369113 337.414933,88.894195 339.926232,87.6067908 L341.811198,92.5572837 C338.820704,94.1877327 334.967261,95 330.244905,95 C325.220318,95 321.255527,93.4326396 318.354509,90.2998905 C315.453492,87.1651698 314,82.7016429 314,76.9033954 C314,71.2806134 315.332202,66.8900329 317.996605,63.7355969 C320.661008,60.5791895 324.311638,59 328.944517,59 C333.627106,59 337.17633,60.5161008 339.604118,63.5423877 C342.031906,66.5706462 343.157318,70.984885 342.982343,76.781161 Z M335.561781,73.6898138 C335.561781,67.1167579 333.267213,63.83023 328.672112,63.83023 C326.248301,63.83023 324.385207,64.8002191 323.084819,66.7323111 C321.655188,68.8359255 320.987099,71.8858708 321.072598,75.8801752 L335.561781,73.6898138 Z" id="Fill-12" fill="#1A1919"></path>
            <path d="M370,84.4166438 C370,87.3434089 368.857476,89.8376762 366.580321,91.9014208 C364.29922,93.9651654 361.311687,95 357.611804,95 C353.657368,95 350.450803,94.1626529 348,92.4859839 L350.062068,87.4599265 C351.743295,88.796917 353.915867,89.4624499 356.583729,89.4624499 C358.174186,89.4624499 359.466679,89.002304 360.453314,88.0760876 C361.443896,87.151846 361.937214,85.9767952 361.937214,84.5588348 C361.937214,83.0954523 361.550453,81.9441001 360.780877,81.106753 C360.005382,80.267431 358.69513,79.5011794 356.844201,78.8139229 C351.557808,76.7916507 348.913625,73.542981 348.913625,69.0698886 C348.913625,66.2280432 349.935779,63.8404191 351.978115,61.9050414 C354.016504,59.9676888 356.672527,59 359.936317,59 C363.458606,59 366.463898,59.8175983 368.954166,61.452795 L367.024307,66.0364803 C365.435824,64.7409622 363.588842,64.0932031 361.489282,64.0932031 C359.94421,64.0932031 358.734595,64.5336003 357.85057,65.4163695 C356.972464,66.2971639 356.532424,67.3853201 356.532424,68.6749136 C356.532424,70.9558945 358.251144,72.782654 361.686609,74.159142 C367.227554,76.3966756 370,79.8132097 370,84.4166438" id="Fill-13" fill="#1A1919"></path>
            <path d="M152,36 L147.123927,36 L147.123927,19.9920482 C147.123927,17.4757952 145.82953,16.2176686 143.238816,16.2176686 C142.013556,16.2176686 140.892002,16.4286963 139.876073,16.8487417 L139.876073,36 L135,36 L135,14.6339567 C137.216222,13.546662 140.029711,13 143.440465,13 C146.453683,13 148.679507,13.7014156 150.117939,15.0962076 C151.373927,16.2679133 152,17.873733 152,19.9136666 L152,36" id="Fill-14" fill="#1A1919"></path>
            <path d="M163,7.51244668 C163,8.19730057 162.708155,8.78347234 162.124464,9.26306742 C161.542918,9.74660979 160.834764,9.98344687 160,9.98344687 C159.16309,9.98344687 158.454936,9.74660979 157.873391,9.26306742 C157.291845,8.78347234 157,8.19730057 157,7.51244668 C157,6.82561915 157.291845,6.2355001 157.873391,5.74208951 C158.454936,5.24867893 159.16309,5 160,5 C160.834764,5 161.542918,5.24078436 162.124464,5.72037945 C162.708155,6.20392182 163,6.79798816 163,7.51244668 Z M157.263948,36 L162.712446,36 L162.712446,13.8162603 L157.263948,13.8162603 L157.263948,36 Z" id="Fill-15" fill="#1A1919"></path>
            <path d="M185,14 L177.931828,36 L173.191625,36 L166,14 L171.310437,14 L175.194307,28.2001779 C175.494121,29.261032 175.670483,30.2651246 175.725351,31.2183274 L175.807653,31.2183274 C175.942863,30.4295374 176.132941,29.4234875 176.379847,28.2001779 L180.3421,14 L185,14" id="Fill-16" fill="#1A1919"></path>
            <path d="M205.989477,24.3479567 L192.680629,26.3205701 C193.084866,30.4336367 195.059627,32.4891827 198.606848,32.4891827 C200.70346,32.4891827 202.533161,32.0843922 204.092081,31.2767857 L205.264173,34.438101 C203.409328,35.482658 201.012923,36 198.086563,36 C194.964854,36 192.506556,34.9969093 190.703934,32.9966518 C188.903245,30.9944196 188,28.1431147 188,24.4387878 C188,20.8450378 188.827814,18.0411229 190.481507,16.0250687 C192.137135,14.0090144 194.400084,13 197.278091,13 C200.179307,13 202.386166,13.9655735 203.888996,15.9006696 C205.395695,17.8318166 206.095855,20.647579 205.989477,24.3479567 Z M201.395884,22.3812672 C201.395884,18.1832933 199.968486,16.0823317 197.111754,16.0823317 C195.605056,16.0823317 194.444569,16.7003777 193.636097,17.9364698 C192.748324,19.2791896 192.332483,21.2300824 192.386639,23.78125 L201.395884,22.3812672 Z" id="Fill-17" fill="#1A1919"></path>
            <path d="M222,13.0205606 L220.981369,16.5969543 C220.220439,16.3566053 219.429072,16.2354694 218.609297,16.2354694 C217.621103,16.2354694 216.801328,16.4104435 216.149972,16.7584689 L216.149972,35 L211,35 L211,14.5453349 C213.512083,13.3974279 217.17672,12.8878879 222,13.0205606" id="Fill-18" fill="#1A1919"></path>
            <path d="M238,29.2373872 C238,31.1054577 237.273724,32.7007306 235.823141,34.0212291 C234.370589,35.3417275 232.47125,36 230.119218,36 C227.597919,36 225.558836,35.462312 224,34.3889128 L225.314776,31.1726687 C226.377618,32.0286205 227.76325,32.4595617 229.46183,32.4595617 C230.473499,32.4595617 231.296218,32.1610657 231.926051,31.5680275 C232.551947,30.9828964 232.866863,30.2317147 232.866863,29.3243661 C232.866863,28.3893425 232.620835,27.6539751 232.132715,27.1182639 C231.636721,26.5845294 230.804161,26.0962613 229.631098,25.6554362 C226.267398,24.3645896 224.582595,22.2889557 224.582595,19.4305114 C224.582595,17.6177911 225.23211,16.0917061 226.533108,14.8542329 C227.832138,13.6167598 229.518909,13 231.595389,13 C233.837199,13 235.750316,13.5238505 237.334739,14.5636442 L236.104597,17.4853459 C235.092928,16.659046 233.921833,16.245896 232.579502,16.245896 C231.595389,16.245896 230.821875,16.5285776 230.260931,17.0919639 C229.703922,17.6553502 229.422466,18.3511818 229.422466,19.1755049 C229.422466,20.6324022 230.514832,21.8006876 232.705469,22.6783842 C236.2345,24.1115599 238,26.2939407 238,29.2373872" id="Fill-19" fill="#1A1919"></path>
            <path d="M248,7.51244668 C248,8.19730057 247.707946,8.78347234 247.128132,9.26306742 C246.54617,9.74660979 245.837509,9.98344687 245.002147,9.98344687 C244.162491,9.98344687 243.45383,9.74660979 242.871868,9.26306742 C242.292054,8.78347234 242,8.19730057 242,7.51244668 C242,6.82561915 242.292054,6.2355001 242.871868,5.74208951 C243.45383,5.24867893 244.162491,5 245.002147,5 C245.837509,5 246.54617,5.24078436 247.128132,5.72037945 C247.707946,6.20392182 248,6.79798816 248,7.51244668 Z M242.264137,36 L247.716535,36 L247.716535,13.8162603 L242.264137,13.8162603 L242.264137,36 Z" id="Fill-20" fill="#1A1919"></path>
            <path d="M270,34.4145619 C268.085692,35.4728223 265.518199,36 262.291617,36 C259.039458,36 256.507378,35.0217925 254.705214,33.0673301 C252.899115,31.1148202 252,28.3871638 252,24.884361 C252,21.3542231 252.899115,18.5445613 254.705214,16.4553757 C256.458192,14.446243 258.783692,13.4426529 261.683681,13.4426529 C262.966444,13.4426529 264.078041,13.5812811 265.006667,13.8585375 L265.006667,5 L270,5 L270,34.4145619 Z M265.006667,32.3312339 L265.006667,16.5373811 C264.351514,16.3499402 263.613728,16.2523147 262.791343,16.2523147 C258.905673,16.2523147 256.965789,19.0346413 256.965789,24.5953896 C256.965789,30.0799899 258.78566,32.8193613 262.421467,32.8193613 C263.623565,32.8193613 264.489234,32.657303 265.006667,32.3312339 Z" id="Fill-21" fill="#1A1919"></path>
            <path d="M291,34.3966346 C289.006937,35.4668613 286.347555,36 283.010059,36 C277.003353,36 274,33.752919 274,29.2548077 C274,26.5693681 275.218638,24.5513393 277.648052,23.2086195 C279.560527,22.1680117 282.449879,21.4532109 286.33183,21.0721154 L286.33183,19.8774897 C286.33183,17.436899 284.869465,16.2185783 281.946699,16.2185783 C280.116777,16.2185783 278.277026,16.6668098 276.419586,17.5632727 L275.271708,14.6843235 C277.567464,13.5627576 280.089259,13 282.848884,13 C288.281651,13 291,15.5531422 291,20.6535027 L291,34.3966346 Z M286.33183,32.5958104 L286.33183,23.4514938 C283.713724,23.78125 281.860215,24.2887191 280.769337,24.9758757 C279.405249,25.8269231 278.723205,27.1992617 278.723205,29.0948661 C278.723205,31.8395433 280.266158,33.2138565 283.344202,33.2138565 C284.515667,33.2138565 285.510232,33.0084993 286.33183,32.5958104 Z" id="Fill-22" fill="#1A1919"></path>
            <path d="M314,34.4145619 C312.087869,35.4728223 309.516721,36 306.292459,36 C303.038689,36 300.51082,35.0217925 298.704918,33.0673301 C296.902951,31.1148202 296,28.3871638 296,24.884361 C296,21.3542231 296.902951,18.5445613 298.708852,16.4553757 C300.455738,14.446243 302.780984,13.4426529 305.682623,13.4426529 C306.96918,13.4426529 308.074754,13.5812811 309.005246,13.8585375 L309.005246,5 L314,5 L314,34.4145619 Z M309.005246,32.3312339 L309.005246,16.5373811 C308.348197,16.3499402 307.610492,16.2523147 306.792131,16.2523147 C302.906885,16.2523147 300.967213,19.0346413 300.967213,24.5953896 C300.967213,30.0799899 302.784918,32.8193613 306.424262,32.8193613 C307.62623,32.8193613 308.485902,32.657303 309.005246,32.3312339 Z" id="Fill-23" fill="#1A1919"></path>
            <path d="M111,5 L116.457404,5 L116.457404,28.7361551 C116.457404,31.3446965 117.900467,32.6509314 120.788613,32.6509314 C122.161037,32.6509314 123.410346,32.4328982 124.540578,31.9987961 L124.540578,5 L130,5 L130,34.304841 C127.5256,35.4342922 124.381134,36 120.566603,36 C117.198109,36 114.707563,35.2751869 113.10102,33.8255608 C111.698322,32.6057534 111,30.938094 111,28.8206184 L111,5" id="Fill-24" fill="#1A1919"></path>
        </g>
    </g>
</svg>