<svg height="720" viewBox="0 0 720 720" width="720" xmlns="http://www.w3.org/2000/svg" xmlns:xlink="http://www.w3.org/1999/xlink"><defs><linearGradient id="a" x1="0%" x2="100%" y1="0%" y2="100%"><stop offset="0" stop-color="#009ce5"/><stop offset="1" stop-color="#4953cf"/></linearGradient><path id="b" d="m481.742905 167.34375c40.083537 0 68.076829 39.587152 54.593616 77.216307l-88.257001 246.298301c-13.134971 36.667956-47.98595 61.142926-87.04262 61.142926h-.008929c-38.949518 0-73.711205-24.34147-86.935468-60.858126l-89.194576-246.405102c-13.63501-37.664754 14.358282-77.394306 54.522182-77.394306h1.339392c26.698547 0 49.932533 18.173778 56.29911 44.010447l63.531825 215.148339 64.790855-214.89914c6.277283-25.961268 29.573774-44.259646 56.361614-44.259646z"/><filter id="c" height="209.2%" width="217.2%" x="-58.6%" y="-39%"><feOffset dx="0" dy="60" in="SourceAlpha" result="shadowOffsetOuter1"/><feGaussianBlur in="shadowOffsetOuter1" result="shadowBlurOuter1" stdDeviation="60"/><feColorMatrix in="shadowBlurOuter1" type="matrix" values="0 0 0 0 0.0580664075   0 0 0 0 0.0774342211   0 0 0 0 0.317595109  0 0 0 0.2 0"/></filter></defs><g fill="none" fill-rule="evenodd"><path d="m0 0h720v720h-720z" fill="url(#a)"/><use fill="#000" filter="url(#c)" xlink:href="#b"/><use fill="#fff" fill-rule="evenodd" xlink:href="#b"/></g></svg>