<svg width="371" height="149" viewBox="0 0 371 149" xmlns="http://www.w3.org/2000/svg"><g fill="none"><path d="M1 24.273S26.233 19 47.433 19 95 24.273 95 24.273v81.2c0 6.616-4.049 10.172-5.49 11.212C86.283 119.019 71.823 130 48.036 130c-22.385 0-36.041-9.67-41.465-13.475C4.135 114.81 1 111.06 1 105.473v-81.2" fill="#FFF101"/><path d="M87.974 118.23c-19.172 12.438-39.08 11.764-39.08 11.764s-.55-2.541-.329-6.924c.217-4.384 2.61-3.148 4.339-6.611.626-1.256 1.168-2.125 2.15-5.07.039-.122-1.15-21.116-1.45-30.026-.162-4.8-1.065-12.812-2.12-20.6-.623-4.617-2.026-8.273-2.674-12.655-.94-6.33-2.03-13.468-2.03-13.468-.778 2.015-1.897 9.555-3.018 18.067-.538 4.082-1.08 8.387-1.584 12.416-1.068 8.526-3.728 31.351-4.13 32.59-.608 1.878-.673-.497-.673-.497s1.578-23.943 2.052-34.442c.231-5.133.62-10.775 1.26-16.186.48-4.063 1.103-8 1.907-11.497 0 0 2.74-8.28 3.613-8.444.875-.166 4.035 5.217 5.103 10.01 2.42 10.816 3.846 12.2 5.688 23.566 1.754 10.798 3.351 19.83 3.566 21.31.786 5.357.398 22.073-.953 28.73-.32 1.818-.418 2.486-1.602 3.686-2.78 2.813-4.754 6.165-4.754 8.357 0 2.194-.367 2.15.153 3.422 0 0 3.665 5.488 24.727-7.073 0 0 6.582-3.45 6.582-11.065V30.571s-20.884-7.065-36.97-7.065-36.23 7.05-36.23 7.05v76.687c0 4.72.688 13.572 7.422 16.592 0 0-17.939-6.144-17.939-16.686V24.042S28.386 19 47.758 19C67.129 19 95 24.042 95 24.042v83.207c0 7.164-7.026 10.98-7.026 10.98M349 53.415c-1.91 1.058-4.48 1.585-7.708 1.585-3.255 0-5.785-.976-7.587-2.933-1.806-1.954-2.705-4.68-2.705-8.183 0-3.53.9-6.337 2.705-8.429 1.753-2.009 4.079-3.014 6.979-3.014 1.284 0 2.394.14 3.325.42V24H349v29.415zm-4.991-2.086V35.537a8.07 8.07 0 00-2.218-.285c-3.881 0-5.825 2.783-5.825 8.343 0 5.485 1.818 8.224 5.455 8.224 1.205 0 2.064-.162 2.588-.49zm26.981-7.981l-13.312 1.973c.404 4.113 2.383 6.168 5.93 6.168 2.098 0 3.926-.405 5.487-1.214l1.169 3.163c-1.856 1.04-4.249 1.562-7.18 1.562-3.118 0-5.58-1.001-7.383-3.003-1.8-2.003-2.701-4.854-2.701-8.558 0-3.596.826-6.402 2.478-8.416C357.132 33.007 359.4 32 362.276 32c2.906 0 5.107.966 6.614 2.899 1.51 1.933 2.207 4.749 2.1 8.449zm-4.597-1.967c0-4.198-1.428-6.299-4.283-6.299-1.51 0-2.664.618-3.473 1.854-.888 1.343-1.308 3.294-1.251 5.845l9.007-1.4zM112 113h8V65h-8zm44-16.966c0 5.366-1.188 9.638-3.561 12.816-2.591 3.435-6.238 5.15-10.94 5.15-4.704 0-8.35-1.715-10.938-5.15-2.375-3.178-3.561-7.45-3.561-12.816 0-5.41 1.186-9.704 3.561-12.882C133.148 79.717 136.795 78 141.5 78c4.746 0 8.394 1.717 10.94 5.152 2.372 3.178 3.56 7.472 3.56 12.882zm-7.838-.062c0-8.674-2.222-13.014-6.663-13.014-4.443 0-6.663 4.34-6.663 13.014 0 8.46 2.22 12.691 6.663 12.691 4.44 0 6.663-4.23 6.663-12.69zM183 103.417c0 2.926-1.14 5.42-3.42 7.484-2.277 2.064-5.267 3.099-8.967 3.099-3.957 0-7.162-.837-9.613-2.514l2.064-5.026c1.678 1.337 3.85 2.002 6.52 2.002 1.591 0 2.882-.46 3.872-1.386.987-.924 1.484-2.1 1.484-3.517 0-1.464-.388-2.615-1.16-3.452-.774-.84-2.086-1.606-3.935-2.293-5.285-2.022-7.927-5.271-7.927-9.744 0-2.842 1.02-5.23 3.06-7.165 2.041-1.937 4.693-2.905 7.957-2.905 3.523 0 6.53.818 9.021 2.453l-1.928 4.583c-1.589-1.295-3.436-1.943-5.538-1.943-1.545 0-2.756.44-3.635 1.323-.88.881-1.322 1.97-1.322 3.259 0 2.28 1.72 4.108 5.157 5.484 5.54 2.238 8.31 5.654 8.31 10.258M240 114h-9.112l-3.688-12.34h-15.44L207.935 114H200l15.865-48h8.342L240 114zm-14.052-17.503l-4.937-16.904c-.698-2.372-1.115-4.306-1.256-5.795h-.137c-.23 1.257-.674 3.187-1.32 5.795l-5.15 16.904h12.8zM273 113h-7.754V88.644c0-3.825-2.052-5.737-6.156-5.737-1.949 0-3.726.318-5.336.956V113H246V80.487c3.515-1.656 7.982-2.487 13.405-2.487 4.785 0 8.326 1.061 10.61 3.188 1.991 1.785 2.985 4.23 2.985 7.333V113m35-1.505c-2.975 1.669-6.977 2.505-11.992 2.505-5.06 0-8.992-1.541-11.8-4.629-2.805-3.086-4.208-7.394-4.208-12.923 0-5.573 1.403-10.01 4.208-13.312 2.724-3.172 6.337-4.76 10.844-4.76 1.997 0 3.718.218 5.168.653V65H308v46.495zm-7.78-3.277V83.274c-1.023-.301-2.174-.45-3.446-.45-6.04 0-9.058 4.394-9.058 13.178 0 8.66 2.829 12.985 8.483 12.985 1.87 0 3.209-.256 4.02-.77zm43.762-12.437l-21.444 3.093c.65 6.443 3.833 9.663 9.55 9.663 3.378 0 6.327-.643 8.838-1.93l1.885 4.95c-2.99 1.63-6.844 2.443-11.566 2.443-5.025 0-8.99-1.567-11.89-4.7-2.902-3.135-4.355-7.598-4.355-13.397 0-5.622 1.332-10.013 3.997-13.167C321.66 79.579 325.312 78 329.945 78c4.682 0 8.231 1.516 10.66 4.542 2.427 3.029 3.552 7.443 3.377 13.24zm-7.42-3.091c0-6.573-2.295-9.86-6.89-9.86-2.424 0-4.287.97-5.587 2.902-1.43 2.104-2.098 5.154-2.012 9.148l14.489-2.19zM371 103.417c0 2.926-1.143 5.42-3.42 7.484-2.28 2.064-5.268 3.099-8.968 3.099-3.955 0-7.161-.837-9.612-2.514l2.062-5.026c1.681 1.337 3.854 2.002 6.522 2.002 1.59 0 2.883-.46 3.87-1.386.99-.924 1.483-2.1 1.483-3.517 0-1.464-.387-2.615-1.156-3.452-.776-.84-2.086-1.606-3.937-2.293-5.286-2.022-7.93-5.271-7.93-9.744 0-2.842 1.022-5.23 3.064-7.165 2.039-1.937 4.695-2.905 7.958-2.905 3.523 0 6.528.818 9.018 2.453l-1.93 4.583c-1.588-1.295-3.435-1.943-5.535-1.943-1.545 0-2.754.44-3.638 1.323-.879.881-1.319 1.97-1.319 3.259 0 2.28 1.72 4.108 5.155 5.484 5.54 2.238 8.313 5.654 8.313 10.258M153 55h-4.876V38.992c0-2.516-1.294-3.774-3.885-3.774-1.225 0-2.347.21-3.363.63V55H136V33.634c2.216-1.087 5.03-1.634 8.44-1.634 3.014 0 5.24.701 6.678 2.096 1.256 1.172 1.882 2.778 1.882 4.818V55m11-28.488c0 .685-.292 1.271-.876 1.751-.581.484-1.29.72-2.124.72-.837 0-1.545-.236-2.127-.72-.581-.48-.873-1.066-.873-1.75 0-.687.292-1.277.873-1.77.582-.494 1.29-.743 2.127-.743.835 0 1.543.24 2.124.72.584.484.876 1.078.876 1.792zM158.264 55h5.448V32.816h-5.448V55zM186 33l-7.068 22h-4.74L167 33h5.31l3.884 14.2c.3 1.061.476 2.065.531 3.018h.083c.135-.788.325-1.795.572-3.018l3.962-14.2H186m20.99 10.348l-13.31 1.973c.405 4.113 2.38 6.168 5.927 6.168 2.096 0 3.926-.405 5.485-1.212l1.172 3.161C204.41 54.483 202.013 55 199.087 55c-3.122 0-5.58-1.003-7.383-3.003-1.8-2.003-2.704-4.854-2.704-8.558 0-3.594.828-6.398 2.482-8.414C193.137 33.01 195.4 32 198.278 32c2.901 0 5.108.966 6.611 2.9 1.507 1.932 2.207 4.748 2.1 8.448zm-4.594-1.967c0-4.198-1.428-6.299-4.284-6.299-1.507 0-2.667.618-3.476 1.854-.888 1.343-1.304 3.294-1.25 5.845l9.01-1.4zM223 32.02l-1.019 3.577a7.832 7.832 0 00-2.372-.362c-.988 0-1.808.175-2.459.523V54H212V33.545c2.512-1.148 6.177-1.657 11-1.524m16 16.216c0 1.868-.726 3.464-2.177 4.784-1.452 1.32-3.352 1.979-5.704 1.979-2.521 0-4.56-.538-6.119-1.611l1.315-3.216c1.063.856 2.448 1.287 4.147 1.287 1.011 0 1.834-.299 2.464-.892.626-.585.94-1.336.94-2.244 0-.935-.245-1.67-.733-2.206-.496-.533-1.329-1.022-2.502-1.463-3.364-1.29-5.048-3.366-5.048-6.224 0-1.813.65-3.34 1.95-4.577 1.3-1.237 2.986-1.854 5.062-1.854 2.242 0 4.155.524 5.74 1.564l-1.23 2.921c-1.012-.826-2.183-1.24-3.525-1.24-.985 0-1.758.284-2.32.847-.556.563-.838 1.26-.838 2.084 0 1.456 1.093 2.625 3.283 3.502 3.53 1.434 5.295 3.616 5.295 6.56m10-21.726c0 .685-.292 1.271-.872 1.751-.582.484-1.29.72-2.126.72-.84 0-1.548-.236-2.13-.72-.58-.48-.872-1.066-.872-1.75 0-.687.292-1.277.872-1.77.582-.494 1.29-.743 2.13-.743.836 0 1.544.24 2.126.72.58.484.872 1.078.872 1.792zM243.264 55h5.453V32.816h-5.453V55zM271 53.415c-1.914 1.058-4.482 1.585-7.708 1.585-3.253 0-5.785-.978-7.587-2.933-1.806-1.952-2.705-4.68-2.705-8.183 0-3.53.9-6.34 2.705-8.429 1.753-2.009 4.079-3.012 6.979-3.012 1.282 0 2.394.138 3.323.416V24H271v29.415zm-4.993-2.084V35.537a8.063 8.063 0 00-2.216-.285c-3.885 0-5.825 2.783-5.825 8.343 0 5.485 1.82 8.224 5.455 8.224 1.203 0 2.068-.162 2.586-.488zM292 53.397c-1.993 1.07-4.652 1.603-7.99 1.603-6.007 0-9.01-2.247-9.01-6.745 0-2.686 1.219-4.704 3.648-6.046 1.913-1.041 4.802-1.756 8.684-2.137v-1.195c0-2.44-1.463-3.658-4.385-3.658-1.83 0-3.67.448-5.527 1.344l-1.148-2.879c2.295-1.121 4.817-1.684 7.577-1.684 5.433 0 8.151 2.553 8.151 7.654v13.743zm-4.668-1.801V42.45c-2.618.33-4.472.838-5.563 1.525-1.364.85-2.046 2.223-2.046 4.119 0 2.745 1.543 4.119 4.621 4.119 1.172 0 2.166-.206 2.988-.618zM315 53.415c-1.912 1.058-4.483 1.585-7.708 1.585-3.253 0-5.781-.978-7.587-2.933-1.802-1.952-2.705-4.68-2.705-8.183 0-3.53.903-6.34 2.709-8.429 1.747-2.009 4.072-3.012 6.974-3.012 1.286 0 2.392.138 3.322.416V24H315v29.415zm-4.995-2.084V35.537a8.059 8.059 0 00-2.213-.285c-3.885 0-5.825 2.783-5.825 8.343 0 5.485 1.818 8.224 5.457 8.224 1.202 0 2.062-.162 2.581-.488zM112 24h5.457v23.736c0 2.609 1.443 3.915 4.332 3.915 1.372 0 2.621-.218 3.752-.652V24H131v29.305c-2.474 1.13-5.619 1.695-9.433 1.695-3.369 0-5.86-.725-7.466-2.174-1.403-1.22-2.101-2.888-2.101-5.005V24" fill="#1A1919"/></g></svg>