<svg width="221" height="89" viewBox="0 0 221 89" xmlns="http://www.w3.org/2000/svg"><g fill="none" fill-rule="evenodd"><path fill="#FFFFFE" d="M.547 88.524h219.621V.674H.547z"/><path d="M16.813 19.137s12.807-2.673 23.567-2.673 24.143 2.673 24.143 2.673v41.164c0 3.354-2.055 5.157-2.786 5.684-1.639 1.183-8.978 6.75-21.051 6.75-11.362 0-18.293-4.902-21.046-6.831-1.236-.87-2.827-2.771-2.827-5.603V19.137" fill="#FFF101"/><path d="M60.957 66.753c-9.731 6.31-19.835 5.968-19.835 5.968s-.279-1.289-.167-3.512c.11-2.224 1.324-1.597 2.202-3.354.318-.637.593-1.078 1.091-2.572.02-.062-.583-10.712-.736-15.232-.082-2.435-.54-6.499-1.076-10.45-.316-2.342-1.028-4.197-1.357-6.42-.477-3.211-1.03-6.832-1.03-6.832-.395 1.022-.963 4.847-1.532 9.165a999.739 999.739 0 0 0-.804 6.299c-.542 4.325-1.892 15.904-2.096 16.532-.309.953-.342-.252-.342-.252s.801-12.146 1.042-17.472c.117-2.604.314-5.466.639-8.211.244-2.061.56-4.058.968-5.832 0 0 1.391-4.201 1.834-4.284.444-.084 2.048 2.647 2.59 5.078 1.228 5.487 1.952 6.189 2.887 11.955.89 5.478 1.701 10.06 1.81 10.81.399 2.718.202 11.198-.484 14.575-.162.922-.212 1.261-.813 1.87-1.411 1.427-2.413 3.127-2.413 4.239 0 1.113-.186 1.091.078 1.736 0 0 1.86 2.784 12.55-3.588 0 0 3.341-1.75 3.341-5.613V22.285s-10.6-3.584-18.764-3.584c-8.165 0-18.389 3.576-18.389 3.576V61.18c0 2.394.349 6.885 3.767 8.417 0 0-9.105-3.117-9.105-8.465V18.973s13.9-2.558 23.732-2.558c9.832 0 23.978 2.558 23.978 2.558v42.21c0 3.634-3.566 5.57-3.566 5.57M193.047 34.1c-.971.542-2.277.812-3.918.812-1.654 0-2.94-.5-3.856-1.502-.918-1.001-1.375-2.397-1.375-4.191 0-1.808.457-3.246 1.375-4.317.891-1.029 2.073-1.544 3.547-1.544.653 0 1.217.072 1.69.215v-4.538h2.537V34.1zm-2.537-1.068v-8.088a4.072 4.072 0 0 0-1.127-.146c-1.973 0-2.961 1.425-2.961 4.273 0 2.809.924 4.212 2.773 4.212.612 0 1.049-.083 1.315-.251zm14.135-4.021l-6.881.999c.209 2.083 1.232 3.124 3.066 3.124 1.084 0 2.029-.205 2.836-.615l.604 1.602c-.959.527-2.196.791-3.711.791-1.612 0-2.885-.507-3.817-1.521-.93-1.014-1.396-2.458-1.396-4.334 0-1.821.427-3.242 1.281-4.262.855-1.021 2.027-1.531 3.514-1.531 1.502 0 2.64.489 3.419 1.468.78.979 1.141 2.405 1.085 4.279zm-2.376-.996c0-2.126-.738-3.19-2.214-3.19-.78 0-1.377.313-1.795.939-.459.68-.676 1.668-.647 2.96l4.656-.709zM72.779 64.68h3.988V40.024h-3.988zm22.385-8.792c0 2.722-.6 4.889-1.798 6.501-1.308 1.742-3.149 2.612-5.523 2.612-2.375 0-4.216-.87-5.522-2.612-1.199-1.612-1.798-3.779-1.798-6.501 0-2.744.599-4.922 1.798-6.534 1.306-1.742 3.147-2.613 5.522-2.613 2.396 0 4.238.871 5.523 2.613 1.198 1.612 1.798 3.79 1.798 6.534zm-3.957-.031c0-4.4-1.122-6.601-3.364-6.601-2.243 0-3.364 2.201-3.364 6.601 0 4.291 1.121 6.437 3.364 6.437 2.242 0 3.364-2.146 3.364-6.437zm17.627 3.754c0 1.482-.578 2.745-1.733 3.79-1.154 1.045-2.669 1.569-4.544 1.569-2.005 0-3.629-.424-4.871-1.273l1.046-2.545c.85.677 1.951 1.014 3.304 1.014.806 0 1.46-.233 1.962-.702.5-.468.752-1.063.752-1.781 0-.741-.197-1.324-.588-1.748-.392-.425-1.057-.813-1.994-1.161-2.678-1.024-4.017-2.669-4.017-4.934 0-1.439.517-2.648 1.551-3.628 1.034-.981 2.378-1.471 4.032-1.471 1.785 0 3.309.414 4.571 1.242l-.977 2.321c-.805-.656-1.741-.984-2.806-.984-.783 0-1.397.223-1.842.67-.446.446-.67.997-.67 1.65 0 1.155.871 2.08 2.613 2.777 2.807 1.133 4.211 2.863 4.211 5.194m29.416 5.07h-4.652l-1.883-6.284h-7.883l-1.953 6.284h-4.051l8.1-24.443h4.259l8.063 24.443zm-7.174-8.913l-2.521-8.608c-.356-1.208-.569-2.193-.641-2.951h-.07c-.117.64-.344 1.623-.674 2.951l-2.629 8.608h6.535zm23.574 8.913h-3.988V52.197c0-1.961-1.055-2.941-3.166-2.941-1.002 0-1.916.163-2.744.49v14.935h-3.988V48.016c1.808-.849 4.105-1.275 6.894-1.275 2.461 0 4.282.544 5.457 1.634 1.024.915 1.535 2.168 1.535 3.759v12.547m17.977-.953c-1.525.848-3.576 1.273-6.147 1.273-2.593 0-4.609-.783-6.048-2.352-1.438-1.568-2.157-3.757-2.157-6.566 0-2.832.719-5.086 2.157-6.764 1.396-1.612 3.248-2.419 5.558-2.419 1.024 0 1.906.111 2.649.332v-7.128h3.988v23.624zm-3.988-1.665V49.389a6.304 6.304 0 0 0-1.766-.229c-3.096 0-4.643 2.233-4.643 6.696 0 4.4 1.45 6.598 4.348 6.598.959 0 1.645-.13 2.061-.391zm22.134-6.303l-10.785 1.569c.327 3.268 1.928 4.901 4.803 4.901 1.699 0 3.182-.326 4.445-.979l.948 2.511c-1.504.827-3.442 1.239-5.817 1.239-2.527 0-4.521-.795-5.98-2.384-1.459-1.59-2.19-3.854-2.19-6.795 0-2.852.67-5.079 2.01-6.679 1.34-1.601 3.176-2.402 5.506-2.402 2.355 0 4.14.769 5.361 2.304 1.221 1.536 1.787 3.775 1.699 6.715zm-3.732-1.568c0-3.334-1.154-5.001-3.465-5.001-1.219 0-2.156.492-2.81 1.472-.719 1.067-1.055 2.614-1.012 4.64l7.287-1.111zm17.436 5.419c0 1.482-.579 2.745-1.733 3.79-1.156 1.045-2.67 1.569-4.545 1.569-2.004 0-3.629-.424-4.871-1.273l1.045-2.545c.852.677 1.953 1.014 3.305 1.014.806 0 1.461-.233 1.961-.702.502-.468.752-1.063.752-1.781 0-.741-.196-1.324-.586-1.748-.393-.425-1.057-.813-1.995-1.161-2.679-1.024-4.019-2.669-4.019-4.934 0-1.439.518-2.648 1.553-3.628 1.033-.981 2.379-1.471 4.033-1.471 1.785 0 3.308.414 4.57 1.242l-.978 2.321c-.805-.656-1.741-.984-2.805-.984-.783 0-1.396.223-1.844.67-.445.446-.668.997-.668 1.65 0 1.155.871 2.08 2.612 2.777 2.808 1.133 4.213 2.863 4.213 5.194M93.818 34.742h-2.539v-7.965c0-1.252-.674-1.878-2.023-1.878-.638 0-1.222.105-1.751.314v9.529h-2.539V24.111c1.154-.541 2.619-.813 4.395-.813 1.569 0 2.728.349 3.477 1.043.654.583.98 1.382.98 2.397v8.004m5.476-14.434c0 .347-.136.644-.408.887a1.421 1.421 0 0 1-.99.365c-.39 0-.72-.12-.991-.365a1.15 1.15 0 0 1-.407-.887c0-.348.136-.647.407-.897.271-.25.601-.376.991-.376.389 0 .719.122.99.365.272.245.408.546.408.908zm-2.673 14.434h2.539v-11.24h-2.539v11.24zm14.113-11.24l-3.607 11.24h-2.419l-3.67-11.24h2.71l1.982 7.255c.153.542.243 1.055.271 1.542h.042c.069-.403.166-.917.292-1.542l2.022-7.255h2.377m10.651 5.543l-6.881.999c.209 2.083 1.23 3.124 3.064 3.124 1.084 0 2.03-.205 2.836-.614l.606 1.601c-.959.529-2.198.791-3.711.791-1.614 0-2.885-.508-3.817-1.521-.931-1.014-1.398-2.458-1.398-4.334 0-1.82.428-3.24 1.283-4.261.856-1.021 2.026-1.532 3.514-1.532 1.5 0 2.641.489 3.418 1.469.779.978 1.141 2.404 1.086 4.278zm-2.375-.996c0-2.126-.738-3.19-2.215-3.19-.779 0-1.379.313-1.797.939-.459.68-.674 1.668-.646 2.96l4.658-.709zm10.101-4.738l-.502 1.86a3.674 3.674 0 0 0-1.169-.188c-.487 0-.891.091-1.212.272v9.487h-2.538V24.104c1.238-.597 3.044-.862 5.421-.793m8.104 8.201c0 .945-.369 1.752-1.106 2.42-.738.668-1.703 1.001-2.898 1.001-1.281 0-2.317-.272-3.109-.815l.668-1.627c.54.433 1.244.651 2.107.651.514 0 .932-.151 1.252-.451.318-.296.478-.676.478-1.135 0-.473-.125-.845-.373-1.116-.252-.27-.675-.517-1.271-.74-1.709-.653-2.565-1.703-2.565-3.149 0-.917.33-1.689.991-2.315.66-.626 1.517-.938 2.572-.938 1.139 0 2.111.265 2.916.791l-.625 1.478a2.751 2.751 0 0 0-1.791-.627c-.5 0-.893.143-1.178.428a1.44 1.44 0 0 0-.426 1.054c0 .737.555 1.328 1.668 1.772 1.793.725 2.69 1.829 2.69 3.318m4.972-11.204c0 .347-.136.644-.406.887a1.421 1.421 0 0 1-.99.365c-.391 0-.721-.12-.992-.365a1.152 1.152 0 0 1-.406-.887c0-.348.136-.647.406-.897a1.41 1.41 0 0 1 .992-.376c.389 0 .719.122.99.365.27.245.406.546.406.908zm-2.671 14.434h2.539v-11.24h-2.539v11.24zm14.082-.608c-.973.542-2.278.812-3.918.812-1.653 0-2.94-.501-3.856-1.502-.918-1-1.375-2.397-1.375-4.191 0-1.808.457-3.247 1.375-4.317.891-1.029 2.073-1.543 3.547-1.543.652 0 1.217.071 1.689.213v-4.537h2.538v15.065zm-2.538-1.067v-8.089a4.06 4.06 0 0 0-1.126-.146c-1.975 0-2.961 1.425-2.961 4.273 0 2.809.925 4.212 2.773 4.212.611 0 1.051-.083 1.314-.25zm13.362 1.067c-1.014.542-2.367.812-4.065.812-3.056 0-4.584-1.138-4.584-3.416 0-1.36.62-2.382 1.856-3.062.973-.527 2.443-.889 4.418-1.082v-.605c0-1.236-.744-1.853-2.231-1.853-.931 0-1.867.227-2.812.681l-.584-1.458c1.168-.568 2.451-.853 3.855-.853 2.764 0 4.147 1.293 4.147 3.876v6.96zm-2.375-.912v-4.631c-1.332.167-2.275.424-2.83.772-.694.431-1.041 1.126-1.041 2.086 0 1.39.785 2.086 2.351 2.086.596 0 1.102-.104 1.52-.313zm13.822.912c-.972.542-2.279.812-3.918.812-1.654 0-2.939-.501-3.857-1.502-.916-1-1.375-2.397-1.375-4.191 0-1.808.459-3.247 1.377-4.317.888-1.029 2.07-1.543 3.545-1.543.654 0 1.216.071 1.689.213v-4.537h2.539v15.065zm-2.539-1.067v-8.089a4.068 4.068 0 0 0-1.125-.146c-1.975 0-2.961 1.425-2.961 4.273 0 2.809.924 4.212 2.774 4.212.611 0 1.048-.083 1.312-.25zM72.748 19.095h2.704v12.084c0 1.328.715 1.993 2.146 1.993a5.02 5.02 0 0 0 1.859-.332V19.095h2.705v14.919c-1.226.575-2.784.863-4.674.863-1.669 0-2.903-.369-3.699-1.107-.695-.621-1.041-1.47-1.041-2.548V19.095" fill="#1A1919"/></g></svg>