<svg height="720" viewBox="0 0 720 720" width="720" xmlns="http://www.w3.org/2000/svg" xmlns:xlink="http://www.w3.org/1999/xlink"><defs><linearGradient id="a" x1="0%" x2="100%" y1="0%" y2="100%"><stop offset="0" stop-color="#009ce5"/><stop offset="1" stop-color="#4953cf"/></linearGradient><filter id="b" height="209.2%" width="217.2%" x="-58.6%" y="-39%"><feOffset dy="60" in="SourceAlpha" result="shadowOffsetOuter1"/><feGaussianBlur in="shadowOffsetOuter1" result="shadowBlurOuter1" stdDeviation="60"/><feColorMatrix in="shadowBlurOuter1" values="0 0 0 0 0.0580664075 0 0 0 0 0.0774342211 0 0 0 0 0.317595109 0 0 0 0.2 0"/></filter><path id="c" d="M481.743 167.344c40.083 0 68.077 39.587 54.594 77.216L448.08 490.858c-13.135 36.668-47.986 61.143-87.043 61.143h-.009c-38.95 0-73.711-24.341-86.935-60.858l-89.195-246.405c-13.635-37.665 14.358-77.394 54.522-77.394h1.34c26.698 0 49.932 18.174 56.299 44.01l63.531 215.149 64.791-214.9c6.278-25.96 29.574-44.26 56.362-44.26z"/></defs><g fill="none" fill-rule="evenodd"><path d="M0 0h720v720H0z" fill="url(#a)"/><use fill="#000" filter="url(#b)" xlink:href="#c"/><use fill="#fff" xlink:href="#c"/></g></svg>