<svg xmlns="http://www.w3.org/2000/svg" xmlns:xlink="http://www.w3.org/1999/xlink" width="500" height="500" viewBox="-305.5 396.5 500 500"><path fill="#91451D" d="M-125.354 471.091l11.787-7.922-17.487-13.236z"/><path fill="#C23E18" d="M-125.354 471.091l32.463 49.082-20.676-57.004z"/><path fill="#BA562B" d="M-113.567 463.169l26.473 18.937-5.797 38.067z"/><path fill="#CA5C2C" d="M-87.094 482.106l18.068 34.975-23.865 3.092z"/><path fill="#B97B48" d="M-87.094 482.106h23.961l-5.893 34.975z"/><path fill="#BA562B" d="M-63.133 482.106l7.633 34.975h-13.526z"/><path fill="#C23E18" d="M-63.133 482.106l7.633-.773v35.748z"/><path fill="#C15619" d="M-63.133 482.106l7.633-35.265v34.492z"/><path fill="#BA562B" d="M-87.094 482.106l6.087-25.7 17.874 25.7z"/><path fill="#8F7C48" d="M-125.354 471.091l16.232 60.869 16.231-11.787z"/><path fill="#87381D" d="M-125.354 471.091l-8.792 14.687 25.024 46.182z"/><path fill="#E0A96F" d="M-134.146 485.778l-94.492-84.541 45.217 61.932z"/><path fill="#737271" d="M-228.638 401.237l40.966 5.122-6.57 25.699z"/><path fill="#506081" d="M-187.672 406.359l25.411 16.038-31.981 9.661z"/><path fill="#384D52" d="M-162.261 422.397l-9.179 29.951-22.802-20.29z"/><path fill="#47302C" d="M-162.261 422.397l17.487 14.975-26.666 14.976z"/><path fill="#71381B" d="M-144.774 437.372l-8.985 30.821-17.681-15.845z"/><path fill="#444B4B" d="M-144.774 437.372l13.72 12.561-22.705 18.26z"/><path fill="#68524C" d="M-131.054 449.933l5.7 21.158-28.405-2.898z"/><path fill="#575756" d="M-153.759 468.193l19.613 17.585 8.792-14.687z"/><path fill="#DC9B52" d="M-228.638 401.237l14.203 88.212-39.033-12.85z"/><path fill="#E7BB75" d="M-214.435 489.449l-23.382 27.632-15.651-40.482z"/><path fill="#B97B48" d="M-214.435 489.449l33.043-7.343-36.232-12.85z"/><path fill="#D89180" d="M-214.435 489.449l7.923 29.275-31.305-1.643z"/><path fill="#E0C570" d="M-237.817 517.081l6.474 23.865 24.831-22.222z"/><path fill="#CD6D42" d="M-214.435 489.449l38.357 15.073-30.434 14.202z"/><path fill="#BF944A" d="M-214.435 489.449l33.043-7.343 5.314 22.416z"/><path fill="#AFA92B" d="M-217.624 469.256l34.203-6.087 2.029 18.937z"/><path fill="#BF944A" d="M-217.624 469.256l-4.54-25.7 38.743 19.613z"/><path fill="#E7B953" d="M-228.638 401.237l6.474 42.319 38.743 19.613z"/><path fill="#D89180" d="M-181.392 482.106l47.246 3.672-49.275-22.609z"/><path fill="#D4834D" d="M-181.392 482.106l72.27 49.854-25.024-46.182z"/><path fill="#CF7150" d="M-176.078 504.522l66.956 27.438h-57.39z"/><path fill="#CA5C2C" d="M-166.512 531.96l12.753 19.711 44.637-19.711z"/><path fill="#B97B48" d="M-206.512 518.724l40 13.236-9.566-27.438z"/><path fill="#8F7C48" d="M-206.512 518.724l6.956 25.893 33.044-12.657z"/><path fill="#518063" d="M-199.556 544.617l45.797 7.054-34.879 23.477z"/><path fill="#AF5C25" d="M-199.556 544.617l33.044-12.657 12.753 19.711z"/><path fill="#E7B953" d="M-231.343 540.946l31.787 3.671-6.956-25.893z"/><path fill="#DC9B52" d="M-231.343 540.946l22.608 62.317 9.179-58.646z"/><path fill="#D4834D" d="M-199.556 544.617l10.918 30.531-20.097 28.115z"/><path fill="#68524C" d="M-113.373 711.281l-22.803-8.888 22.513-14.299 11.304 3.478z"/><path fill="#47302C" d="M-144.774 681.331l8.598 21.062 22.513-14.299z"/><path fill="#CD6D42" d="M-181.392 482.106l5.314 22.416 66.956 27.438z"/><path fill="#87381D" d="M-146.996 660.267l2.222-37.293 30.821 41.158z"/><path fill="#47302C" d="M-146.996 660.267l17.874-2.125 15.169 5.99 7.922 11.112 3.672 16.328-9.179 5.024 5.314-5.894-7.439-2.608-18.164.966-12.947-7.729z"/><path fill="#BA562B" d="M-126.32 669.446c6.667 0 12.271 4.057 14.203 9.565.483-1.353.676-2.706.676-4.251 0-7.633-6.667-13.816-14.975-13.816-8.212 0-14.975 6.183-14.975 13.816 0 1.449.29 2.898.676 4.251 2.028-5.506 7.728-9.565 14.395-9.565z"/><path fill="#E6B870" d="M-126.32 688.576c6.667 0 12.271-4.057 14.203-9.565-1.932-5.604-7.536-9.565-14.203-9.565s-12.271 4.057-14.203 9.565c1.836 5.604 7.536 9.565 14.203 9.565z"/><path fill="none" d="M-126.32 664.616v20.772"/><path fill="#47302C" d="M-126.32 664.616s.096.096.29.194c.096.194.386.386.58.676.194.29.58.58.773 1.063.29.386.58.869.869 1.353.58.966 1.063 2.126 1.353 3.285.29 1.257.483 2.512.483 3.769s-.194 2.608-.483 3.769c-.29 1.257-.773 2.319-1.353 3.285-.29.483-.58.966-.869 1.353-.29.386-.58.773-.773 1.063-.194.29-.483.483-.58.676-.194.194-.29.194-.29.194s-.096-.096-.29-.194c-.096-.194-.386-.386-.58-.676s-.58-.58-.773-1.063c-.29-.386-.58-.869-.869-1.353a12.376 12.376 0 0 1-1.353-3.285c-.29-1.257-.483-2.512-.483-3.769s.194-2.608.483-3.769c.29-1.257.773-2.318 1.353-3.285.29-.483.58-.966.869-1.353.29-.386.58-.773.773-1.063.194-.29.483-.483.58-.676.193-.098.29-.194.29-.194z"/><path fill="#C23E18" d="M-84.195 629.544l-21.836 45.7 18.165 11.979z"/><path fill="#91451D" d="M-102.359 691.572l14.493-4.349-18.165-11.979z"/><path fill="#87381D" d="M-111.538 696.596l-1.835 14.685 25.507-24.058-14.493 4.349z"/><path fill="#47302C" d="M-144.774 681.331l-35.652-7.44 33.43-13.624z"/><path fill="#C23E18" d="M-144.774 622.974l30.821 23.671v17.487z"/><path fill="#87381D" d="M-113.953 646.645l11.208-16.426 2.898 31.982z"/><path fill="#71381B" d="M-113.953 646.645l-6.667-32.754 17.875 16.328z"/><path fill="#C25B19" d="M-102.745 630.219l18.55-.675-15.652 32.657z"/><path fill="#C14A18" d="M-144.774 622.974l24.154-9.083 6.667 32.754z"/><path fill="#AE4817" d="M-146.996 660.267l-29.952-19.999 31.401-4.541z"/><path fill="#C15619" d="M-176.948 640.268l32.174-17.294-.773 12.753z"/><path fill="#91451D" d="M-180.426 673.891l-4.154-15.749 37.584 2.125z"/><path fill="#C15619" d="M-176.948 640.268l-7.632 17.874 37.584 2.125z"/><path fill="#91451D" d="M-136.176 702.393l6.861 22.608 15.942-13.72z"/><path fill="#87381D" d="M-180.426 673.891l13.333 25.797 22.319-18.357z"/><path fill="#91451D" d="M-144.774 681.331l8.598 21.062-30.917-2.705z"/><path fill="#C15619" d="M-167.093 699.688l-3.961 39.902 34.878-37.197z"/><path fill="#A64219" d="M-136.176 702.393l6.861 22.608-41.739 14.589z"/><path fill="#D78C1D" d="M-136.176 745.967l-34.878 4.155-28.116-15.846z"/><path fill="#E7BB75" d="M-136.176 745.967l18.744 29.952-53.622-25.797z"/><path fill="#F1D78F" d="M-171.054 750.122l3.381 22.898 50.241 2.899z"/><path fill="#D1D2D4" d="M-117.432 775.919l-5.024 28.791-45.217-31.69z"/><path fill="#D89180" d="M-199.17 734.276l-12.463 32.56 43.96 6.184z"/><path fill="#D1BA2D" d="M-199.17 734.276l31.497 38.744-3.381-22.898z"/><path fill="#E7B953" d="M-85.741 816.691l-5.894-73.526-8.985 47.535z"/><path fill="#E0C570" d="M-86.997 800.653l18.357-18.551-22.995-38.937z"/><path fill="#E9C39D" d="M-68.64 782.102h13.14v-34.01z"/><path fill="#DC9B52" d="M-91.635 743.165l36.135 4.927-13.14 34.01z"/><path fill="#F9F0AF" d="M-122.456 804.71l21.836-14.01 14.879 25.991z"/><path fill="#DFECDD" d="M-122.456 804.71l5.024 25.507 31.691-13.526z"/><path fill="#E8E9EA" d="M-85.741 816.691l-9.951 24.154-21.74-10.628z"/><path fill="#D1D2D4" d="M-85.741 816.691l11.691 8.792-21.642 15.362z"/><path fill="#B0D3D7" d="M-74.05 825.483l11.979 4.734-11.786 12.657z"/><path fill="#CCD1E3" d="M-74.05 825.483l.193 17.391-21.835-2.029zm11.979 4.734l6.571 2.995v9.662h-18.357z"/><path fill="#C2C2C6" d="M-95.692 840.845l22.125 13.913-.29-11.884z"/><path fill="#B6BACB" d="M-73.567 854.758l18.067 2.802v-14.686h-18.357z"/><path fill="#002F3F" d="M-69.413 803.744l-4.444 8.309 11.786 18.164z"/><path fill="#384D52" d="M-73.857 812.053l-11.884 4.638 11.691 8.792z"/><path fill="#3E3855" d="M-73.857 812.053l-13.14-11.4 1.256 16.038z"/><path fill="#68524C" d="M-73.857 812.053l5.217-29.951-18.357 18.551z"/><path fill="#71381B" d="M-68.64 782.102l-.773 21.642-4.444 8.309z"/><path fill="#506081" d="M-69.413 803.744l13.913-21.642h-13.14z"/><path fill="#613860" d="M-62.071 830.217l-11.786-18.164-.193 13.43z"/><path fill="#3E3855" d="M-69.413 803.744l13.913-21.642-6.571 48.115z"/><path fill="#384D52" d="M-62.071 830.217l6.571 2.995v-51.11z"/><path fill="#C2C2C6" d="M-117.432 830.217l-8.598 19.517 30.338-8.889z"/><path fill="#9FADB2" d="M-95.692 840.845l-26.183 30.241-4.155-21.352z"/><path fill="#B6BACB" d="M-95.692 840.845v23.478l-26.183 6.763z"/><path fill="#B4A3BB" d="M-95.692 840.845l22.125 13.913-22.125 9.565z"/><path fill="#B6BACB" d="M-73.567 854.758l-12.174 36.811-9.951-27.246z"/><path fill="#7BAA98" d="M-73.567 854.758l18.067 37.005V857.56z"/><path fill="#96BEE5" d="M-81.587 878.913l26.087 12.85-18.067-37.005z"/><path fill="#D27B60" d="M-117.432 775.919l25.797-32.754-8.985 47.535z"/><path fill="#D89180" d="M-117.432 775.919l-5.024 28.791 21.836-14.01z"/><path fill="#D4834D" d="M-117.432 775.919l-18.744-29.952 44.541-2.802z"/><path fill="#D1BA2D" d="M-91.635 743.165l36.135-16.618v21.545z"/><path fill="#CF7150" d="M-87.866 687.223l16.618 20.291-20.387 35.651z"/><path fill="#CE6D33" d="M-87.866 687.223l-25.507 24.058 21.738 31.884z"/><path fill="#D78C1D" d="M-87.866 687.223l23.96-3.864 8.406 43.188z"/><path fill="#CE6D33" d="M-63.906 683.359h8.406v-23.092z"/><path fill="#CD6D42" d="M-63.906 683.359l-7.342-23.092-16.618 26.956z"/><path fill="#BA562B" d="M-71.248 660.267l-12.947-30.723-3.671 57.679z"/><path fill="#D1762A" d="M-63.906 683.359l8.406 43.188v-43.188z"/><path fill="#D4834D" d="M-71.636 706.934l-19.999 36.231 36.135-16.618z"/><path fill="#C95933" d="M-129.315 725.001l37.68 18.164-21.738-31.884z"/><path fill="#CA5C2C" d="M-129.315 725.001l-6.861 20.966 44.541-2.802z"/><path fill="#C95933" d="M-171.054 739.59l34.878 6.377 6.861-20.966z"/><path fill="#AE4817" d="M-113.953 646.645v17.487l7.922 11.112 6.184-13.043z"/><path fill="#CE8F82" d="M-231.343 540.946l-12.174 22.415 34.782 39.902z"/><path fill="#C18474" d="M-243.517 563.361l4.349 28.309 30.433 11.593z"/><path fill="#D27B60" d="M-239.168 591.67l23.767 30.241 6.666-18.648z"/><path fill="#CD6D42" d="M-239.168 591.67l-11.981 27.246 35.748 2.995z"/><path fill="#D4834D" d="M-251.149 618.916l25.023 22.415 10.725-19.42z"/><path fill="#CF7150" d="M-251.149 618.916l-11.014 21.352 36.037 1.063z"/><path fill="#DE9F31" d="M-262.163 640.268l22.221 23.962 13.816-22.899z"/><path fill="#E7B953" d="M-262.163 640.268l-17.681 37.102 39.902-13.14z"/><path fill="#D1BA2D" d="M-265.642 672.731l25.7 12.657V664.23z"/><path fill="#CE6D33" d="M-208.735 603.263l20.097-28.115 43.864 47.826z"/><path fill="#D78C1D" d="M-188.638 575.148l34.879-23.477 8.985 71.303z"/><path fill="#BF944A" d="M-153.759 551.671l33.139 62.22-24.154 9.083z"/><path fill="#AFA92B" d="M-153.759 551.671l53.428 24.83-20.289 37.39z"/><path fill="#D78C1D" d="M-153.759 551.671l44.637-19.711 8.791 44.541z"/><path fill="#CF7150" d="M-100.331 576.501l-2.414 53.718-17.875-16.328z"/><path fill="#C95933" d="M-100.331 576.501l16.136 53.043-18.55.675z"/><path fill="#D1762A" d="M-100.331 576.501l44.831 32.56-28.695 20.483z"/><path fill="#CA5C2C" d="M-100.331 576.501l44.831-9.082v41.642zm7.44-56.328l-7.44 56.328-8.791-44.541z"/><path fill="#CE6D33" d="M-92.891 520.173l37.391 47.246-44.831 9.082z"/><path fill="#D78C1D" d="M-84.195 629.544l28.695 30.723h-15.748z"/><path fill="#D1762A" d="M-71.248 660.267H-55.5l-8.406 23.092z"/><path fill="#D27C3E" d="M-84.195 629.544l28.695-20.483v51.206zm-8.696-109.371l23.865-3.092 13.526 50.338z"/><path fill="#D9913D" d="M-69.026 517.081H-55.5v50.338z"/><path fill="#87381D" d="M-180.426 673.891l-21.835 11.497 13.623 13.816z"/><path fill="#A64219" d="M-202.261 685.388l-9.372 34.203 22.995-20.387z"/><path fill="#C25B19" d="M-211.633 719.591l12.463 14.685-53.622 30.821z"/><path fill="#D78C1D" d="M-233.276 743.551l-5.892-33.332 27.535 9.372z"/><path fill="#CA5C2C" d="M-239.168 710.219l36.907-24.831-9.372 34.203z"/><path fill="#C15619" d="M-188.638 699.204l21.545.484-13.333-25.797z"/><path fill="#CE6D33" d="M-188.638 699.204l-10.532 35.072 32.077-34.588z"/><path fill="#C95933" d="M-188.638 699.204l-22.995 20.387 12.463 14.685z"/><path fill="#C63" d="M-167.093 699.688l-3.961 39.902-28.116-5.314z"/><path fill="#CD6D42" d="M-211.633 766.836l-16.521-15.845 28.984-16.715z"/><path fill="#D27B60" d="M-228.154 750.991l-11.788 23.092 28.309-7.247zm-11.788-86.761l37.681 21.158h-37.681z"/><path fill="#CD6D42" d="M-239.942 685.388l.774 24.831 36.907-24.831z"/><path fill="#B97B48" d="M-239.942 664.23l59.516 9.661-21.835 11.497z"/><path fill="#8F7C48" d="M-239.942 664.23l55.362-6.088 4.154 15.749z"/><path fill="#A97C48" d="M-176.948 640.268l-62.994 23.962 55.362-6.088z"/><path fill="#BF944A" d="M-176.948 640.268l-49.178 1.063-13.816 22.899z"/><path fill="#D88E37" d="M-176.948 640.268l-38.453-18.357-10.725 19.42z"/><path fill="#D88C28" d="M-208.735 603.263l31.787 37.005-38.453-18.357z"/><path fill="#CF7150" d="M-208.735 603.263l63.961 19.711-32.174 17.294z"/><path fill="#E0C570" d="M-239.942 685.388l-49.565 21.159 23.865-33.816z"/><path fill="#E7B953" d="M-239.168 710.219l-29.856-12.464-25.409 32.464z"/><path fill="#D1BA2D" d="M-239.168 710.219l-35.46 12.85 41.352 20.482z"/><path fill="#E0A96F" d="M-274.628 723.069l-13.332 30.627 34.009-20.385z"/><path fill="#DC9B52" d="M-253.951 733.311l20.675 10.24-31.497 19.517z"/><path fill="#D4834D" d="M-269.024 697.755l29.082-12.367.774 24.831z"/><path fill="#C2C2C6" d="M-167.673 773.02l-18.55 14.203-25.41-20.387z"/><path fill="#B0D3D7" d="M-167.673 773.02l45.217 31.69-63.767-17.487z"/><path fill="#CCD1E3" d="M-186.223 787.223l-2.415 24.83 66.182-7.343z"/><path fill="#C2C2C6" d="M-122.456 804.71l-48.598 27.053 1.159-21.739z"/><path fill="#B6BACB" d="M-122.456 804.71l-40.095 43.092 6.955-24.734z"/><path fill="#B4A3BB" d="M-162.551 847.802l45.119-17.585-5.024-25.507z"/><path fill="#7BAA98" d="M-117.432 830.217l-8.598 19.517-17.681-9.275z"/><path fill="#91451D" d="M14.354 471.091l-11.787-7.922 17.487-13.236z"/><path fill="#C23E18" d="M14.354 471.091l-32.463 49.082 20.676-57.004z"/><path fill="#BA562B" d="M2.567 463.169l-26.473 18.937 5.797 38.067z"/><path fill="#CA5C2C" d="M-23.906 482.106l-18.068 34.975 23.865 3.092z"/><path fill="#B97B48" d="M-23.906 482.106h-23.961l5.893 34.975z"/><path fill="#BA562B" d="M-47.867 482.106l-7.633 34.975h13.526z"/><path fill="#C23E18" d="M-47.867 482.106l-7.633-.773v35.748z"/><path fill="#C15619" d="M-47.867 482.106l-7.633-35.265v34.492z"/><path fill="#BA562B" d="M-23.906 482.106l-6.087-25.7-17.874 25.7z"/><path fill="#8F7C48" d="M14.354 471.091L-1.878 531.96l-16.231-11.787z"/><path fill="#87381D" d="M14.354 471.091l8.792 14.687-25.024 46.182z"/><path fill="#E0A96F" d="M23.146 485.778l94.492-84.541-45.217 61.932z"/><path fill="#737271" d="M117.638 401.237l-40.966 5.122 6.57 25.699z"/><path fill="#506081" d="M76.672 406.359l-25.411 16.038 31.981 9.661z"/><path fill="#384D52" d="M51.261 422.397l9.179 29.951 22.802-20.29z"/><path fill="#47302C" d="M51.261 422.397l-17.487 14.975 26.666 14.976z"/><path fill="#71381B" d="M33.774 437.372l8.985 30.821 17.681-15.845z"/><path fill="#444B4B" d="M33.774 437.372l-13.72 12.561 22.705 18.26z"/><path fill="#68524C" d="M20.054 449.933l-5.7 21.158 28.405-2.898z"/><path fill="#575756" d="M42.759 468.193l-19.613 17.585-8.792-14.687z"/><path fill="#DC9B52" d="M117.638 401.237l-14.203 88.212 39.033-12.85z"/><path fill="#E7BB75" d="M103.435 489.449l23.382 27.632 15.651-40.482z"/><path fill="#B97B48" d="M103.435 489.449l-33.043-7.343 36.232-12.85z"/><path fill="#D89180" d="M103.435 489.449l-7.923 29.275 31.305-1.643z"/><path fill="#E0C570" d="M126.817 517.081l-6.475 23.865-24.83-22.222z"/><path fill="#CD6D42" d="M103.435 489.449l-38.357 15.073 30.434 14.202z"/><path fill="#BF944A" d="M103.435 489.449l-33.043-7.343-5.314 22.416z"/><path fill="#AFA92B" d="M106.624 469.256l-34.203-6.087-2.029 18.937z"/><path fill="#BF944A" d="M106.624 469.256l4.54-25.7-38.743 19.613z"/><path fill="#E7B953" d="M117.638 401.237l-6.474 42.319-38.743 19.613z"/><path fill="#D89180" d="M70.392 482.106l-47.246 3.672 49.275-22.609z"/><path fill="#D4834D" d="M70.392 482.106l-72.27 49.854 25.024-46.182z"/><path fill="#CF7150" d="M65.078 504.522L-1.878 531.96h57.391z"/><path fill="#CA5C2C" d="M55.513 531.96l-12.754 19.711-44.637-19.711z"/><path fill="#B97B48" d="M95.512 518.724L55.513 531.96l9.565-27.438z"/><path fill="#8F7C48" d="M95.512 518.724l-6.956 25.893-33.043-12.657z"/><path fill="#518063" d="M88.556 544.617l-45.797 7.054 34.879 23.477z"/><path fill="#AF5C25" d="M88.556 544.617L55.513 531.96l-12.754 19.711z"/><path fill="#E7B953" d="M120.342 540.946l-31.786 3.671 6.956-25.893z"/><path fill="#DC9B52" d="M120.342 540.946l-22.607 62.317-9.179-58.646z"/><path fill="#D4834D" d="M88.556 544.617l-10.918 30.531 20.097 28.115z"/><path fill="#68524C" d="M2.373 711.281l22.803-8.888-22.513-14.299-11.304 3.478z"/><path fill="#47302C" d="M33.774 681.331l-8.598 21.062-22.513-14.299z"/><path fill="#CD6D42" d="M70.392 482.106l-5.314 22.416-66.956 27.438z"/><path fill="#87381D" d="M35.996 660.267l-2.222-37.293-30.821 41.158z"/><path fill="#47302C" d="M35.996 660.267l-17.874-2.125-15.169 5.99-7.922 11.112-3.672 16.328 9.179 5.024-5.314-5.894 7.439-2.608 18.164.966 12.947-7.729z"/><path fill="#BA562B" d="M15.32 669.446c-6.667 0-12.271 4.057-14.203 9.565-.483-1.353-.676-2.706-.676-4.251 0-7.633 6.667-13.816 14.975-13.816 8.212 0 14.975 6.183 14.975 13.816 0 1.449-.29 2.898-.676 4.251-2.028-5.506-7.728-9.565-14.395-9.565z"/><path fill="#E6B870" d="M15.32 688.576c-6.667 0-12.271-4.057-14.203-9.565 1.932-5.604 7.536-9.565 14.203-9.565s12.271 4.057 14.203 9.565c-1.836 5.604-7.536 9.565-14.203 9.565z"/><path fill="none" d="M15.32 664.616v20.772"/><path fill="#47302C" d="M15.32 664.616s.096.096.29.194c.096.194.386.386.58.676.194.29.58.58.773 1.063.29.386.58.869.869 1.353.58.966 1.063 2.126 1.353 3.285.29 1.257.483 2.512.483 3.769s-.194 2.608-.483 3.769c-.29 1.257-.773 2.319-1.353 3.285-.29.483-.58.966-.869 1.353-.29.386-.58.773-.773 1.063s-.483.483-.58.676c-.194.194-.29.194-.29.194s-.096-.096-.29-.194c-.096-.194-.386-.386-.58-.676s-.58-.58-.773-1.063c-.29-.386-.58-.869-.869-1.353a12.376 12.376 0 0 1-1.353-3.285c-.29-1.257-.483-2.512-.483-3.769s.194-2.608.483-3.769c.29-1.257.773-2.318 1.353-3.285.29-.483.58-.966.869-1.353.289-.386.58-.773.773-1.063.194-.29.483-.483.58-.676.194-.098.29-.194.29-.194z"/><path fill="#C23E18" d="M-26.805 629.544l21.836 45.7-18.165 11.979z"/><path fill="#91451D" d="M-8.641 691.572l-14.493-4.349 18.165-11.979z"/><path fill="#87381D" d="M.538 696.596l1.835 14.685-25.507-24.058 14.493 4.349z"/><path fill="#47302C" d="M33.774 681.331l35.652-7.44-33.43-13.624z"/><path fill="#C23E18" d="M33.774 622.974L2.953 646.645v17.487z"/><path fill="#87381D" d="M2.953 646.645l-11.208-16.426-2.898 31.982z"/><path fill="#71381B" d="M2.953 646.645l6.667-32.754-17.875 16.328z"/><path fill="#C25B19" d="M-8.255 630.219l-18.55-.675 15.652 32.657z"/><path fill="#C14A18" d="M33.774 622.974L9.62 613.891l-6.667 32.754z"/><path fill="#AE4817" d="M35.996 660.267l29.952-19.999-31.401-4.541z"/><path fill="#C15619" d="M65.948 640.268l-32.174-17.294.773 12.753z"/><path fill="#91451D" d="M69.426 673.891l4.154-15.749-37.584 2.125z"/><path fill="#C15619" d="M65.948 640.268l7.632 17.874-37.584 2.125z"/><path fill="#91451D" d="M25.176 702.393l-6.861 22.608-15.942-13.72z"/><path fill="#87381D" d="M69.426 673.891l-13.333 25.797-22.319-18.357z"/><path fill="#91451D" d="M33.774 681.331l-8.598 21.062 30.917-2.705z"/><path fill="#C15619" d="M56.093 699.688l3.961 39.902-34.878-37.197z"/><path fill="#A64219" d="M25.176 702.393l-6.861 22.608 41.739 14.589z"/><path fill="#D78C1D" d="M25.176 745.967l34.878 4.155 28.116-15.846z"/><path fill="#E7BB75" d="M25.176 745.967L6.432 775.919l53.622-25.797z"/><path fill="#F1D78F" d="M60.054 750.122l-3.381 22.898-50.241 2.899z"/><path fill="#D1D2D4" d="M6.432 775.919l5.024 28.791 45.217-31.69z"/><path fill="#D89180" d="M88.17 734.276l12.463 32.56-43.96 6.184z"/><path fill="#D1BA2D" d="M88.17 734.276L56.673 773.02l3.381-22.898z"/><path fill="#E7B953" d="M-25.259 816.691l5.894-73.526 8.985 47.535z"/><path fill="#E0C570" d="M-24.003 800.653l-18.357-18.551 22.995-38.937z"/><path fill="#E9C39D" d="M-42.36 782.102H-55.5v-34.01z"/><path fill="#DC9B52" d="M-19.365 743.165l-36.135 4.927 13.14 34.01z"/><path fill="#F9F0AF" d="M11.456 804.71L-10.38 790.7l-14.879 25.991z"/><path fill="#DFECDD" d="M11.456 804.71l-5.024 25.507-31.691-13.526z"/><path fill="#E8E9EA" d="M-25.259 816.691l9.951 24.154 21.74-10.628z"/><path fill="#D1D2D4" d="M-25.259 816.691l-11.691 8.792 21.642 15.362z"/><path fill="#B0D3D7" d="M-36.95 825.483l-11.979 4.734 11.786 12.657z"/><path fill="#CCD1E3" d="M-36.95 825.483l-.193 17.391 21.835-2.029zm-11.979 4.734l-6.571 2.995v9.662h18.357z"/><path fill="#C2C2C6" d="M-15.308 840.845l-22.125 13.913.29-11.884z"/><path fill="#B6BACB" d="M-37.433 854.758L-55.5 857.56v-14.686h18.357z"/><path fill="#002F3F" d="M-41.587 803.744l4.444 8.309-11.786 18.164z"/><path fill="#384D52" d="M-37.143 812.053l11.884 4.638-11.691 8.792z"/><path fill="#3E3855" d="M-37.143 812.053l13.14-11.4-1.256 16.038z"/><path fill="#68524C" d="M-37.143 812.053l-5.217-29.951 18.357 18.551z"/><path fill="#71381B" d="M-42.36 782.102l.773 21.642 4.444 8.309z"/><path fill="#506081" d="M-41.587 803.744L-55.5 782.102h13.14z"/><path fill="#613860" d="M-48.929 830.217l11.786-18.164.193 13.43z"/><path fill="#3E3855" d="M-41.587 803.744L-55.5 782.102l6.571 48.115z"/><path fill="#384D52" d="M-48.929 830.217l-6.571 2.995v-51.11z"/><path fill="#C2C2C6" d="M6.432 830.217l8.598 19.517-30.338-8.889z"/><path fill="#9FADB2" d="M-15.308 840.845l26.183 30.241 4.155-21.352z"/><path fill="#B6BACB" d="M-15.308 840.845v23.478l26.183 6.763z"/><path fill="#B4A3BB" d="M-15.308 840.845l-22.125 13.913 22.125 9.565z"/><path fill="#B6BACB" d="M-37.433 854.758l12.174 36.811 9.951-27.246z"/><path fill="#7BAA98" d="M-37.433 854.758L-55.5 891.763V857.56z"/><path fill="#96BEE5" d="M-29.897 877.462L-55.5 891.763l18.067-37.005z"/><path fill="#D27B60" d="M6.432 775.919l-25.797-32.754 8.985 47.535z"/><path fill="#D89180" d="M6.432 775.919l5.024 28.791-21.836-14.01z"/><path fill="#D4834D" d="M6.432 775.919l18.744-29.952-44.541-2.802z"/><path fill="#D1BA2D" d="M-19.365 743.165L-55.5 726.547v21.545z"/><path fill="#CF7150" d="M-23.134 687.223l-16.618 20.291 20.387 35.651z"/><path fill="#CE6D33" d="M-23.134 687.223l25.507 24.058-21.738 31.884z"/><path fill="#D78C1D" d="M-23.134 687.223l-23.96-3.864-8.406 43.188z"/><path fill="#CE6D33" d="M-47.094 683.359H-55.5v-23.092z"/><path fill="#CD6D42" d="M-47.094 683.359l7.342-23.092 16.618 26.956z"/><path fill="#BA562B" d="M-39.752 660.267l12.947-30.723 3.671 57.679z"/><path fill="#D1762A" d="M-47.094 683.359l-8.406 43.188v-43.188z"/><path fill="#D4834D" d="M-39.364 706.934l19.999 36.231-36.135-16.618z"/><path fill="#C95933" d="M18.315 725.001l-37.68 18.164 21.738-31.884z"/><path fill="#CA5C2C" d="M18.315 725.001l6.861 20.966-44.541-2.802z"/><path fill="#C95933" d="M60.054 739.59l-34.878 6.377-6.861-20.966z"/><path fill="#AE4817" d="M2.953 646.645v17.487l-7.922 11.112-6.184-13.043z"/><path fill="#CE8F82" d="M120.342 540.946l12.175 22.415-34.782 39.902z"/><path fill="#C18474" d="M132.517 563.361l-4.349 28.309-30.433 11.593z"/><path fill="#D27B60" d="M128.168 591.67l-23.767 30.241-6.666-18.648z"/><path fill="#CD6D42" d="M128.168 591.67l11.981 27.246-35.748 2.995z"/><path fill="#D4834D" d="M140.149 618.916l-25.023 22.415-10.725-19.42z"/><path fill="#CF7150" d="M140.149 618.916l11.014 21.352-36.037 1.063z"/><path fill="#DE9F31" d="M151.163 640.268l-22.221 23.962-13.816-22.899z"/><path fill="#E7B953" d="M151.163 640.268l17.681 37.102-39.902-13.14z"/><path fill="#D1BA2D" d="M154.642 672.731l-25.7 12.657V664.23z"/><path fill="#CE6D33" d="M97.735 603.263l-20.097-28.115-43.864 47.826z"/><path fill="#D78C1D" d="M77.638 575.148l-34.879-23.477-8.985 71.303z"/><path fill="#BF944A" d="M42.759 551.671L9.62 613.891l24.154 9.083z"/><path fill="#AFA92B" d="M42.759 551.671l-53.428 24.83 20.289 37.39z"/><path fill="#D78C1D" d="M42.759 551.671L-1.878 531.96l-8.791 44.541z"/><path fill="#CF7150" d="M-10.669 576.501l2.414 53.718L9.62 613.891z"/><path fill="#C95933" d="M-10.669 576.501l-16.136 53.043 18.55.675z"/><path fill="#D1762A" d="M-10.669 576.501l-44.831 32.56 28.695 20.483z"/><path fill="#CA5C2C" d="M-10.669 576.501l-44.831-9.082v41.642zm-7.44-56.328l7.44 56.328 8.791-44.541z"/><path fill="#CE6D33" d="M-18.109 520.173L-55.5 567.419l44.831 9.082z"/><path fill="#D78C1D" d="M-26.805 629.544L-55.5 660.267h15.748z"/><path fill="#D1762A" d="M-39.752 660.267H-55.5l8.406 23.092z"/><path fill="#D27C3E" d="M-26.805 629.544L-55.5 609.061v51.206zm8.696-109.371l-23.865-3.092-13.526 50.338z"/><path fill="#D9913D" d="M-41.974 517.081H-55.5v50.338z"/><path fill="#87381D" d="M69.426 673.891l21.835 11.497-13.623 13.816z"/><path fill="#A64219" d="M91.261 685.388l9.372 34.203-22.995-20.387z"/><path fill="#C25B19" d="M100.633 719.591L88.17 734.276l53.622 30.821z"/><path fill="#D78C1D" d="M122.276 743.551l5.892-33.332-27.535 9.372z"/><path fill="#CA5C2C" d="M128.168 710.219l-36.907-24.831 9.372 34.203z"/><path fill="#C15619" d="M77.638 699.204l-21.545.484 13.333-25.797z"/><path fill="#CE6D33" d="M77.638 699.204l10.532 35.072-32.077-34.588z"/><path fill="#C95933" d="M77.638 699.204l22.995 20.387-12.463 14.685z"/><path fill="#C63" d="M56.093 699.688l3.961 39.902 28.116-5.314z"/><path fill="#CD6D42" d="M100.633 766.836l16.521-15.845-28.984-16.715z"/><path fill="#D27B60" d="M117.154 750.991l11.788 23.092-28.309-7.247zm11.788-86.761l-37.681 21.158h37.681z"/><path fill="#CD6D42" d="M128.942 685.388l-.774 24.831-36.907-24.831z"/><path fill="#B97B48" d="M128.942 664.23l-59.516 9.661 21.835 11.497z"/><path fill="#8F7C48" d="M128.942 664.23l-55.362-6.088-4.154 15.749z"/><path fill="#A97C48" d="M65.948 640.268l62.994 23.962-55.362-6.088z"/><path fill="#BF944A" d="M65.948 640.268l49.178 1.063 13.816 22.899z"/><path fill="#D88E37" d="M65.948 640.268l38.453-18.357 10.725 19.42z"/><path fill="#D88C28" d="M97.735 603.263l-31.787 37.005 38.453-18.357z"/><path fill="#CF7150" d="M97.735 603.263l-63.961 19.711 32.174 17.294z"/><path fill="#E0C570" d="M128.942 685.388l49.565 21.159-23.865-33.816z"/><path fill="#E7B953" d="M128.168 710.219l29.856-12.464 25.409 32.464z"/><path fill="#D1BA2D" d="M128.168 710.219l35.46 12.85-41.352 20.482z"/><path fill="#E0A96F" d="M163.628 723.069l13.332 30.627-34.009-20.385z"/><path fill="#DC9B52" d="M142.951 733.311l-20.675 10.24 31.497 19.517z"/><path fill="#D4834D" d="M158.024 697.755l-29.082-12.367-.774 24.831z"/><path fill="#C2C2C6" d="M56.673 773.02l18.55 14.203 25.41-20.387z"/><path fill="#B0D3D7" d="M56.673 773.02l-45.217 31.69 63.767-17.487z"/><path fill="#CCD1E3" d="M75.223 787.223l2.415 24.83-66.182-7.343z"/><path fill="#C2C2C6" d="M11.456 804.71l48.598 27.053-1.159-21.739z"/><path fill="#B6BACB" d="M11.456 804.71l40.095 43.092-6.955-24.734z"/><path fill="#B4A3BB" d="M51.551 847.802L6.432 830.217l5.024-25.507z"/><path fill="#7BAA98" d="M6.432 830.217l8.598 19.517 17.681-9.275z"/><defs><path id="a" d="M-159.267 628.578c7.922-1.159 15.846-.386 23.864-.676 6.087.194 12.173-.58 18.164.676 2.512.29 5.12-.096 7.536.869 3.961.194 7.73 1.739 11.497 2.996 10.434 2.318 20.773 4.928 31.401 5.894 8.696.29 17.391.29 26.183-.194 9.179-1.739 18.357-3.382 27.342-5.7 5.604-1.643 11.208-3.575 17.198-3.671 3.092.096 6.183-.966 9.275-.869h27.923c10.822.966 21.738 1.353 32.56 2.898 8.502.773 16.908 2.512 25.411 3.285.194 7.149 0 14.299.096 21.352-3.671 1.545-8.02 3.188-9.371 7.343-.386 4.541.29 9.083-.676 13.526-.386 10.338-2.512 20.676-6.571 30.144-1.932 4.155-4.445 8.212-7.44 11.787-8.02 8.696-19.71 13.14-31.207 14.879-4.928 1.159-10.048.483-15.073.676-7.826.386-15.459-1.449-22.995-3.188-7.343-2.029-14.685-4.638-20.676-9.565-8.502-7.053-15.362-16.038-20.483-25.797-.194-1.449-.773-2.802-2.126-3.671-.58-3.188-2.222-6.087-3.188-9.179-2.222-5.894-2.608-12.561-6.473-17.777-1.932-1.545-4.057-2.706-6.183-3.769-4.347-.194-9.469 1.353-11.497 5.508-2.706 4.251-3.285 9.275-4.734 14.009-1.159 2.222-1.643 4.637-2.222 7.053-6.473 14.493-15.846 28.405-29.275 37.198-10.338 5.314-21.836 8.309-33.429 9.275-9.661.096-19.42.483-28.695-2.416-10.048-2.706-19.613-8.212-25.603-16.811-1.836-2.512-2.995-5.41-4.541-8.116-.869-2.029-1.643-4.057-2.222-6.183-3.478-9.565-4.347-19.807-4.928-29.951-.29-3.092.773-6.667-.966-9.469-1.063-2.222-3.575-2.996-5.41-4.251-.967-.483-2.029-.966-2.995-1.449.096-7.053-.194-14.106.194-21.159 16.52-2.126 33.331-4.735 50.335-5.507zm168.693 8.598c-11.014 1.257-22.319 3.671-31.787 9.759-3.092 2.222-6.183 4.928-7.149 8.695-1.835 6.087-1.063 12.561-.483 18.744 2.029 11.885 6.667 23.381 13.816 33.14 4.155 5.314 9.855 9.082 15.748 12.271 10.242 4.637 21.45 6.957 32.656 7.149 6.667-.386 13.334-1.449 19.613-3.671 6.763-2.802 13.14-7.246 16.715-13.816 3.575-6.859 5.508-14.493 6.859-22.029.58-6.473 2.029-13.044.386-19.517-.386-6.184-1.932-12.173-3.865-17.971-1.545-4.251-5.797-6.473-9.759-8.02-7.149-2.706-14.783-4.155-22.415-4.734-5.99-1.159-12.173-.386-18.164-1.353-3.765 1.353-8.112.194-12.171 1.353zm-173.427 2.03c-6.473 1.449-13.236 3.382-17.971 8.212-3.865 8.599-4.928 18.067-5.7 27.342.29 10.434 2.222 20.869 6.087 30.627 3.092 8.406 10.434 14.493 18.648 17.874 6.571 2.416 13.526 3.188 20.483 3.671 3.285.29 6.473-.773 9.759-.966 7.053-.676 13.72-2.995 20.289-5.41 4.928-2.802 10.145-5.41 14.106-9.565 4.637-4.057 7.246-9.758 10.434-14.975 2.222-6.667 6.183-12.85 6.473-19.999 1.063-2.029.58-4.347.773-6.57.096-5.797.869-12.173-2.512-17.391-3.671-5.12-9.661-7.826-15.265-10.242-6.957-2.222-14.203-3.961-21.546-4.734-8.889-1.449-17.971-.773-27.052-.58-5.701 1.063-11.402 1.256-17.006 2.706z"/></defs><clipPath id="b"><use xlink:href="#a" overflow="visible"/></clipPath><g clip-path="url(#b)"><path fill="#6AAED1" d="M-129.605 466.744l11.883-7.922-17.487-13.238z"/><path fill="#44A6C8" d="M-129.605 466.744l32.56 49.082-20.677-57.004z"/><path fill="#439CC3" d="M-117.722 458.822l26.474 18.84-5.797 38.164z"/><path fill="#3597C1" d="M-91.248 477.662l17.971 34.976-23.768 3.188z"/><path fill="#437CAB" d="M-91.248 477.662h23.961l-5.99 34.976z"/><path fill="#439CC3" d="M-67.287 477.662l7.536 34.976h-13.526z"/><path fill="#44A6C8" d="M-67.287 477.662l7.536-.773v35.749z"/><path fill="#3F9BD1" d="M-67.287 477.662l7.536-35.168v34.395z"/><path fill="#439CC3" d="M-91.248 477.662l6.086-25.603 17.875 25.603z"/><path fill="#6B7DAD" d="M-129.605 466.744l16.232 60.773 16.328-11.691z"/><path fill="#74B6CF" d="M-129.605 466.744l-8.696 14.589 24.928 46.184z"/><path fill="#1E5288" d="M-138.301 481.333l-94.588-84.443 45.217 61.932z"/><path fill="#8C8D8E" d="M-232.889 396.89l40.966 5.024-6.473 25.701z"/><path fill="#AB9D7C" d="M-191.923 401.914l25.411 16.038-31.884 9.663z"/><path fill="#C4B0AB" d="M-166.512 417.952L-175.691 448l-22.705-20.385z"/><path fill="#B4CBCE" d="M-166.512 417.952l17.487 14.977L-175.691 448z"/><path fill="#89BED7" d="M-149.025 432.929l-8.985 30.82L-175.691 448z"/><path fill="#BAB4B3" d="M-149.025 432.929l13.816 12.655-22.801 18.165z"/><path fill="#93A9AE" d="M-135.209 445.584l5.604 21.16-28.405-2.995z"/><path fill="#A8A8A9" d="M-158.01 463.749l19.709 17.584 8.696-14.589z"/><path fill="#245E9F" d="M-232.889 396.89l14.3 88.115-39.131-12.753z"/><path fill="#174182" d="M-218.589 485.005l-23.381 27.633-15.75-40.386z"/><path fill="#437CAB" d="M-218.589 485.005l32.946-7.343-36.232-12.754z"/><path fill="#266979" d="M-218.589 485.005l7.826 29.274-31.207-1.641z"/><path fill="#1D3886" d="M-241.97 512.638l6.473 23.96 24.734-22.319z"/><path fill="#3288AF" d="M-218.589 485.005l38.357 15.168-30.531 14.106z"/><path fill="#3D65A8" d="M-218.589 485.005l32.946-7.343 5.411 22.511z"/><path fill="#4A5098" d="M-221.875 464.908l34.203-6.086 2.029 18.84z"/><path fill="#3D65A8" d="M-221.875 464.908l-4.54-25.797 38.743 19.711z"/><path fill="#224692" d="M-232.889 396.89l6.474 42.221 38.743 19.711z"/><path fill="#266979" d="M-185.643 477.662l47.342 3.671-49.371-22.511z"/><path fill="#2B74A5" d="M-185.643 477.662l72.27 49.855-24.928-46.184z"/><path fill="#2F85A3" d="M-180.232 500.173l66.859 27.344h-57.391z"/><path fill="#3597C1" d="M-170.764 527.517l12.754 19.806 44.637-19.806z"/><path fill="#437CAB" d="M-210.763 514.279l39.999 13.238-9.468-27.344z"/><path fill="#6B7DAD" d="M-210.763 514.279l7.053 25.991 32.946-12.753z"/><path fill="#A77C97" d="M-203.71 540.27l45.7 7.053-34.88 23.478z"/><path fill="#4E97C7" d="M-203.71 540.27l32.946-12.753 12.754 19.806z"/><path fill="#224692" d="M-235.497 536.598l31.787 3.672-7.053-25.991z"/><path fill="#245E9F" d="M-235.497 536.598l22.511 62.222 9.276-58.55z"/><path fill="#2B74A5" d="M-203.71 540.27l10.82 30.531-20.096 28.019z"/><path fill="#93A9AE" d="M-117.624 706.838l-22.803-8.793 22.609-14.396 11.208 3.478z"/><path fill="#B4CBCE" d="M-149.025 676.886l8.598 21.159 22.609-14.396z"/><path fill="#3288AF" d="M-185.643 477.662l5.411 22.511 66.859 27.344z"/><path fill="#74B6CF" d="M-151.247 655.824l2.222-37.294 30.917 41.159z"/><path fill="#B4CBCE" d="M-151.247 655.824l17.873-2.03 15.266 5.895 7.826 11.11 3.672 16.328-9.179 5.122 5.314-5.895-7.343-2.705-18.164.966-13.043-7.729z"/><path fill="#439CC3" d="M-130.572 665.002c6.667 0 12.271 4.057 14.203 9.565.483-1.353.676-2.706.676-4.251 0-7.632-6.667-13.816-14.975-13.816-8.212 0-14.975 6.184-14.975 13.816 0 1.449.29 2.898.676 4.251 2.125-5.507 7.729-9.565 14.395-9.565z"/><path fill="#184486" d="M-130.572 684.229c6.667 0 12.271-4.057 14.203-9.565-1.932-5.604-7.536-9.565-14.203-9.565s-12.271 4.057-14.203 9.565c1.933 5.508 7.537 9.565 14.203 9.565z"/><path fill="none" d="M-130.572 660.267v20.677"/><path fill="#B4CBCE" d="M-130.572 660.267s.096.096.29.194c.096.194.386.386.58.676.194.29.58.58.773 1.063.29.386.58.87.869 1.353.58.966 1.063 2.125 1.353 3.285.29 1.257.483 2.512.483 3.769s-.194 2.608-.483 3.769c-.29 1.257-.773 2.318-1.353 3.285-.29.483-.58.966-.869 1.353-.29.386-.58.773-.773 1.063-.194.29-.483.483-.58.676-.194.194-.29.194-.29.194s-.096-.096-.29-.194c-.096-.194-.386-.386-.58-.676-.194-.29-.58-.58-.773-1.063-.29-.386-.58-.869-.869-1.353a12.363 12.363 0 0 1-1.353-3.285c-.29-1.257-.483-2.512-.483-3.769s.194-2.608.483-3.769c.29-1.257.773-2.318 1.353-3.285.29-.483.58-.966.869-1.353.29-.386.58-.773.773-1.063.194-.29.483-.483.58-.676.194-.096.29-.194.29-.194z"/><path fill="#44A6C8" d="M-88.446 625.099l-21.836 45.7 18.261 11.981z"/><path fill="#6AAED1" d="M-106.61 687.127l14.589-4.347-18.261-11.981z"/><path fill="#74B6CF" d="M-115.789 692.249l-1.835 14.589 25.603-24.058-14.589 4.347z"/><path fill="#B4CBCE" d="M-149.025 676.886l-35.555-7.44 33.333-13.622z"/><path fill="#44A6C8" d="M-149.025 618.53l30.917 23.67v17.489z"/><path fill="#74B6CF" d="M-118.108 642.2l11.112-16.424 2.994 31.979z"/><path fill="#89BED7" d="M-118.108 642.2l-6.667-32.752 17.779 16.328z"/><path fill="#3E97D2" d="M-106.996 625.776l18.55-.677-15.556 32.656z"/><path fill="#41A6D1" d="M-149.025 618.53l24.25-9.082 6.667 32.752z"/><path fill="#50AAD4" d="M-151.247 655.824l-29.952-20.001 31.401-4.541z"/><path fill="#3F9BD1" d="M-181.199 635.823l32.174-17.293-.773 12.752z"/><path fill="#6AAED1" d="M-184.58 669.446l-4.251-15.652 37.584 2.03z"/><path fill="#3F9BD1" d="M-181.199 635.823l-7.632 17.971 37.584 2.03z"/><path fill="#6AAED1" d="M-140.427 698.045l6.861 22.609 15.942-13.816z"/><path fill="#74B6CF" d="M-184.58 669.446l13.332 25.797 22.223-18.357z"/><path fill="#6AAED1" d="M-149.025 676.886l8.598 21.159-30.821-2.802z"/><path fill="#3F9BD1" d="M-171.248 695.243l-4.057 39.903 34.878-37.101z"/><path fill="#57ACD0" d="M-140.427 698.045l6.861 22.609-41.739 14.492z"/><path fill="#3966A9" d="M-140.427 741.523l-34.878 4.251-28.116-15.845z"/><path fill="#174182" d="M-140.427 741.523l18.744 30.048-53.622-25.797z"/><path fill="#07266B" d="M-175.305 745.774l3.381 22.802 50.241 2.995z"/><path fill="#2E2C2A" d="M-121.683 771.571l-5.024 28.694-45.217-31.689z"/><path fill="#266979" d="M-203.421 729.929l-12.464 32.56 43.961 6.087z"/><path fill="#394994" d="M-203.421 729.929l31.497 38.647-3.381-22.802z"/><path fill="#224692" d="M-89.896 812.344l-5.99-73.527-8.985 47.536z"/><path fill="#1D3886" d="M-91.248 796.304l18.453-18.646-23.091-38.841z"/><path fill="#133B5E" d="M-72.795 777.658h13.044v-34.009z"/><path fill="#245E9F" d="M-95.886 738.817l36.135 4.832-13.044 34.009z"/><path fill="#0C1D4E" d="M-126.707 800.265l21.836-13.912 14.975 25.991z"/><path fill="#1E1221" d="M-126.707 800.265l5.024 25.605 31.787-13.526z"/><path fill="#161514" d="M-89.896 812.344l-9.951 24.057-21.836-10.531z"/><path fill="#2E2C2A" d="M-89.896 812.344l11.595 8.791-21.546 15.266z"/><path fill="#4E2B27" d="M-78.301 821.135l11.979 4.735-11.787 12.656z"/><path fill="#322E1A" d="M-78.301 821.135l.192 17.391-21.738-2.125zm11.979 4.735l6.571 2.898v9.758h-18.358z"/><path fill="#3D3C38" d="M-99.847 836.401l22.028 13.913-.29-11.788z"/><path fill="#484434" d="M-77.819 850.314l18.068 2.898v-14.686h-18.358z"/><path fill="#EAC7BE" d="M-73.664 799.3l-4.445 8.406 11.787 18.164z"/><path fill="#C4B0AB" d="M-78.109 807.706l-11.787 4.638 11.595 8.791z"/><path fill="#BEC4A8" d="M-78.109 807.706l-13.139-11.402 1.352 16.04z"/><path fill="#93A9AE" d="M-78.109 807.706l5.314-30.048-18.453 18.646z"/><path fill="#89BED7" d="M-72.795 777.658l-.869 21.642-4.445 8.406z"/><path fill="#AB9D7C" d="M-73.664 799.3l13.913-21.642h-13.044z"/><path fill="#99C09A" d="M-66.322 825.87l-11.787-18.164-.192 13.429z"/><path fill="#BEC4A8" d="M-73.664 799.3l13.913-21.642-6.571 48.212z"/><path fill="#C4B0AB" d="M-66.322 825.87l6.571 2.898v-51.11z"/><path fill="#3D3C38" d="M-121.683 825.87l-8.598 19.42 30.434-8.889z"/><path fill="#5F524C" d="M-99.847 836.401l-26.183 30.241-4.251-21.352z"/><path fill="#484434" d="M-99.847 836.401v23.478l-26.183 6.763z"/><path fill="#4A5B43" d="M-99.847 836.401l22.028 13.913-22.028 9.565z"/><path fill="#484434" d="M-77.819 850.314l-12.077 36.811-9.951-27.246z"/><path fill="#805264" d="M-77.819 850.314l18.068 37.004v-34.106z"/><path fill="#67401B" d="M-85.741 874.564l25.99 12.754-18.068-37.004z"/><path fill="#2D7C95" d="M-121.683 771.571l25.797-32.754-8.985 47.536z"/><path fill="#266979" d="M-121.683 771.571l-5.024 28.694 21.836-13.912z"/><path fill="#2B74A5" d="M-121.683 771.571l-18.744-30.048 44.541-2.706z"/><path fill="#394994" d="M-95.886 738.817l36.135-16.714v21.546z"/><path fill="#2F85A3" d="M-92.021 682.78l16.618 20.289-20.483 35.748z"/><path fill="#3288BA" d="M-92.021 682.78l-25.603 24.058 21.738 31.979z"/><path fill="#3966A9" d="M-92.021 682.78l23.864-3.769 8.406 43.092z"/><path fill="#3288BA" d="M-68.157 679.011h8.406v-23.187z"/><path fill="#3288AF" d="M-68.157 679.011l-7.246-23.187-16.618 26.956z"/><path fill="#439CC3" d="M-75.403 655.824l-13.043-30.725-3.575 57.681z"/><path fill="#317FBF" d="M-68.157 679.011l8.406 43.092v-43.092z"/><path fill="#2B74A5" d="M-75.887 702.586l-19.999 36.231 36.135-16.714z"/><path fill="#3799BB" d="M-133.566 720.654l37.68 18.163-21.738-31.979z"/><path fill="#3597C1" d="M-133.566 720.654l-6.861 20.869 44.541-2.706z"/><path fill="#3799BB" d="M-175.305 735.243l34.878 6.28 6.861-20.869z"/><path fill="#50AAD4" d="M-118.108 642.2v17.489l7.826 11.11 6.28-13.044z"/><path fill="#306B77" d="M-235.497 536.598l-12.271 22.416 34.782 39.806z"/><path fill="#3C7684" d="M-247.768 559.014l4.445 28.307 30.337 11.499z"/><path fill="#2D7C95" d="M-243.323 587.321l23.671 30.146 6.666-18.647z"/><path fill="#3288AF" d="M-243.323 587.321l-12.077 27.247 35.748 2.899z"/><path fill="#2B74A5" d="M-255.4 614.568l25.023 22.416 10.725-19.517z"/><path fill="#2F85A3" d="M-255.4 614.568l-11.014 21.255 36.037 1.161z"/><path fill="#335AA0" d="M-266.414 635.823l22.221 24.058 13.816-22.897z"/><path fill="#224692" d="M-266.414 635.823l-17.682 37.198 39.903-13.14z"/><path fill="#394994" d="M-269.893 668.287l25.7 12.657v-21.063z"/><path fill="#3288BA" d="M-212.986 598.82l20.096-28.019 43.865 47.729z"/><path fill="#3966A9" d="M-192.89 570.801l34.88-23.478 8.985 71.207z"/><path fill="#3D65A8" d="M-158.01 547.323l33.235 62.125-24.25 9.082z"/><path fill="#4A5098" d="M-158.01 547.323l53.526 24.733-20.291 37.392z"/><path fill="#3966A9" d="M-158.01 547.323l44.637-19.806 8.889 44.539z"/><path fill="#2F85A3" d="M-104.484 572.056l-2.512 53.72-17.779-16.328z"/><path fill="#3799BB" d="M-104.484 572.056l16.038 53.043-18.55.677z"/><path fill="#317FBF" d="M-104.484 572.056l44.733 32.56-28.695 20.483z"/><path fill="#3597C1" d="M-104.484 572.056l44.733-9.081v41.641zm7.439-56.23l-7.439 56.23-8.889-44.539z"/><path fill="#3288BA" d="M-97.045 515.826l37.294 47.149-44.733 9.081z"/><path fill="#3966A9" d="M-88.446 625.099l28.695 30.725h-15.652z"/><path fill="#317FBF" d="M-75.403 655.824h15.652l-8.406 23.187z"/><path fill="#2D7AB2" d="M-88.446 625.099l28.695-20.483v51.208zm-8.599-109.273l23.768-3.188 13.526 50.337z"/><path fill="#2B66AA" d="M-73.277 512.638h13.526v50.337z"/><path fill="#74B6CF" d="M-184.58 669.446l-21.932 11.498 13.622 13.913z"/><path fill="#57ACD0" d="M-206.512 680.944l-9.373 34.298 22.995-20.385z"/><path fill="#3E97D2" d="M-215.885 715.242l12.464 14.687-53.622 30.724z"/><path fill="#3966A9" d="M-237.527 739.108l-5.796-33.237 27.438 9.371z"/><path fill="#3597C1" d="M-243.323 705.871l36.811-24.927-9.373 34.298z"/><path fill="#3F9BD1" d="M-192.89 694.857l21.642.386-13.332-25.797z"/><path fill="#3288BA" d="M-192.89 694.857l-10.531 35.072 32.173-34.686z"/><path fill="#3799BB" d="M-192.89 694.857l-22.995 20.385 12.464 14.687z"/><path fill="#348EBB" d="M-171.248 695.243l-4.057 40-28.116-5.314z"/><path fill="#3288AF" d="M-215.885 762.489l-16.52-15.942 28.984-16.618z"/><path fill="#2D7C95" d="M-232.405 746.547l-11.788 23.091 28.308-7.149zm-11.788-86.666l37.681 21.063h-37.681z"/><path fill="#3288AF" d="M-244.193 680.944l.87 24.927 36.811-24.927z"/><path fill="#437CAB" d="M-244.193 659.881l59.613 9.565-21.932 11.498z"/><path fill="#6B7DAD" d="M-244.193 659.881l55.362-6.087 4.251 15.652z"/><path fill="#537CAB" d="M-181.199 635.823l-62.994 24.058 55.362-6.087z"/><path fill="#3D65A8" d="M-181.199 635.823l-49.178 1.161-13.816 22.897z"/><path fill="#2E68AC" d="M-181.199 635.823l-38.453-18.356-10.725 19.517z"/><path fill="#3568AB" d="M-212.986 598.82l31.787 37.003-38.453-18.356z"/><path fill="#2F85A3" d="M-212.986 598.82l63.961 19.71-32.174 17.293z"/><path fill="#1D3886" d="M-244.193 680.944l-49.565 21.158 23.865-33.815z"/><path fill="#224692" d="M-243.323 705.871l-29.952-12.463-25.313 32.366z"/><path fill="#394994" d="M-243.323 705.871l-35.556 12.753 41.352 20.484z"/><path fill="#1E5288" d="M-278.879 718.624l-13.236 30.629 33.913-20.387z"/><path fill="#245E9F" d="M-258.202 728.866l20.675 10.242-31.399 19.516z"/><path fill="#2B74A5" d="M-273.275 693.408l29.082-12.464.87 24.927z"/><path fill="#3D3C38" d="M-171.924 768.576l-18.55 14.202-25.411-20.289z"/><path fill="#4E2B27" d="M-171.924 768.576l45.217 31.689-63.767-17.487z"/><path fill="#322E1A" d="M-190.474 782.778l-2.416 24.928 66.183-7.441z"/><path fill="#3D3C38" d="M-126.707 800.265l-48.598 27.054 1.255-21.74z"/><path fill="#484434" d="M-126.707 800.265l-40.096 43.092 7.054-24.637z"/><path fill="#4A5B43" d="M-166.803 843.357l45.12-17.487-5.024-25.605z"/><path fill="#805264" d="M-121.683 825.87l-8.598 19.42-17.585-9.276z"/><path fill="#6AAED1" d="M10.103 466.744l-11.787-7.922 17.487-13.238z"/><path fill="#44A6C8" d="M10.103 466.744l-32.463 49.082 20.676-57.004z"/><path fill="#439CC3" d="M-1.684 458.822l-26.474 18.84 5.798 38.164z"/><path fill="#3597C1" d="M-28.158 477.662l-17.971 34.976 23.769 3.188z"/><path fill="#437CAB" d="M-28.158 477.662h-23.96l5.989 34.976z"/><path fill="#439CC3" d="M-52.118 477.662l-7.633 34.976h13.622z"/><path fill="#44A6C8" d="M-52.118 477.662l-7.633-.773v35.749z"/><path fill="#3F9BD1" d="M-52.118 477.662l-7.633-35.168v34.395z"/><path fill="#439CC3" d="M-28.158 477.662l-6.086-25.603-17.874 25.603z"/><path fill="#6B7DAD" d="M10.103 466.744l-16.232 60.773-16.231-11.691z"/><path fill="#74B6CF" d="M10.103 466.744l8.792 14.589-25.024 46.184z"/><path fill="#1E5288" d="M18.895 481.333l94.492-84.443-45.217 61.932z"/><path fill="#8C8D8E" d="M113.387 396.89l-40.966 5.024 6.57 25.701z"/><path fill="#AB9D7C" d="M72.421 401.914L47.01 417.952l31.981 9.663z"/><path fill="#C4B0AB" d="M47.01 417.952L56.286 448l22.705-20.385z"/><path fill="#B4CBCE" d="M47.01 417.952l-17.391 14.977L56.286 448z"/><path fill="#89BED7" d="M29.619 432.929l8.889 30.82L56.286 448z"/><path fill="#BAB4B3" d="M29.619 432.929l-13.816 12.655 22.705 18.165z"/><path fill="#93A9AE" d="M15.803 445.584l-5.7 21.16 28.405-2.995z"/><path fill="#A8A8A9" d="M38.508 463.749l-19.613 17.584-8.792-14.589z"/><path fill="#245E9F" d="M113.387 396.89l-14.203 88.115 39.13-12.753z"/><path fill="#174182" d="M99.184 485.005l23.382 27.633 15.748-40.386z"/><path fill="#437CAB" d="M99.184 485.005l-33.044-7.343 36.329-12.754z"/><path fill="#266979" d="M99.184 485.005l-7.923 29.274 31.305-1.641z"/><path fill="#1D3886" d="M122.566 512.638l-6.475 23.96-24.83-22.319z"/><path fill="#3288AF" d="M99.184 485.005l-38.358 15.168 30.435 14.106z"/><path fill="#3D65A8" d="M99.184 485.005l-33.044-7.343-5.314 22.511z"/><path fill="#4A5098" d="M102.469 464.908l-34.299-6.086-2.03 18.84z"/><path fill="#3D65A8" d="M102.469 464.908l4.444-25.797-38.743 19.711z"/><path fill="#224692" d="M113.387 396.89l-6.474 42.221-38.743 19.711z"/><path fill="#266979" d="M66.14 477.662l-47.245 3.671 49.275-22.511z"/><path fill="#2B74A5" d="M66.14 477.662l-72.269 49.855 25.024-46.184z"/><path fill="#2F85A3" d="M60.826 500.173l-66.955 27.344h57.39z"/><path fill="#3597C1" d="M51.261 527.517l-12.753 19.806-44.637-19.806z"/><path fill="#437CAB" d="M91.261 514.279l-40 13.238 9.565-27.344z"/><path fill="#6B7DAD" d="M91.261 514.279l-6.956 25.991-33.044-12.753z"/><path fill="#A77C97" d="M84.305 540.27l-45.797 7.053 34.879 23.478z"/><path fill="#4E97C7" d="M84.305 540.27l-33.044-12.753-12.753 19.806z"/><path fill="#224692" d="M116.091 536.598l-31.786 3.672 6.956-25.991z"/><path fill="#245E9F" d="M116.091 536.598L93.58 598.82l-9.275-58.55z"/><path fill="#2B74A5" d="M84.305 540.27l-10.918 30.531L93.58 598.82z"/><path fill="#93A9AE" d="M-1.78 706.838l22.801-8.793-22.609-14.396-11.304 3.478z"/><path fill="#B4CBCE" d="M29.523 676.886l-8.502 21.159-22.609-14.396z"/><path fill="#3288AF" d="M66.14 477.662l-5.314 22.511-66.955 27.344z"/><path fill="#74B6CF" d="M31.745 655.824l-2.222-37.294-30.821 41.159z"/><path fill="#B4CBCE" d="M31.745 655.824l-17.874-2.03-15.169 5.895-7.922 11.11-3.672 16.328 9.178 5.122-5.217-5.895 7.343-2.705 18.164.966 12.947-7.729z"/><path fill="#439CC3" d="M11.166 665.002c-6.667 0-12.271 4.057-14.203 9.565-.483-1.353-.676-2.706-.676-4.251 0-7.632 6.667-13.816 14.975-13.816 8.212 0 14.975 6.184 14.975 13.816 0 1.449-.29 2.898-.676 4.251-2.125-5.507-7.729-9.565-14.395-9.565z"/><path fill="#184486" d="M11.166 684.229c-6.667 0-12.271-4.057-14.203-9.565 1.932-5.604 7.536-9.565 14.203-9.565s12.271 4.057 14.203 9.565c-1.933 5.508-7.537 9.565-14.203 9.565z"/><path fill="none" d="M11.166 660.267v20.677"/><path fill="#B4CBCE" d="M11.166 660.267s.096.096.29.194c.096.194.386.386.58.676s.58.58.773 1.063c.29.386.58.87.869 1.353.58.966 1.063 2.125 1.353 3.285.29 1.257.483 2.512.483 3.769s-.194 2.608-.483 3.769c-.29 1.257-.773 2.318-1.353 3.285-.29.483-.58.966-.869 1.353-.289.386-.58.773-.773 1.063-.194.29-.483.483-.58.676-.194.194-.29.194-.29.194s-.096-.096-.29-.194c-.096-.194-.386-.386-.58-.676-.194-.29-.58-.58-.773-1.063-.29-.386-.58-.869-.869-1.353a12.363 12.363 0 0 1-1.353-3.285c-.29-1.257-.483-2.512-.483-3.769s.194-2.608.483-3.769c.29-1.257.773-2.318 1.353-3.285.29-.483.58-.966.869-1.353.29-.386.58-.773.773-1.063.194-.29.483-.483.58-.676.193-.096.29-.194.29-.194z"/><path fill="#44A6C8" d="M-30.96 625.099l21.74 45.7-18.165 11.981z"/><path fill="#6AAED1" d="M-12.892 687.127l-14.493-4.347 18.165-11.981z"/><path fill="#74B6CF" d="M-3.714 692.249l1.934 14.589-25.605-24.058 14.493 4.347z"/><path fill="#B4CBCE" d="M29.523 676.886l35.652-7.44-33.43-13.622z"/><path fill="#44A6C8" d="M29.523 618.53L-1.298 642.2v17.489z"/><path fill="#74B6CF" d="M-1.298 642.2l-11.11-16.424-2.996 31.979z"/><path fill="#89BED7" d="M-1.298 642.2l6.667-32.752-17.777 16.328z"/><path fill="#3E97D2" d="M-12.408 625.776l-18.552-.677 15.556 32.656z"/><path fill="#41A6D1" d="M29.523 618.53l-24.154-9.082-6.667 32.752z"/><path fill="#50AAD4" d="M31.745 655.824l29.952-20.001-31.401-4.541z"/><path fill="#3F9BD1" d="M61.697 635.823L29.523 618.53l.773 12.752z"/><path fill="#6AAED1" d="M65.175 669.446l4.251-15.652-37.681 2.03z"/><path fill="#3F9BD1" d="M61.697 635.823l7.729 17.971-37.681 2.03z"/><path fill="#6AAED1" d="M21.021 698.045l-6.957 22.609-15.844-13.816z"/><path fill="#74B6CF" d="M65.175 669.446l-13.333 25.797-22.319-18.357z"/><path fill="#6AAED1" d="M29.523 676.886l-8.502 21.159 30.821-2.802z"/><path fill="#3F9BD1" d="M51.842 695.243l4.057 39.903-34.878-37.101z"/><path fill="#57ACD0" d="M21.021 698.045l-6.957 22.609 41.835 14.492z"/><path fill="#3966A9" d="M21.021 741.523l34.878 4.251 28.02-15.845z"/><path fill="#174182" d="M21.021 741.523l-18.84 30.048 53.718-25.797z"/><path fill="#07266B" d="M55.899 745.774l-3.381 22.802-50.337 2.995z"/><path fill="#2E2C2A" d="M2.181 771.571l5.12 28.694 45.217-31.689z"/><path fill="#266979" d="M83.919 729.929l12.463 32.56-43.864 6.087z"/><path fill="#394994" d="M83.919 729.929l-31.401 38.647 3.381-22.802z"/><path fill="#224692" d="M-29.51 812.344l5.894-73.527 8.985 47.536z"/><path fill="#1D3886" d="M-28.254 796.304l-18.357-18.646 22.995-38.841z"/><path fill="#133B5E" d="M-46.611 777.658h-13.14v-34.009z"/><path fill="#245E9F" d="M-23.616 738.817l-36.135 4.832 13.14 34.009z"/><path fill="#0C1D4E" d="M7.301 800.265l-21.932-13.912-14.879 25.991z"/><path fill="#1E1221" d="M7.301 800.265l-5.12 25.605-31.691-13.526z"/><path fill="#161514" d="M-29.51 812.344l9.951 24.057 21.74-10.531z"/><path fill="#2E2C2A" d="M-29.51 812.344l-11.594 8.791 21.545 15.266z"/><path fill="#4E2B27" d="M-41.104 821.135l-12.077 4.735 11.787 12.656z"/><path fill="#322E1A" d="M-41.104 821.135l-.29 17.391 21.835-2.125zm-12.077 4.735l-6.57 2.898v9.758h18.357z"/><path fill="#3D3C38" d="M-19.559 836.401l-22.125 13.913.29-11.788z"/><path fill="#484434" d="M-41.684 850.314l-18.067 2.898v-14.686h18.357z"/><path fill="#EAC7BE" d="M-45.741 799.3l4.347 8.406-11.787 18.164z"/><path fill="#C4B0AB" d="M-41.394 807.706l11.884 4.638-11.594 8.791z"/><path fill="#BEC4A8" d="M-41.394 807.706l13.14-11.402-1.256 16.04z"/><path fill="#93A9AE" d="M-41.394 807.706l-5.217-30.048 18.357 18.646z"/><path fill="#89BED7" d="M-46.611 777.658l.87 21.642 4.347 8.406z"/><path fill="#AB9D7C" d="M-45.741 799.3l-14.01-21.642h13.14z"/><path fill="#99C09A" d="M-53.181 825.87l11.787-18.164.29 13.429z"/><path fill="#BEC4A8" d="M-45.741 799.3l-14.01-21.642 6.57 48.212z"/><path fill="#C4B0AB" d="M-53.181 825.87l-6.57 2.898v-51.11z"/><path fill="#3D3C38" d="M2.181 825.87l8.694 19.42-30.434-8.889z"/><path fill="#5F524C" d="M-19.559 836.401l26.183 30.241 4.251-21.352z"/><path fill="#484434" d="M-19.559 836.401v23.478l26.183 6.763z"/><path fill="#4A5B43" d="M-19.559 836.401l-22.125 13.913 22.125 9.565z"/><path fill="#484434" d="M-41.684 850.314l12.174 36.811 9.951-27.246z"/><path fill="#805264" d="M-41.684 850.314l-18.067 37.004v-34.106z"/><path fill="#67401B" d="M-34.148 873.115l-25.603 14.203 18.067-37.004z"/><path fill="#2D7C95" d="M2.181 771.571l-25.797-32.754 8.985 47.536z"/><path fill="#266979" d="M2.181 771.571l5.12 28.694-21.932-13.912z"/><path fill="#2B74A5" d="M2.181 771.571l18.84-30.048-44.637-2.706z"/><path fill="#394994" d="M-23.616 738.817l-36.135-16.714v21.546z"/><path fill="#2F85A3" d="M-27.385 682.78l-16.618 20.289 20.387 35.748z"/><path fill="#3288BA" d="M-27.385 682.78l25.605 24.058-21.836 31.979z"/><path fill="#3966A9" d="M-27.385 682.78l-23.864-3.769-8.502 43.092z"/><path fill="#3288BA" d="M-51.249 679.011h-8.502v-23.187z"/><path fill="#3288AF" d="M-51.249 679.011l7.246-23.187 16.618 26.956z"/><path fill="#439CC3" d="M-44.003 655.824l13.043-30.725 3.575 57.681z"/><path fill="#317FBF" d="M-51.249 679.011l-8.502 43.092v-43.092z"/><path fill="#2B74A5" d="M-43.519 702.586l19.903 36.231-36.135-16.714z"/><path fill="#3799BB" d="M14.064 720.654l-37.68 18.163 21.836-31.979z"/><path fill="#3597C1" d="M14.064 720.654l6.957 20.869-44.637-2.706z"/><path fill="#3799BB" d="M55.899 735.243l-34.878 6.28-6.957-20.869z"/><path fill="#50AAD4" d="M-1.298 642.2v17.489l-7.922 11.11-6.184-13.044z"/><path fill="#306B77" d="M116.091 536.598l12.271 22.416L93.58 598.82z"/><path fill="#3C7684" d="M128.362 559.014l-4.445 28.307L93.58 598.82z"/><path fill="#2D7C95" d="M123.917 587.321l-23.767 30.146-6.57-18.647z"/><path fill="#3288AF" d="M123.917 587.321l11.981 27.247-35.748 2.899z"/><path fill="#2B74A5" d="M135.898 614.568l-24.927 22.416-10.821-19.517z"/><path fill="#2F85A3" d="M135.898 614.568l11.014 21.255-35.941 1.161z"/><path fill="#335AA0" d="M146.912 635.823l-22.125 24.058-13.816-22.897z"/><path fill="#224692" d="M146.912 635.823l17.681 37.198-39.806-13.14z"/><path fill="#394994" d="M150.391 668.287l-25.604 12.657v-21.063z"/><path fill="#3288BA" d="M93.58 598.82l-20.193-28.019-43.864 47.729z"/><path fill="#3966A9" d="M73.387 570.801l-34.879-23.478-8.985 71.207z"/><path fill="#3D65A8" d="M38.508 547.323L5.369 609.448l24.154 9.082z"/><path fill="#4A5098" d="M38.508 547.323l-53.428 24.733 20.289 37.392z"/><path fill="#3966A9" d="M38.508 547.323l-44.637-19.806-8.791 44.539z"/><path fill="#2F85A3" d="M-14.92 572.056l2.512 53.72 17.777-16.328z"/><path fill="#3799BB" d="M-14.92 572.056l-16.04 53.043 18.552.677z"/><path fill="#317FBF" d="M-14.92 572.056l-44.831 32.56 28.791 20.483z"/><path fill="#3597C1" d="M-14.92 572.056l-44.831-9.081v41.641zm-7.44-56.23l7.44 56.23 8.791-44.539z"/><path fill="#3288BA" d="M-22.36 515.826l-37.391 47.149 44.831 9.081z"/><path fill="#3966A9" d="M-30.96 625.099l-28.791 30.725h15.748z"/><path fill="#317FBF" d="M-44.003 655.824h-15.748l8.502 23.187z"/><path fill="#2D7AB2" d="M-30.96 625.099l-28.791-20.483v51.208zm8.6-109.273l-23.769-3.188-13.622 50.337z"/><path fill="#2B66AA" d="M-46.129 512.638h-13.622v50.337z"/><path fill="#74B6CF" d="M65.175 669.446l21.932 11.498-13.72 13.913z"/><path fill="#57ACD0" d="M87.107 680.944l9.275 34.298-22.995-20.385z"/><path fill="#3E97D2" d="M96.382 715.242l-12.463 14.687 53.622 30.724z"/><path fill="#3966A9" d="M118.024 739.108l5.893-33.237-27.535 9.371z"/><path fill="#3597C1" d="M123.917 705.871l-36.81-24.927 9.275 34.298z"/><path fill="#3F9BD1" d="M73.387 694.857l-21.545.386 13.333-25.797z"/><path fill="#3288BA" d="M73.387 694.857l10.532 35.072-32.077-34.686z"/><path fill="#3799BB" d="M73.387 694.857l22.995 20.385-12.463 14.687z"/><path fill="#348EBB" d="M51.842 695.243l4.057 40 28.02-5.314z"/><path fill="#3288AF" d="M96.382 762.489l16.521-15.942-28.984-16.618z"/><path fill="#2D7C95" d="M112.903 746.547l11.884 23.091-28.405-7.149zm11.884-86.666l-37.68 21.063h37.68z"/><path fill="#3288AF" d="M124.787 680.944l-.87 24.927-36.81-24.927z"/><path fill="#437CAB" d="M124.787 659.881l-59.612 9.565 21.932 11.498z"/><path fill="#6B7DAD" d="M124.787 659.881l-55.361-6.087-4.251 15.652z"/><path fill="#537CAB" d="M61.697 635.823l63.09 24.058-55.361-6.087z"/><path fill="#3D65A8" d="M61.697 635.823l49.274 1.161 13.816 22.897z"/><path fill="#2E68AC" d="M61.697 635.823l38.453-18.356 10.821 19.517z"/><path fill="#3568AB" d="M93.58 598.82l-31.883 37.003 38.453-18.356z"/><path fill="#2F85A3" d="M93.58 598.82l-64.057 19.71 32.174 17.293z"/><path fill="#1D3886" d="M124.787 680.944l49.469 21.158-23.865-33.815z"/><path fill="#224692" d="M123.917 705.871l29.952-12.463 25.313 32.366z"/><path fill="#394994" d="M123.917 705.871l35.46 12.753-41.353 20.484z"/><path fill="#1E5288" d="M159.377 718.624l13.332 30.629-34.009-20.387z"/><path fill="#245E9F" d="M138.7 728.866l-20.676 10.242 31.498 19.516z"/><path fill="#2B74A5" d="M153.869 693.408l-29.082-12.464-.87 24.927z"/><path fill="#3D3C38" d="M52.518 768.576l18.454 14.202 25.41-20.289z"/><path fill="#4E2B27" d="M52.518 768.576L7.301 800.265l63.671-17.487z"/><path fill="#322E1A" d="M70.972 782.778l2.415 24.928-66.086-7.441z"/><path fill="#3D3C38" d="M7.301 800.265l48.598 27.054-1.255-21.74z"/><path fill="#484434" d="M7.301 800.265L47.3 843.357l-6.955-24.637z"/><path fill="#4A5B43" d="M47.3 843.357L2.181 825.87l5.12-25.605z"/><path fill="#805264" d="M2.181 825.87l8.694 19.42 17.585-9.276z"/></g></svg>