<?xml version="1.0" encoding="utf-8"?>
<!-- Generator: Adobe Illustrator 18.0.0, SVG Export Plug-In . SVG Version: 6.00 Build 0)  -->
<!DOCTYPE svg PUBLIC "-//W3C//DTD SVG 1.0//EN" "http://www.w3.org/TR/2001/REC-SVG-20010904/DTD/svg10.dtd">
<svg version="1.0" id="Capa_1" xmlns="http://www.w3.org/2000/svg" xmlns:xlink="http://www.w3.org/1999/xlink" x="0px" y="0px"
	 viewBox="0 0 792 736.7" enable-background="new 0 0 792 736.7" xml:space="preserve">
<g>
	<g>
		<g>
			<polygon fill="#91451D" points="325.8,187 338,178.8 319.9,165.1 			"/>
			<polygon fill="#C23E18" points="325.8,187 359.4,237.8 338,178.8 			"/>
			<polygon fill="#BA562B" points="338,178.8 365.4,198.4 359.4,237.8 			"/>
			<polygon fill="#CA5C2C" points="365.4,198.4 384.1,234.6 359.4,237.8 			"/>
			<polygon fill="#B97B48" points="365.4,198.4 390.2,198.4 384.1,234.6 			"/>
			<polygon fill="#BA562B" points="390.2,198.4 398.1,234.6 384.1,234.6 			"/>
			<polygon fill="#C23E18" points="390.2,198.4 398.1,197.6 398.1,234.6 			"/>
			<polygon fill="#C15619" points="390.2,198.4 398.1,161.9 398.1,197.6 			"/>
			<polygon fill="#BA562B" points="365.4,198.4 371.7,171.8 390.2,198.4 			"/>
			<polygon fill="#8F7C48" points="325.8,187 342.6,250 359.4,237.8 			"/>
			<polygon fill="#87381D" points="325.8,187 316.7,202.2 342.6,250 			"/>
			<polygon fill="#E0A96F" points="316.7,202.2 218.9,114.7 265.7,178.8 			"/>
			<polygon fill="#737271" points="218.9,114.7 261.3,120 254.5,146.6 			"/>
			<polygon fill="#506081" points="261.3,120 287.6,136.6 254.5,146.6 			"/>
			<polygon fill="#384D52" points="287.6,136.6 278.1,167.6 254.5,146.6 			"/>
			<polygon fill="#47302C" points="287.6,136.6 305.7,152.1 278.1,167.6 			"/>
			<polygon fill="#71381B" points="305.7,152.1 296.4,184 278.1,167.6 			"/>
			<polygon fill="#444B4B" points="305.7,152.1 319.9,165.1 296.4,184 			"/>
			<polygon fill="#68524C" points="319.9,165.1 325.8,187 296.4,184 			"/>
			<polygon fill="#575756" points="296.4,184 316.7,202.2 325.8,187 			"/>
			<polygon fill="#DC9B52" points="218.9,114.7 233.6,206 193.2,192.7 			"/>
			<polygon fill="#E7BB75" points="233.6,206 209.4,234.6 193.2,192.7 			"/>
			<polygon fill="#B97B48" points="233.6,206 267.8,198.4 230.3,185.1 			"/>
			<polygon fill="#D89180" points="233.6,206 241.8,236.3 209.4,234.6 			"/>
			<polygon fill="#E0C570" points="209.4,234.6 216.1,259.3 241.8,236.3 			"/>
			<polygon fill="#CD6D42" points="233.6,206 273.3,221.6 241.8,236.3 			"/>
			<polygon fill="#BF944A" points="233.6,206 267.8,198.4 273.3,221.6 			"/>
			<polygon fill="#AFA92B" points="230.3,185.1 265.7,178.8 267.8,198.4 			"/>
			<polygon fill="#BF944A" points="230.3,185.1 225.6,158.5 265.7,178.8 			"/>
			<polygon fill="#E7B953" points="218.9,114.7 225.6,158.5 265.7,178.8 			"/>
			<polygon fill="#D89180" points="267.8,198.4 316.7,202.2 265.7,178.8 			"/>
			<polygon fill="#D4834D" points="267.8,198.4 342.6,250 316.7,202.2 			"/>
			<polygon fill="#CF7150" points="273.3,221.6 342.6,250 283.2,250 			"/>
			<polygon fill="#CA5C2C" points="283.2,250 296.4,270.4 342.6,250 			"/>
			<polygon fill="#B97B48" points="241.8,236.3 283.2,250 273.3,221.6 			"/>
			<polygon fill="#8F7C48" points="241.8,236.3 249,263.1 283.2,250 			"/>
			<polygon fill="#518063" points="249,263.1 296.4,270.4 260.3,294.7 			"/>
			<polygon fill="#AF5C25" points="249,263.1 283.2,250 296.4,270.4 			"/>
			<polygon fill="#E7B953" points="216.1,259.3 249,263.1 241.8,236.3 			"/>
			<polygon fill="#DC9B52" points="216.1,259.3 239.5,323.8 249,263.1 			"/>
			<polygon fill="#D4834D" points="249,263.1 260.3,294.7 239.5,323.8 			"/>
			<polygon fill="#68524C" points="338.2,435.6 314.6,426.4 337.9,411.6 349.6,415.2 			"/>
			<polygon fill="#47302C" points="305.7,404.6 314.6,426.4 337.9,411.6 			"/>
			<polygon fill="#CD6D42" points="267.8,198.4 273.3,221.6 342.6,250 			"/>
			<polygon fill="#87381D" points="303.4,382.8 305.7,344.2 337.6,386.8 			"/>
			<polygon fill="#47302C" points="303.4,382.8 321.9,380.6 337.6,386.8 345.8,398.3 349.6,415.2 340.1,420.4 345.6,414.3 
				337.9,411.6 319.1,412.6 305.7,404.6 			"/>
			<g>
				<path fill="#BA562B" d="M324.8,392.3c6.9,0,12.7,4.2,14.7,9.9c0.5-1.4,0.7-2.8,0.7-4.4c0-7.9-6.9-14.3-15.5-14.3
					c-8.5,0-15.5,6.4-15.5,14.3c0,1.5,0.3,3,0.7,4.4C312,396.5,317.9,392.3,324.8,392.3z"/>
				<path fill="#E6B870" d="M324.8,412.1c6.9,0,12.7-4.2,14.7-9.9c-2-5.8-7.8-9.9-14.7-9.9c-6.9,0-12.7,4.2-14.7,9.9
					C312,408,317.9,412.1,324.8,412.1z"/>
			</g>
			<g>
				<line fill="#47302C" x1="324.8" y1="387.3" x2="324.8" y2="408.8"/>
				<path fill="#47302C" d="M324.8,387.3c0,0,0.1,0.1,0.3,0.2c0.1,0.2,0.4,0.4,0.6,0.7c0.2,0.3,0.6,0.6,0.8,1.1
					c0.3,0.4,0.6,0.9,0.9,1.4c0.6,1,1.1,2.2,1.4,3.4c0.3,1.3,0.5,2.6,0.5,3.9c0,1.3-0.2,2.7-0.5,3.9c-0.3,1.3-0.8,2.4-1.4,3.4
					c-0.3,0.5-0.6,1-0.9,1.4c-0.3,0.4-0.6,0.8-0.8,1.1c-0.2,0.3-0.5,0.5-0.6,0.7c-0.2,0.2-0.3,0.2-0.3,0.2s-0.1-0.1-0.3-0.2
					c-0.1-0.2-0.4-0.4-0.6-0.7c-0.2-0.3-0.6-0.6-0.8-1.1c-0.3-0.4-0.6-0.9-0.9-1.4c-0.6-1-1.1-2.2-1.4-3.4c-0.3-1.3-0.5-2.6-0.5-3.9
					c0-1.3,0.2-2.7,0.5-3.9c0.3-1.3,0.8-2.4,1.4-3.4c0.3-0.5,0.6-1,0.9-1.4c0.3-0.4,0.6-0.8,0.8-1.1c0.2-0.3,0.5-0.5,0.6-0.7
					C324.7,387.4,324.8,387.3,324.8,387.3z"/>
			</g>
			<path fill="#C23E18" d="M345.8,398.3"/>
			<polygon fill="#C23E18" points="368.4,351 345.8,398.3 364.6,410.7 			"/>
			<polygon fill="#91451D" points="349.6,415.2 364.6,410.7 345.8,398.3 			"/>
			<polygon fill="#87381D" points="340.1,420.4 338.2,435.6 364.6,410.7 349.6,415.2 			"/>
			<polygon fill="#47302C" points="305.7,404.6 268.8,396.9 303.4,382.8 			"/>
			<polygon fill="#C23E18" points="305.7,344.2 337.6,368.7 337.6,386.8 			"/>
			<polygon fill="#87381D" points="337.6,368.7 349.2,351.7 352.2,384.8 			"/>
			<polygon fill="#71381B" points="337.6,368.7 330.7,334.8 349.2,351.7 			"/>
			<polygon fill="#C25B19" points="349.2,351.7 368.4,351 352.2,384.8 			"/>
			<polygon fill="#C14A18" points="305.7,344.2 330.7,334.8 337.6,368.7 			"/>
			<polygon fill="#AE4817" points="303.4,382.8 272.4,362.1 304.9,357.4 			"/>
			<polygon fill="#C15619" points="272.4,362.1 305.7,344.2 304.9,357.4 			"/>
			<polygon fill="#91451D" points="268.8,396.9 264.5,380.6 303.4,382.8 			"/>
			<polygon fill="#C15619" points="272.4,362.1 264.5,380.6 303.4,382.8 			"/>
			<polygon fill="#91451D" points="314.6,426.4 321.7,449.8 338.2,435.6 			"/>
			<polygon fill="#87381D" points="268.8,396.9 282.6,423.6 305.7,404.6 			"/>
			<polygon fill="#91451D" points="305.7,404.6 314.6,426.4 282.6,423.6 			"/>
			<polygon fill="#C15619" points="282.6,423.6 278.5,464.9 314.6,426.4 			"/>
			<polygon fill="#A64219" points="314.6,426.4 321.7,449.8 278.5,464.9 			"/>
			<polygon fill="#D78C1D" points="314.6,471.5 278.5,475.8 249.4,459.4 			"/>
			<polygon fill="#E7BB75" points="314.6,471.5 334,502.5 278.5,475.8 			"/>
			<polygon fill="#F1D78F" points="278.5,475.8 282,499.5 334,502.5 			"/>
			<polygon fill="#D1D2D4" points="334,502.5 328.8,532.3 282,499.5 			"/>
			<polygon fill="#D89180" points="249.4,459.4 236.5,493.1 282,499.5 			"/>
			<polygon fill="#D1BA2D" points="249.4,459.4 282,499.5 278.5,475.8 			"/>
			<polygon fill="#E7B953" points="366.8,544.7 360.7,468.6 351.4,517.8 			"/>
			<polygon fill="#E0C570" points="365.5,528.1 384.5,508.9 360.7,468.6 			"/>
			<polygon fill="#E9C39D" points="384.5,508.9 398.1,508.9 398.1,473.7 			"/>
			<polygon fill="#DC9B52" points="360.7,468.6 398.1,473.7 384.5,508.9 			"/>
			<polygon fill="#F9F0AF" points="328.8,532.3 351.4,517.8 366.8,544.7 			"/>
			<polygon fill="#DFECDD" points="328.8,532.3 334,558.7 366.8,544.7 			"/>
			<polygon fill="#E8E9EA" points="366.8,544.7 356.5,569.7 334,558.7 			"/>
			<polygon fill="#D1D2D4" points="366.8,544.7 378.9,553.8 356.5,569.7 			"/>
			<polygon fill="#B0D3D7" points="378.9,553.8 391.3,558.7 379.1,571.8 			"/>
			<polygon fill="#CCD1E3" points="378.9,553.8 379.1,571.8 356.5,569.7 			"/>
			<polygon fill="#CCD1E3" points="391.3,558.7 398.1,561.8 398.1,571.8 379.1,571.8 			"/>
			<polygon fill="#C2C2C6" points="356.5,569.7 379.4,584.1 379.1,571.8 			"/>
			<polygon fill="#B6BACB" points="379.4,584.1 398.1,587 398.1,571.8 379.1,571.8 			"/>
			<polygon fill="#002F3F" points="383.7,531.3 379.1,539.9 391.3,558.7 			"/>
			<polygon fill="#384D52" points="379.1,539.9 366.8,544.7 378.9,553.8 			"/>
			<polygon fill="#3E3855" points="379.1,539.9 365.5,528.1 366.8,544.7 			"/>
			<polygon fill="#68524C" points="379.1,539.9 384.5,508.9 365.5,528.1 			"/>
			<polygon fill="#71381B" points="384.5,508.9 383.7,531.3 379.1,539.9 			"/>
			<polygon fill="#506081" points="383.7,531.3 398.1,508.9 384.5,508.9 			"/>
			<polygon fill="#613860" points="391.3,558.7 379.1,539.9 378.9,553.8 			"/>
			<polygon fill="#3E3855" points="383.7,531.3 398.1,508.9 391.3,558.7 			"/>
			<polygon fill="#384D52" points="391.3,558.7 398.1,561.8 398.1,508.9 			"/>
			<polygon fill="#C2C2C6" points="334,558.7 325.1,578.9 356.5,569.7 			"/>
			<polygon fill="#9FADB2" points="356.5,569.7 329.4,601 325.1,578.9 			"/>
			<polygon fill="#B6BACB" points="356.5,569.7 356.5,594 329.4,601 			"/>
			<polygon fill="#B4A3BB" points="356.5,569.7 379.4,584.1 356.5,594 			"/>
			<polygon fill="#B6BACB" points="379.4,584.1 366.8,622.2 356.5,594 			"/>
			<polygon fill="#7BAA98" points="379.4,584.1 398.1,622.4 398.1,587 			"/>
			<polygon fill="#96BEE5" points="371.1,609.1 398.1,622.4 379.4,584.1 			"/>
			<polygon fill="#D27B60" points="334,502.5 360.7,468.6 351.4,517.8 			"/>
			<polygon fill="#D89180" points="334,502.5 328.8,532.3 351.4,517.8 			"/>
			<polygon fill="#D4834D" points="334,502.5 314.6,471.5 360.7,468.6 			"/>
			<polygon fill="#D1BA2D" points="360.7,468.6 398.1,451.4 398.1,473.7 			"/>
			<polygon fill="#CF7150" points="364.6,410.7 381.8,431.7 360.7,468.6 			"/>
			<polygon fill="#CE6D33" points="364.6,410.7 338.2,435.6 360.7,468.6 			"/>
			<polygon fill="#D78C1D" points="364.6,410.7 389.4,406.7 398.1,451.4 			"/>
			<polygon fill="#CE6D33" points="389.4,406.7 398.1,406.7 398.1,382.8 			"/>
			<polygon fill="#CD6D42" points="389.4,406.7 381.8,382.8 364.6,410.7 			"/>
			<polygon fill="#BA562B" points="381.8,382.8 368.4,351 364.6,410.7 			"/>
			<polygon fill="#D1762A" points="389.4,406.7 398.1,451.4 398.1,406.7 			"/>
			<polygon fill="#D4834D" points="381.4,431.1 360.7,468.6 398.1,451.4 			"/>
			<polygon fill="#C95933" points="321.7,449.8 360.7,468.6 338.2,435.6 			"/>
			<polygon fill="#CA5C2C" points="321.7,449.8 314.6,471.5 360.7,468.6 			"/>
			<polygon fill="#C95933" points="278.5,464.9 314.6,471.5 321.7,449.8 			"/>
			<polygon fill="#AE4817" points="337.6,368.7 337.6,386.8 345.8,398.3 352.2,384.8 			"/>
			<polygon fill="#CE8F82" points="216.1,259.3 203.5,282.5 239.5,323.8 			"/>
			<polygon fill="#C18474" points="203.5,282.5 208,311.8 239.5,323.8 			"/>
			<polygon fill="#D27B60" points="208,311.8 232.6,343.1 239.5,323.8 			"/>
			<polygon fill="#CD6D42" points="208,311.8 195.6,340 232.6,343.1 			"/>
			<polygon fill="#D4834D" points="195.6,340 221.5,363.2 232.6,343.1 			"/>
			<polygon fill="#CF7150" points="195.6,340 184.2,362.1 221.5,363.2 			"/>
			<polygon fill="#DE9F31" points="184.2,362.1 207.2,386.9 221.5,363.2 			"/>
			<polygon fill="#E7B953" points="184.2,362.1 165.9,400.5 207.2,386.9 			"/>
			<polygon fill="#D1BA2D" points="180.6,395.7 207.2,408.8 207.2,386.9 			"/>
			<polygon fill="#CE6D33" points="239.5,323.8 260.3,294.7 305.7,344.2 			"/>
			<polygon fill="#D78C1D" points="260.3,294.7 296.4,270.4 305.7,344.2 			"/>
			<polygon fill="#BF944A" points="296.4,270.4 330.7,334.8 305.7,344.2 			"/>
			<polygon fill="#AFA92B" points="296.4,270.4 351.7,296.1 330.7,334.8 			"/>
			<polygon fill="#D78C1D" points="296.4,270.4 342.6,250 351.7,296.1 			"/>
			<polygon fill="#CF7150" points="351.7,296.1 349.2,351.7 330.7,334.8 			"/>
			<polygon fill="#C95933" points="351.7,296.1 368.4,351 349.2,351.7 			"/>
			<polygon fill="#D1762A" points="351.7,296.1 398.1,329.8 368.4,351 			"/>
			<polygon fill="#CA5C2C" points="351.7,296.1 398.1,286.7 398.1,329.8 			"/>
			<polygon fill="#CA5C2C" points="359.4,237.8 351.7,296.1 342.6,250 			"/>
			<polygon fill="#CE6D33" points="359.4,237.8 398.1,286.7 351.7,296.1 			"/>
			<polygon fill="#D78C1D" points="368.4,351 398.1,382.8 381.8,382.8 			"/>
			<polygon fill="#D1762A" points="381.8,382.8 398.1,382.8 389.4,406.7 			"/>
			<polygon fill="#D27C3E" points="368.4,351 398.1,329.8 398.1,382.8 			"/>
			<polygon fill="#D27C3E" points="359.4,237.8 384.1,234.6 398.1,286.7 			"/>
			<polygon fill="#D9913D" points="384.1,234.6 398.1,234.6 398.1,286.7 			"/>
			<polygon fill="#87381D" points="268.8,396.9 246.2,408.8 260.3,423.1 			"/>
			<polygon fill="#A64219" points="246.2,408.8 236.5,444.2 260.3,423.1 			"/>
			<polygon fill="#C25B19" points="236.5,444.2 249.4,459.4 193.9,491.3 			"/>
			<polygon fill="#D78C1D" points="214.1,469 208,434.5 236.5,444.2 			"/>
			<polygon fill="#CA5C2C" points="208,434.5 246.2,408.8 236.5,444.2 			"/>
			<polygon fill="#C15619" points="260.3,423.1 282.6,423.6 268.8,396.9 			"/>
			<polygon fill="#CE6D33" points="260.3,423.1 249.4,459.4 282.6,423.6 			"/>
			<polygon fill="#C95933" points="260.3,423.1 236.5,444.2 249.4,459.4 			"/>
			<polygon fill="#CC6633" points="282.6,423.6 278.5,464.9 249.4,459.4 			"/>
			<polygon fill="#CD6D42" points="236.5,493.1 219.4,476.7 249.4,459.4 			"/>
			<polygon fill="#D27B60" points="219.4,476.7 207.2,500.6 236.5,493.1 			"/>
			<polygon fill="#D27B60" points="207.2,386.9 246.2,408.8 207.2,408.8 			"/>
			<polygon fill="#CD6D42" points="207.2,408.8 208,434.5 246.2,408.8 			"/>
			<polygon fill="#B97B48" points="207.2,386.9 268.8,396.9 246.2,408.8 			"/>
			<polygon fill="#8F7C48" points="207.2,386.9 264.5,380.6 268.8,396.9 			"/>
			<polygon fill="#A97C48" points="272.4,362.1 207.2,386.9 264.5,380.6 			"/>
			<polygon fill="#BF944A" points="272.4,362.1 221.5,363.2 207.2,386.9 			"/>
			<polygon fill="#D88E37" points="272.4,362.1 232.6,343.1 221.5,363.2 			"/>
			<polygon fill="#D88C28" points="239.5,323.8 272.4,362.1 232.6,343.1 			"/>
			<polygon fill="#CF7150" points="239.5,323.8 305.7,344.2 272.4,362.1 			"/>
			<polygon fill="#E0C570" points="207.2,408.8 155.9,430.7 180.6,395.7 			"/>
			<polygon fill="#E7B953" points="208,434.5 177.1,421.6 150.8,455.2 			"/>
			<polygon fill="#D1BA2D" points="208,434.5 171.3,447.8 214.1,469 			"/>
			<polygon fill="#E0A96F" points="171.3,447.8 157.5,479.5 192.7,458.4 			"/>
			<polygon fill="#DC9B52" points="192.7,458.4 214.1,469 181.5,489.2 			"/>
			<polygon fill="#D4834D" points="177.1,421.6 207.2,408.8 208,434.5 			"/>
			<polygon fill="#C2C2C6" points="282,499.5 262.8,514.2 236.5,493.1 			"/>
			<polygon fill="#B0D3D7" points="282,499.5 328.8,532.3 262.8,514.2 			"/>
			<polygon fill="#CCD1E3" points="262.8,514.2 260.3,539.9 328.8,532.3 			"/>
			<polygon fill="#C2C2C6" points="328.8,532.3 278.5,560.3 279.7,537.8 			"/>
			<polygon fill="#B6BACB" points="328.8,532.3 287.3,576.9 294.5,551.3 			"/>
			<polygon fill="#B4A3BB" points="287.3,576.9 334,558.7 328.8,532.3 			"/>
			<polygon fill="#7BAA98" points="334,558.7 325.1,578.9 306.8,569.3 			"/>
		</g>
		<g>
			<polygon fill="#91451D" points="470.4,187 458.2,178.8 476.3,165.1 			"/>
			<polygon fill="#C23E18" points="470.4,187 436.8,237.8 458.2,178.8 			"/>
			<polygon fill="#BA562B" points="458.2,178.8 430.8,198.4 436.8,237.8 			"/>
			<polygon fill="#CA5C2C" points="430.8,198.4 412.1,234.6 436.8,237.8 			"/>
			<polygon fill="#B97B48" points="430.8,198.4 406,198.4 412.1,234.6 			"/>
			<polygon fill="#BA562B" points="406,198.4 398.1,234.6 412.1,234.6 			"/>
			<polygon fill="#C23E18" points="406,198.4 398.1,197.6 398.1,234.6 			"/>
			<polygon fill="#C15619" points="406,198.4 398.1,161.9 398.1,197.6 			"/>
			<polygon fill="#BA562B" points="430.8,198.4 424.5,171.8 406,198.4 			"/>
			<polygon fill="#8F7C48" points="470.4,187 453.6,250 436.8,237.8 			"/>
			<polygon fill="#87381D" points="470.4,187 479.5,202.2 453.6,250 			"/>
			<polygon fill="#E0A96F" points="479.5,202.2 577.3,114.7 530.5,178.8 			"/>
			<polygon fill="#737271" points="577.3,114.7 534.9,120 541.7,146.6 			"/>
			<polygon fill="#506081" points="534.9,120 508.6,136.6 541.7,146.6 			"/>
			<polygon fill="#384D52" points="508.6,136.6 518.1,167.6 541.7,146.6 			"/>
			<polygon fill="#47302C" points="508.6,136.6 490.5,152.1 518.1,167.6 			"/>
			<polygon fill="#71381B" points="490.5,152.1 499.8,184 518.1,167.6 			"/>
			<polygon fill="#444B4B" points="490.5,152.1 476.3,165.1 499.8,184 			"/>
			<polygon fill="#68524C" points="476.3,165.1 470.4,187 499.8,184 			"/>
			<polygon fill="#575756" points="499.8,184 479.5,202.2 470.4,187 			"/>
			<polygon fill="#DC9B52" points="577.3,114.7 562.6,206 603,192.7 			"/>
			<polygon fill="#E7BB75" points="562.6,206 586.8,234.6 603,192.7 			"/>
			<polygon fill="#B97B48" points="562.6,206 528.4,198.4 565.9,185.1 			"/>
			<polygon fill="#D89180" points="562.6,206 554.4,236.3 586.8,234.6 			"/>
			<polygon fill="#E0C570" points="586.8,234.6 580.1,259.3 554.4,236.3 			"/>
			<polygon fill="#CD6D42" points="562.6,206 522.9,221.6 554.4,236.3 			"/>
			<polygon fill="#BF944A" points="562.6,206 528.4,198.4 522.9,221.6 			"/>
			<polygon fill="#AFA92B" points="565.9,185.1 530.5,178.8 528.4,198.4 			"/>
			<polygon fill="#BF944A" points="565.9,185.1 570.6,158.5 530.5,178.8 			"/>
			<polygon fill="#E7B953" points="577.3,114.7 570.6,158.5 530.5,178.8 			"/>
			<polygon fill="#D89180" points="528.4,198.4 479.5,202.2 530.5,178.8 			"/>
			<polygon fill="#D4834D" points="528.4,198.4 453.6,250 479.5,202.2 			"/>
			<polygon fill="#CF7150" points="522.9,221.6 453.6,250 513,250 			"/>
			<polygon fill="#CA5C2C" points="513,250 499.8,270.4 453.6,250 			"/>
			<polygon fill="#B97B48" points="554.4,236.3 513,250 522.9,221.6 			"/>
			<polygon fill="#8F7C48" points="554.4,236.3 547.2,263.1 513,250 			"/>
			<polygon fill="#518063" points="547.2,263.1 499.8,270.4 535.9,294.7 			"/>
			<polygon fill="#AF5C25" points="547.2,263.1 513,250 499.8,270.4 			"/>
			<polygon fill="#E7B953" points="580.1,259.3 547.2,263.1 554.4,236.3 			"/>
			<polygon fill="#DC9B52" points="580.1,259.3 556.7,323.8 547.2,263.1 			"/>
			<polygon fill="#D4834D" points="547.2,263.1 535.9,294.7 556.7,323.8 			"/>
			<polygon fill="#68524C" points="458,435.6 481.6,426.4 458.3,411.6 446.6,415.2 			"/>
			<polygon fill="#47302C" points="490.5,404.6 481.6,426.4 458.3,411.6 			"/>
			<polygon fill="#CD6D42" points="528.4,198.4 522.9,221.6 453.6,250 			"/>
			<polygon fill="#87381D" points="492.8,382.8 490.5,344.2 458.6,386.8 			"/>
			<polygon fill="#47302C" points="492.8,382.8 474.3,380.6 458.6,386.8 450.4,398.3 446.6,415.2 456.1,420.4 450.6,414.3 
				458.3,411.6 477.1,412.6 490.5,404.6 			"/>
			<g>
				<path fill="#BA562B" d="M471.4,392.3c-6.9,0-12.7,4.2-14.7,9.9c-0.5-1.4-0.7-2.8-0.7-4.4c0-7.9,6.9-14.3,15.5-14.3
					c8.5,0,15.5,6.4,15.5,14.3c0,1.5-0.3,3-0.7,4.4C484.2,396.5,478.3,392.3,471.4,392.3z"/>
				<path fill="#E6B870" d="M471.4,412.1c-6.9,0-12.7-4.2-14.7-9.9c2-5.8,7.8-9.9,14.7-9.9c6.9,0,12.7,4.2,14.7,9.9
					C484.2,408,478.3,412.1,471.4,412.1z"/>
			</g>
			<g>
				<line fill="#47302C" x1="471.4" y1="387.3" x2="471.4" y2="408.8"/>
				<path fill="#47302C" d="M471.4,387.3c0,0,0.1,0.1,0.3,0.2c0.1,0.2,0.4,0.4,0.6,0.7c0.2,0.3,0.6,0.6,0.8,1.1
					c0.3,0.4,0.6,0.9,0.9,1.4c0.6,1,1.1,2.2,1.4,3.4c0.3,1.3,0.5,2.6,0.5,3.9c0,1.3-0.2,2.7-0.5,3.9c-0.3,1.3-0.8,2.4-1.4,3.4
					c-0.3,0.5-0.6,1-0.9,1.4c-0.3,0.4-0.6,0.8-0.8,1.1c-0.2,0.3-0.5,0.5-0.6,0.7c-0.2,0.2-0.3,0.2-0.3,0.2s-0.1-0.1-0.3-0.2
					c-0.1-0.2-0.4-0.4-0.6-0.7c-0.2-0.3-0.6-0.6-0.8-1.1c-0.3-0.4-0.6-0.9-0.9-1.4c-0.6-1-1.1-2.2-1.4-3.4c-0.3-1.3-0.5-2.6-0.5-3.9
					c0-1.3,0.2-2.7,0.5-3.9c0.3-1.3,0.8-2.4,1.4-3.4c0.3-0.5,0.6-1,0.9-1.4c0.3-0.4,0.6-0.8,0.8-1.1c0.2-0.3,0.5-0.5,0.6-0.7
					C471.3,387.4,471.4,387.3,471.4,387.3z"/>
			</g>
			<path fill="#C23E18" d="M450.4,398.3"/>
			<polygon fill="#C23E18" points="427.8,351 450.4,398.3 431.6,410.7 			"/>
			<polygon fill="#91451D" points="446.6,415.2 431.6,410.7 450.4,398.3 			"/>
			<polygon fill="#87381D" points="456.1,420.4 458,435.6 431.6,410.7 446.6,415.2 			"/>
			<polygon fill="#47302C" points="490.5,404.6 527.4,396.9 492.8,382.8 			"/>
			<polygon fill="#C23E18" points="490.5,344.2 458.6,368.7 458.6,386.8 			"/>
			<polygon fill="#87381D" points="458.6,368.7 447,351.7 444,384.8 			"/>
			<polygon fill="#71381B" points="458.6,368.7 465.5,334.8 447,351.7 			"/>
			<polygon fill="#C25B19" points="447,351.7 427.8,351 444,384.8 			"/>
			<polygon fill="#C14A18" points="490.5,344.2 465.5,334.8 458.6,368.7 			"/>
			<polygon fill="#AE4817" points="492.8,382.8 523.8,362.1 491.3,357.4 			"/>
			<polygon fill="#C15619" points="523.8,362.1 490.5,344.2 491.3,357.4 			"/>
			<polygon fill="#91451D" points="527.4,396.9 531.7,380.6 492.8,382.8 			"/>
			<polygon fill="#C15619" points="523.8,362.1 531.7,380.6 492.8,382.8 			"/>
			<polygon fill="#91451D" points="481.6,426.4 474.5,449.8 458,435.6 			"/>
			<polygon fill="#87381D" points="527.4,396.9 513.6,423.6 490.5,404.6 			"/>
			<polygon fill="#91451D" points="490.5,404.6 481.6,426.4 513.6,423.6 			"/>
			<polygon fill="#C15619" points="513.6,423.6 517.7,464.9 481.6,426.4 			"/>
			<polygon fill="#A64219" points="481.6,426.4 474.5,449.8 517.7,464.9 			"/>
			<polygon fill="#D78C1D" points="481.6,471.5 517.7,475.8 546.8,459.4 			"/>
			<polygon fill="#E7BB75" points="481.6,471.5 462.2,502.5 517.7,475.8 			"/>
			<polygon fill="#F1D78F" points="517.7,475.8 514.2,499.5 462.2,502.5 			"/>
			<polygon fill="#D1D2D4" points="462.2,502.5 467.4,532.3 514.2,499.5 			"/>
			<polygon fill="#D89180" points="546.8,459.4 559.7,493.1 514.2,499.5 			"/>
			<polygon fill="#D1BA2D" points="546.8,459.4 514.2,499.5 517.7,475.8 			"/>
			<polygon fill="#E7B953" points="429.4,544.7 435.5,468.6 444.8,517.8 			"/>
			<polygon fill="#E0C570" points="430.7,528.1 411.7,508.9 435.5,468.6 			"/>
			<polygon fill="#E9C39D" points="411.7,508.9 398.1,508.9 398.1,473.7 			"/>
			<polygon fill="#DC9B52" points="435.5,468.6 398.1,473.7 411.7,508.9 			"/>
			<polygon fill="#F9F0AF" points="467.4,532.3 444.8,517.8 429.4,544.7 			"/>
			<polygon fill="#DFECDD" points="467.4,532.3 462.2,558.7 429.4,544.7 			"/>
			<polygon fill="#E8E9EA" points="429.4,544.7 439.7,569.7 462.2,558.7 			"/>
			<polygon fill="#D1D2D4" points="429.4,544.7 417.3,553.8 439.7,569.7 			"/>
			<polygon fill="#B0D3D7" points="417.3,553.8 404.9,558.7 417.1,571.8 			"/>
			<polygon fill="#CCD1E3" points="417.3,553.8 417.1,571.8 439.7,569.7 			"/>
			<polygon fill="#CCD1E3" points="404.9,558.7 398.1,561.8 398.1,571.8 417.1,571.8 			"/>
			<polygon fill="#C2C2C6" points="439.7,569.7 416.8,584.1 417.1,571.8 			"/>
			<polygon fill="#B6BACB" points="416.8,584.1 398.1,587 398.1,571.8 417.1,571.8 			"/>
			<polygon fill="#002F3F" points="412.5,531.3 417.1,539.9 404.9,558.7 			"/>
			<polygon fill="#384D52" points="417.1,539.9 429.4,544.7 417.3,553.8 			"/>
			<polygon fill="#3E3855" points="417.1,539.9 430.7,528.1 429.4,544.7 			"/>
			<polygon fill="#68524C" points="417.1,539.9 411.7,508.9 430.7,528.1 			"/>
			<polygon fill="#71381B" points="411.7,508.9 412.5,531.3 417.1,539.9 			"/>
			<polygon fill="#506081" points="412.5,531.3 398.1,508.9 411.7,508.9 			"/>
			<polygon fill="#613860" points="404.9,558.7 417.1,539.9 417.3,553.8 			"/>
			<polygon fill="#3E3855" points="412.5,531.3 398.1,508.9 404.9,558.7 			"/>
			<polygon fill="#384D52" points="404.9,558.7 398.1,561.8 398.1,508.9 			"/>
			<polygon fill="#C2C2C6" points="462.2,558.7 471.1,578.9 439.7,569.7 			"/>
			<polygon fill="#9FADB2" points="439.7,569.7 466.8,601 471.1,578.9 			"/>
			<polygon fill="#B6BACB" points="439.7,569.7 439.7,594 466.8,601 			"/>
			<polygon fill="#B4A3BB" points="439.7,569.7 416.8,584.1 439.7,594 			"/>
			<polygon fill="#B6BACB" points="416.8,584.1 429.4,622.2 439.7,594 			"/>
			<polygon fill="#7BAA98" points="416.8,584.1 398.1,622.4 398.1,587 			"/>
			<polygon fill="#96BEE5" points="424.6,607.6 398.1,622.4 416.8,584.1 			"/>
			<polygon fill="#D27B60" points="462.2,502.5 435.5,468.6 444.8,517.8 			"/>
			<polygon fill="#D89180" points="462.2,502.5 467.4,532.3 444.8,517.8 			"/>
			<polygon fill="#D4834D" points="462.2,502.5 481.6,471.5 435.5,468.6 			"/>
			<polygon fill="#D1BA2D" points="435.5,468.6 398.1,451.4 398.1,473.7 			"/>
			<polygon fill="#CF7150" points="431.6,410.7 414.4,431.7 435.5,468.6 			"/>
			<polygon fill="#CE6D33" points="431.6,410.7 458,435.6 435.5,468.6 			"/>
			<polygon fill="#D78C1D" points="431.6,410.7 406.8,406.7 398.1,451.4 			"/>
			<polygon fill="#CE6D33" points="406.8,406.7 398.1,406.7 398.1,382.8 			"/>
			<polygon fill="#CD6D42" points="406.8,406.7 414.4,382.8 431.6,410.7 			"/>
			<polygon fill="#BA562B" points="414.4,382.8 427.8,351 431.6,410.7 			"/>
			<polygon fill="#D1762A" points="406.8,406.7 398.1,451.4 398.1,406.7 			"/>
			<polygon fill="#D4834D" points="414.8,431.1 435.5,468.6 398.1,451.4 			"/>
			<polygon fill="#C95933" points="474.5,449.8 435.5,468.6 458,435.6 			"/>
			<polygon fill="#CA5C2C" points="474.5,449.8 481.6,471.5 435.5,468.6 			"/>
			<polygon fill="#C95933" points="517.7,464.9 481.6,471.5 474.5,449.8 			"/>
			<polygon fill="#AE4817" points="458.6,368.7 458.6,386.8 450.4,398.3 444,384.8 			"/>
			<polygon fill="#CE8F82" points="580.1,259.3 592.7,282.5 556.7,323.8 			"/>
			<polygon fill="#C18474" points="592.7,282.5 588.2,311.8 556.7,323.8 			"/>
			<polygon fill="#D27B60" points="588.2,311.8 563.6,343.1 556.7,323.8 			"/>
			<polygon fill="#CD6D42" points="588.2,311.8 600.6,340 563.6,343.1 			"/>
			<polygon fill="#D4834D" points="600.6,340 574.7,363.2 563.6,343.1 			"/>
			<polygon fill="#CF7150" points="600.6,340 612,362.1 574.7,363.2 			"/>
			<polygon fill="#DE9F31" points="612,362.1 589,386.9 574.7,363.2 			"/>
			<polygon fill="#E7B953" points="612,362.1 630.3,400.5 589,386.9 			"/>
			<polygon fill="#D1BA2D" points="615.6,395.7 589,408.8 589,386.9 			"/>
			<polygon fill="#CE6D33" points="556.7,323.8 535.9,294.7 490.5,344.2 			"/>
			<polygon fill="#D78C1D" points="535.9,294.7 499.8,270.4 490.5,344.2 			"/>
			<polygon fill="#BF944A" points="499.8,270.4 465.5,334.8 490.5,344.2 			"/>
			<polygon fill="#AFA92B" points="499.8,270.4 444.5,296.1 465.5,334.8 			"/>
			<polygon fill="#D78C1D" points="499.8,270.4 453.6,250 444.5,296.1 			"/>
			<polygon fill="#CF7150" points="444.5,296.1 447,351.7 465.5,334.8 			"/>
			<polygon fill="#C95933" points="444.5,296.1 427.8,351 447,351.7 			"/>
			<polygon fill="#D1762A" points="444.5,296.1 398.1,329.8 427.8,351 			"/>
			<polygon fill="#CA5C2C" points="444.5,296.1 398.1,286.7 398.1,329.8 			"/>
			<polygon fill="#CA5C2C" points="436.8,237.8 444.5,296.1 453.6,250 			"/>
			<polygon fill="#CE6D33" points="436.8,237.8 398.1,286.7 444.5,296.1 			"/>
			<polygon fill="#D78C1D" points="427.8,351 398.1,382.8 414.4,382.8 			"/>
			<polygon fill="#D1762A" points="414.4,382.8 398.1,382.8 406.8,406.7 			"/>
			<polygon fill="#D27C3E" points="427.8,351 398.1,329.8 398.1,382.8 			"/>
			<polygon fill="#D27C3E" points="436.8,237.8 412.1,234.6 398.1,286.7 			"/>
			<polygon fill="#D9913D" points="412.1,234.6 398.1,234.6 398.1,286.7 			"/>
			<polygon fill="#87381D" points="527.4,396.9 550,408.8 535.9,423.1 			"/>
			<polygon fill="#A64219" points="550,408.8 559.7,444.2 535.9,423.1 			"/>
			<polygon fill="#C25B19" points="559.7,444.2 546.8,459.4 602.3,491.3 			"/>
			<polygon fill="#D78C1D" points="582.1,469 588.2,434.5 559.7,444.2 			"/>
			<polygon fill="#CA5C2C" points="588.2,434.5 550,408.8 559.7,444.2 			"/>
			<polygon fill="#C15619" points="535.9,423.1 513.6,423.6 527.4,396.9 			"/>
			<polygon fill="#CE6D33" points="535.9,423.1 546.8,459.4 513.6,423.6 			"/>
			<polygon fill="#C95933" points="535.9,423.1 559.7,444.2 546.8,459.4 			"/>
			<polygon fill="#CC6633" points="513.6,423.6 517.7,464.9 546.8,459.4 			"/>
			<polygon fill="#CD6D42" points="559.7,493.1 576.8,476.7 546.8,459.4 			"/>
			<polygon fill="#D27B60" points="576.8,476.7 589,500.6 559.7,493.1 			"/>
			<polygon fill="#D27B60" points="589,386.9 550,408.8 589,408.8 			"/>
			<polygon fill="#CD6D42" points="589,408.8 588.2,434.5 550,408.8 			"/>
			<polygon fill="#B97B48" points="589,386.9 527.4,396.9 550,408.8 			"/>
			<polygon fill="#8F7C48" points="589,386.9 531.7,380.6 527.4,396.9 			"/>
			<polygon fill="#A97C48" points="523.8,362.1 589,386.9 531.7,380.6 			"/>
			<polygon fill="#BF944A" points="523.8,362.1 574.7,363.2 589,386.9 			"/>
			<polygon fill="#D88E37" points="523.8,362.1 563.6,343.1 574.7,363.2 			"/>
			<polygon fill="#D88C28" points="556.7,323.8 523.8,362.1 563.6,343.1 			"/>
			<polygon fill="#CF7150" points="556.7,323.8 490.5,344.2 523.8,362.1 			"/>
			<polygon fill="#E0C570" points="589,408.8 640.3,430.7 615.6,395.7 			"/>
			<polygon fill="#E7B953" points="588.2,434.5 619.1,421.6 645.4,455.2 			"/>
			<polygon fill="#D1BA2D" points="588.2,434.5 624.9,447.8 582.1,469 			"/>
			<polygon fill="#E0A96F" points="624.9,447.8 638.7,479.5 603.5,458.4 			"/>
			<polygon fill="#DC9B52" points="603.5,458.4 582.1,469 614.7,489.2 			"/>
			<polygon fill="#D4834D" points="619.1,421.6 589,408.8 588.2,434.5 			"/>
			<polygon fill="#C2C2C6" points="514.2,499.5 533.4,514.2 559.7,493.1 			"/>
			<polygon fill="#B0D3D7" points="514.2,499.5 467.4,532.3 533.4,514.2 			"/>
			<polygon fill="#CCD1E3" points="533.4,514.2 535.9,539.9 467.4,532.3 			"/>
			<polygon fill="#C2C2C6" points="467.4,532.3 517.7,560.3 516.5,537.8 			"/>
			<polygon fill="#B6BACB" points="467.4,532.3 508.9,576.9 501.7,551.3 			"/>
			<polygon fill="#B4A3BB" points="508.9,576.9 462.2,558.7 467.4,532.3 			"/>
			<polygon fill="#7BAA98" points="462.2,558.7 471.1,578.9 489.4,569.3 			"/>
		</g>
	</g>
	<g>
		<defs>
			<path id="SVGID_1_" d="M290.7,350c8.2-1.2,16.4-0.4,24.7-0.7c6.3,0.2,12.6-0.6,18.8,0.7c2.6,0.3,5.3-0.1,7.8,0.9
				c4.1,0.2,8,1.8,11.9,3.1c10.8,2.4,21.5,5.1,32.5,6.1c9,0.3,18,0.3,27.1-0.2c9.5-1.8,19-3.5,28.3-5.9c5.8-1.7,11.6-3.7,17.8-3.8
				c3.2,0.1,6.4-1,9.6-0.9c9.6,0,19.2,0,28.9,0c11.2,1,22.5,1.4,33.7,3c8.8,0.8,17.5,2.6,26.3,3.4c0.2,7.4,0,14.8,0.1,22.1
				c-3.8,1.6-8.3,3.3-9.7,7.6c-0.4,4.7,0.3,9.4-0.7,14c-0.4,10.7-2.6,21.4-6.8,31.2c-2,4.3-4.6,8.5-7.7,12.2
				c-8.3,9-20.4,13.6-32.3,15.4c-5.1,1.2-10.4,0.5-15.6,0.7c-8.1,0.4-16-1.5-23.8-3.3c-7.6-2.1-15.2-4.8-21.4-9.9
				c-8.8-7.3-15.9-16.6-21.2-26.7c-0.2-1.5-0.8-2.9-2.2-3.8c-0.6-3.3-2.3-6.3-3.3-9.5c-2.3-6.1-2.7-13-6.7-18.4
				c-2-1.6-4.2-2.8-6.4-3.9c-4.5-0.2-9.8,1.4-11.9,5.7c-2.8,4.4-3.4,9.6-4.9,14.5c-1.2,2.3-1.7,4.8-2.3,7.3
				c-6.7,15-16.4,29.4-30.3,38.5c-10.7,5.5-22.6,8.6-34.6,9.6c-10,0.1-20.1,0.5-29.7-2.5c-10.4-2.8-20.3-8.5-26.5-17.4
				c-1.9-2.6-3.1-5.6-4.7-8.4c-0.9-2.1-1.7-4.2-2.3-6.4c-3.6-9.9-4.5-20.5-5.1-31c-0.3-3.2,0.8-6.9-1-9.8c-1.1-2.3-3.7-3.1-5.6-4.4
				c-1-0.5-2.1-1-3.1-1.5c0.1-7.3-0.2-14.6,0.2-21.9C255.7,353.5,273.1,350.8,290.7,350z M465.3,358.9c-11.4,1.3-23.1,3.8-32.9,10.1
				c-3.2,2.3-6.4,5.1-7.4,9c-1.9,6.3-1.1,13-0.5,19.4c2.1,12.3,6.9,24.2,14.3,34.3c4.3,5.5,10.2,9.4,16.3,12.7
				c10.6,4.8,22.2,7.2,33.8,7.4c6.9-0.4,13.8-1.5,20.3-3.8c7-2.9,13.6-7.5,17.3-14.3c3.7-7.1,5.7-15,7.1-22.8
				c0.6-6.7,2.1-13.5,0.4-20.2c-0.4-6.4-2-12.6-4-18.6c-1.6-4.4-6-6.7-10.1-8.3c-7.4-2.8-15.3-4.3-23.2-4.9
				c-6.2-1.2-12.6-0.4-18.8-1.4C474,358.9,469.5,357.7,465.3,358.9z M285.8,361c-6.7,1.5-13.7,3.5-18.6,8.5
				c-4,8.9-5.1,18.7-5.9,28.3c0.3,10.8,2.3,21.6,6.3,31.7c3.2,8.7,10.8,15,19.3,18.5c6.8,2.5,14,3.3,21.2,3.8
				c3.4,0.3,6.7-0.8,10.1-1c7.3-0.7,14.2-3.1,21-5.6c5.1-2.9,10.5-5.6,14.6-9.9c4.8-4.2,7.5-10.1,10.8-15.5
				c2.3-6.9,6.4-13.3,6.7-20.7c1.1-2.1,0.6-4.5,0.8-6.8c0.1-6,0.9-12.6-2.6-18c-3.8-5.3-10-8.1-15.8-10.6
				c-7.2-2.3-14.7-4.1-22.3-4.9c-9.2-1.5-18.6-0.8-28-0.6C297.5,359.3,291.6,359.5,285.8,361z"/>
		</defs>
		<clipPath id="SVGID_2_">
			<use xlink:href="#SVGID_1_"  overflow="visible"/>
		</clipPath>
		<g clip-path="url(#SVGID_2_)">
			<g>
				<polygon fill="#6AAED1" points="321.4,182.5 333.7,174.3 315.6,160.6 				"/>
				<polygon fill="#44A6C8" points="321.4,182.5 355.1,233.3 333.7,174.3 				"/>
				<polygon fill="#439CC3" points="333.7,174.3 361.1,193.8 355.1,233.3 				"/>
				<polygon fill="#3597C1" points="361.1,193.8 379.7,230 355.1,233.3 				"/>
				<polygon fill="#437CAB" points="361.1,193.8 385.9,193.8 379.7,230 				"/>
				<polygon fill="#439CC3" points="385.9,193.8 393.7,230 379.7,230 				"/>
				<polygon fill="#44A6C8" points="385.9,193.8 393.7,193 393.7,230 				"/>
				<polygon fill="#3F9BD1" points="385.9,193.8 393.7,157.4 393.7,193 				"/>
				<polygon fill="#439CC3" points="361.1,193.8 367.4,167.3 385.9,193.8 				"/>
				<polygon fill="#6B7DAD" points="321.4,182.5 338.2,245.4 355.1,233.3 				"/>
				<polygon fill="#74B6CF" points="321.4,182.5 312.4,197.6 338.2,245.4 				"/>
				<polygon fill="#1E5288" points="312.4,197.6 214.5,110.2 261.3,174.3 				"/>
				<polygon fill="#8C8D8E" points="214.5,110.2 256.9,115.4 250.2,142 				"/>
				<polygon fill="#AB9D7C" points="256.9,115.4 283.2,132 250.2,142 				"/>
				<polygon fill="#C4B0AB" points="283.2,132 273.7,163.1 250.2,142 				"/>
				<polygon fill="#B4CBCE" points="283.2,132 301.3,147.5 273.7,163.1 				"/>
				<polygon fill="#89BED7" points="301.3,147.5 292,179.4 273.7,163.1 				"/>
				<polygon fill="#BAB4B3" points="301.3,147.5 315.6,160.6 292,179.4 				"/>
				<polygon fill="#93A9AE" points="315.6,160.6 321.4,182.5 292,179.4 				"/>
				<polygon fill="#A8A8A9" points="292,179.4 312.4,197.6 321.4,182.5 				"/>
				<polygon fill="#245E9F" points="214.5,110.2 229.3,201.4 188.8,188.2 				"/>
				<polygon fill="#174182" points="229.3,201.4 205.1,230 188.8,188.2 				"/>
				<polygon fill="#437CAB" points="229.3,201.4 263.4,193.8 225.9,180.6 				"/>
				<polygon fill="#266979" points="229.3,201.4 237.4,231.7 205.1,230 				"/>
				<polygon fill="#1D3886" points="205.1,230 211.8,254.8 237.4,231.7 				"/>
				<polygon fill="#3288AF" points="229.3,201.4 269,217.1 237.4,231.7 				"/>
				<polygon fill="#3D65A8" points="229.3,201.4 263.4,193.8 269,217.1 				"/>
				<polygon fill="#4A5098" points="225.9,180.6 261.3,174.3 263.4,193.8 				"/>
				<polygon fill="#3D65A8" points="225.9,180.6 221.2,153.9 261.3,174.3 				"/>
				<polygon fill="#224692" points="214.5,110.2 221.2,153.9 261.3,174.3 				"/>
				<polygon fill="#266979" points="263.4,193.8 312.4,197.6 261.3,174.3 				"/>
				<polygon fill="#2B74A5" points="263.4,193.8 338.2,245.4 312.4,197.6 				"/>
				<polygon fill="#2F85A3" points="269,217.1 338.2,245.4 278.8,245.4 				"/>
				<polygon fill="#3597C1" points="278.8,245.4 292,265.9 338.2,245.4 				"/>
				<polygon fill="#437CAB" points="237.4,231.7 278.8,245.4 269,217.1 				"/>
				<polygon fill="#6B7DAD" points="237.4,231.7 244.7,258.6 278.8,245.4 				"/>
				<polygon fill="#A77C97" points="244.7,258.6 292,265.9 255.9,290.2 				"/>
				<polygon fill="#4E97C7" points="244.7,258.6 278.8,245.4 292,265.9 				"/>
				<polygon fill="#224692" points="211.8,254.8 244.7,258.6 237.4,231.7 				"/>
				<polygon fill="#245E9F" points="211.8,254.8 235.1,319.2 244.7,258.6 				"/>
				<polygon fill="#2B74A5" points="244.7,258.6 255.9,290.2 235.1,319.2 				"/>
				<polygon fill="#93A9AE" points="333.8,431 310.2,421.9 333.6,407 345.2,410.6 				"/>
				<polygon fill="#B4CBCE" points="301.3,400 310.2,421.9 333.6,407 				"/>
				<polygon fill="#3288AF" points="263.4,193.8 269,217.1 338.2,245.4 				"/>
				<polygon fill="#74B6CF" points="299,378.2 301.3,339.6 333.3,382.2 				"/>
				<polygon fill="#B4CBCE" points="299,378.2 317.5,376.1 333.3,382.2 341.4,393.7 345.2,410.6 335.7,415.9 341.2,409.8 333.6,407 
					314.8,408 301.3,400 				"/>
				<g>
					<path fill="#439CC3" d="M320.4,387.7c6.9,0,12.7,4.2,14.7,9.9c0.5-1.4,0.7-2.8,0.7-4.4c0-7.9-6.9-14.3-15.5-14.3
						c-8.5,0-15.5,6.4-15.5,14.3c0,1.5,0.3,3,0.7,4.4C307.7,391.9,313.5,387.7,320.4,387.7z"/>
					<path fill="#184486" d="M320.4,407.6c6.9,0,12.7-4.2,14.7-9.9c-2-5.8-7.8-9.9-14.7-9.9c-6.9,0-12.7,4.2-14.7,9.9
						C307.7,403.4,313.5,407.6,320.4,407.6z"/>
				</g>
				<g>
					<line fill="#B4CBCE" x1="320.4" y1="382.8" x2="320.4" y2="404.2"/>
					<path fill="#B4CBCE" d="M320.4,382.8c0,0,0.1,0.1,0.3,0.2c0.1,0.2,0.4,0.4,0.6,0.7c0.2,0.3,0.6,0.6,0.8,1.1
						c0.3,0.4,0.6,0.9,0.9,1.4c0.6,1,1.1,2.2,1.4,3.4c0.3,1.3,0.5,2.6,0.5,3.9c0,1.3-0.2,2.7-0.5,3.9c-0.3,1.3-0.8,2.4-1.4,3.4
						c-0.3,0.5-0.6,1-0.9,1.4c-0.3,0.4-0.6,0.8-0.8,1.1c-0.2,0.3-0.5,0.5-0.6,0.7c-0.2,0.2-0.3,0.2-0.3,0.2s-0.1-0.1-0.3-0.2
						c-0.1-0.2-0.4-0.4-0.6-0.7c-0.2-0.3-0.6-0.6-0.8-1.1c-0.3-0.4-0.6-0.9-0.9-1.4c-0.6-1-1.1-2.2-1.4-3.4
						c-0.3-1.3-0.5-2.6-0.5-3.9c0-1.3,0.2-2.7,0.5-3.9c0.3-1.3,0.8-2.4,1.4-3.4c0.3-0.5,0.6-1,0.9-1.4c0.3-0.4,0.6-0.8,0.8-1.1
						c0.2-0.3,0.5-0.5,0.6-0.7C320.3,382.9,320.4,382.8,320.4,382.8z"/>
				</g>
				<path fill="#44A6C8" d="M341.4,393.7"/>
				<polygon fill="#44A6C8" points="364,346.4 341.4,393.7 360.3,406.1 				"/>
				<polygon fill="#6AAED1" points="345.2,410.6 360.3,406.1 341.4,393.7 				"/>
				<polygon fill="#74B6CF" points="335.7,415.9 333.8,431 360.3,406.1 345.2,410.6 				"/>
				<polygon fill="#B4CBCE" points="301.3,400 264.5,392.3 299,378.2 				"/>
				<polygon fill="#44A6C8" points="301.3,339.6 333.3,364.1 333.3,382.2 				"/>
				<polygon fill="#74B6CF" points="333.3,364.1 344.8,347.1 347.9,380.2 				"/>
				<polygon fill="#89BED7" points="333.3,364.1 326.4,330.2 344.8,347.1 				"/>
				<polygon fill="#3E97D2" points="344.8,347.1 364,346.4 347.9,380.2 				"/>
				<polygon fill="#41A6D1" points="301.3,339.6 326.4,330.2 333.3,364.1 				"/>
				<polygon fill="#50AAD4" points="299,378.2 268,357.5 300.5,352.8 				"/>
				<polygon fill="#3F9BD1" points="268,357.5 301.3,339.6 300.5,352.8 				"/>
				<polygon fill="#6AAED1" points="264.5,392.3 260.1,376.1 299,378.2 				"/>
				<polygon fill="#3F9BD1" points="268,357.5 260.1,376.1 299,378.2 				"/>
				<polygon fill="#6AAED1" points="310.2,421.9 317.3,445.3 333.8,431 				"/>
				<polygon fill="#74B6CF" points="264.5,392.3 278.3,419 301.3,400 				"/>
				<polygon fill="#6AAED1" points="301.3,400 310.2,421.9 278.3,419 				"/>
				<polygon fill="#3F9BD1" points="278.3,419 274.1,460.3 310.2,421.9 				"/>
				<polygon fill="#57ACD0" points="310.2,421.9 317.3,445.3 274.1,460.3 				"/>
				<polygon fill="#3966A9" points="310.2,466.9 274.1,471.3 245,454.9 				"/>
				<polygon fill="#174182" points="310.2,466.9 329.6,498 274.1,471.3 				"/>
				<polygon fill="#07266B" points="274.1,471.3 277.6,494.9 329.6,498 				"/>
				<polygon fill="#2E2C2A" points="329.6,498 324.4,527.7 277.6,494.9 				"/>
				<polygon fill="#266979" points="245,454.9 232.1,488.6 277.6,494.9 				"/>
				<polygon fill="#394994" points="245,454.9 277.6,494.9 274.1,471.3 				"/>
				<polygon fill="#224692" points="362.5,540.2 356.3,464.1 347,513.3 				"/>
				<polygon fill="#1D3886" points="361.1,523.6 380.2,504.3 356.3,464.1 				"/>
				<polygon fill="#133B5E" points="380.2,504.3 393.7,504.3 393.7,469.1 				"/>
				<polygon fill="#245E9F" points="356.3,464.1 393.7,469.1 380.2,504.3 				"/>
				<polygon fill="#0C1D4E" points="324.4,527.7 347,513.3 362.5,540.2 				"/>
				<polygon fill="#1E1221" points="324.4,527.7 329.6,554.2 362.5,540.2 				"/>
				<polygon fill="#161514" points="362.5,540.2 352.2,565.1 329.6,554.2 				"/>
				<polygon fill="#2E2C2A" points="362.5,540.2 374.5,549.3 352.2,565.1 				"/>
				<polygon fill="#4E2B27" points="374.5,549.3 386.9,554.2 374.7,567.3 				"/>
				<polygon fill="#322E1A" points="374.5,549.3 374.7,567.3 352.2,565.1 				"/>
				<polygon fill="#322E1A" points="386.9,554.2 393.7,557.2 393.7,567.3 374.7,567.3 				"/>
				<polygon fill="#3D3C38" points="352.2,565.1 375,579.5 374.7,567.3 				"/>
				<polygon fill="#484434" points="375,579.5 393.7,582.5 393.7,567.3 374.7,567.3 				"/>
				<polygon fill="#EAC7BE" points="379.3,526.7 374.7,535.4 386.9,554.2 				"/>
				<polygon fill="#C4B0AB" points="374.7,535.4 362.5,540.2 374.5,549.3 				"/>
				<polygon fill="#BEC4A8" points="374.7,535.4 361.1,523.6 362.5,540.2 				"/>
				<polygon fill="#93A9AE" points="374.7,535.4 380.2,504.3 361.1,523.6 				"/>
				<polygon fill="#89BED7" points="380.2,504.3 379.3,526.7 374.7,535.4 				"/>
				<polygon fill="#AB9D7C" points="379.3,526.7 393.7,504.3 380.2,504.3 				"/>
				<polygon fill="#99C09A" points="386.9,554.2 374.7,535.4 374.5,549.3 				"/>
				<polygon fill="#BEC4A8" points="379.3,526.7 393.7,504.3 386.9,554.2 				"/>
				<polygon fill="#C4B0AB" points="386.9,554.2 393.7,557.2 393.7,504.3 				"/>
				<polygon fill="#3D3C38" points="329.6,554.2 320.7,574.3 352.2,565.1 				"/>
				<polygon fill="#5F524C" points="352.2,565.1 325.1,596.4 320.7,574.3 				"/>
				<polygon fill="#484434" points="352.2,565.1 352.2,589.4 325.1,596.4 				"/>
				<polygon fill="#4A5B43" points="352.2,565.1 375,579.5 352.2,589.4 				"/>
				<polygon fill="#484434" points="375,579.5 362.5,617.6 352.2,589.4 				"/>
				<polygon fill="#805264" points="375,579.5 393.7,617.8 393.7,582.5 				"/>
				<polygon fill="#67401B" points="366.8,604.6 393.7,617.8 375,579.5 				"/>
				<polygon fill="#2D7C95" points="329.6,498 356.3,464.1 347,513.3 				"/>
				<polygon fill="#266979" points="329.6,498 324.4,527.7 347,513.3 				"/>
				<polygon fill="#2B74A5" points="329.6,498 310.2,466.9 356.3,464.1 				"/>
				<polygon fill="#394994" points="356.3,464.1 393.7,446.8 393.7,469.1 				"/>
				<polygon fill="#2F85A3" points="360.3,406.1 377.5,427.1 356.3,464.1 				"/>
				<polygon fill="#3288BA" points="360.3,406.1 333.8,431 356.3,464.1 				"/>
				<polygon fill="#3966A9" points="360.3,406.1 385,402.2 393.7,446.8 				"/>
				<polygon fill="#3288BA" points="385,402.2 393.7,402.2 393.7,378.2 				"/>
				<polygon fill="#3288AF" points="385,402.2 377.5,378.2 360.3,406.1 				"/>
				<polygon fill="#439CC3" points="377.5,378.2 364,346.4 360.3,406.1 				"/>
				<polygon fill="#317FBF" points="385,402.2 393.7,446.8 393.7,402.2 				"/>
				<polygon fill="#2B74A5" points="377,426.6 356.3,464.1 393.7,446.8 				"/>
				<polygon fill="#3799BB" points="317.3,445.3 356.3,464.1 333.8,431 				"/>
				<polygon fill="#3597C1" points="317.3,445.3 310.2,466.9 356.3,464.1 				"/>
				<polygon fill="#3799BB" points="274.1,460.4 310.2,466.9 317.3,445.3 				"/>
				<polygon fill="#50AAD4" points="333.3,364.1 333.3,382.2 341.4,393.7 347.9,380.2 				"/>
				<polygon fill="#306B77" points="211.8,254.8 199.1,278 235.1,319.2 				"/>
				<polygon fill="#3C7684" points="199.1,278 203.7,307.3 235.1,319.2 				"/>
				<polygon fill="#2D7C95" points="203.7,307.3 228.2,338.5 235.1,319.2 				"/>
				<polygon fill="#3288AF" points="203.7,307.3 191.2,335.5 228.2,338.5 				"/>
				<polygon fill="#2B74A5" points="191.2,335.5 217.1,358.7 228.2,338.5 				"/>
				<polygon fill="#2F85A3" points="191.2,335.5 179.8,357.5 217.1,358.7 				"/>
				<polygon fill="#335AA0" points="179.8,357.5 202.8,382.4 217.1,358.7 				"/>
				<polygon fill="#224692" points="179.8,357.5 161.5,396 202.8,382.4 				"/>
				<polygon fill="#394994" points="176.2,391.1 202.8,404.2 202.8,382.4 				"/>
				<polygon fill="#3288BA" points="235.1,319.2 255.9,290.2 301.3,339.6 				"/>
				<polygon fill="#3966A9" points="255.9,290.2 292,265.9 301.3,339.6 				"/>
				<polygon fill="#3D65A8" points="292,265.9 326.4,330.2 301.3,339.6 				"/>
				<polygon fill="#4A5098" points="292,265.9 347.4,291.5 326.4,330.2 				"/>
				<polygon fill="#3966A9" points="292,265.9 338.2,245.4 347.4,291.5 				"/>
				<polygon fill="#2F85A3" points="347.4,291.5 344.8,347.1 326.4,330.2 				"/>
				<polygon fill="#3799BB" points="347.4,291.5 364,346.4 344.8,347.1 				"/>
				<polygon fill="#317FBF" points="347.4,291.5 393.7,325.2 364,346.4 				"/>
				<polygon fill="#3597C1" points="347.4,291.5 393.7,282.1 393.7,325.2 				"/>
				<polygon fill="#3597C1" points="355.1,233.3 347.4,291.5 338.2,245.4 				"/>
				<polygon fill="#3288BA" points="355.1,233.3 393.7,282.1 347.4,291.5 				"/>
				<polygon fill="#3966A9" points="364,346.4 393.7,378.2 377.5,378.2 				"/>
				<polygon fill="#317FBF" points="377.5,378.2 393.7,378.2 385,402.2 				"/>
				<polygon fill="#2D7AB2" points="364,346.4 393.7,325.2 393.7,378.2 				"/>
				<polygon fill="#2D7AB2" points="355.1,233.3 379.7,230 393.7,282.1 				"/>
				<polygon fill="#2B66AA" points="379.7,230 393.7,230 393.7,282.1 				"/>
				<polygon fill="#74B6CF" points="264.5,392.3 241.8,404.2 255.9,418.6 				"/>
				<polygon fill="#57ACD0" points="241.8,404.2 232.1,439.7 255.9,418.6 				"/>
				<polygon fill="#3E97D2" points="232.1,439.7 245,454.9 189.5,486.7 				"/>
				<polygon fill="#3966A9" points="209.7,464.4 203.7,430 232.1,439.7 				"/>
				<polygon fill="#3597C1" points="203.7,430 241.8,404.2 232.1,439.7 				"/>
				<polygon fill="#3F9BD1" points="255.9,418.6 278.3,419 264.5,392.3 				"/>
				<polygon fill="#3288BA" points="255.9,418.6 245,454.9 278.3,419 				"/>
				<polygon fill="#3799BB" points="255.9,418.6 232.1,439.7 245,454.9 				"/>
				<polygon fill="#348EBB" points="278.3,419 274.1,460.4 245,454.9 				"/>
				<polygon fill="#3288AF" points="232.1,488.6 215,472.1 245,454.9 				"/>
				<polygon fill="#2D7C95" points="215,472.1 202.8,496 232.1,488.6 				"/>
				<polygon fill="#2D7C95" points="202.8,382.4 241.8,404.2 202.8,404.2 				"/>
				<polygon fill="#3288AF" points="202.8,404.2 203.7,430 241.8,404.2 				"/>
				<polygon fill="#437CAB" points="202.8,382.4 264.5,392.3 241.8,404.2 				"/>
				<polygon fill="#6B7DAD" points="202.8,382.4 260.1,376.1 264.5,392.3 				"/>
				<polygon fill="#537CAB" points="268,357.5 202.8,382.4 260.1,376.1 				"/>
				<polygon fill="#3D65A8" points="268,357.5 217.1,358.7 202.8,382.4 				"/>
				<polygon fill="#2E68AC" points="268,357.5 228.2,338.5 217.1,358.7 				"/>
				<polygon fill="#3568AB" points="235.1,319.2 268,357.5 228.2,338.5 				"/>
				<polygon fill="#2F85A3" points="235.1,319.2 301.3,339.6 268,357.5 				"/>
				<polygon fill="#1D3886" points="202.8,404.2 151.5,426.1 176.2,391.1 				"/>
				<polygon fill="#224692" points="203.7,430 172.7,417.1 146.5,450.6 				"/>
				<polygon fill="#394994" points="203.7,430 166.9,443.2 209.7,464.4 				"/>
				<polygon fill="#1E5288" points="166.9,443.2 153.2,474.9 188.3,453.8 				"/>
				<polygon fill="#245E9F" points="188.3,453.8 209.7,464.4 177.2,484.6 				"/>
				<polygon fill="#2B74A5" points="172.7,417.1 202.8,404.2 203.7,430 				"/>
				<polygon fill="#3D3C38" points="277.6,494.9 258.4,509.6 232.1,488.6 				"/>
				<polygon fill="#4E2B27" points="277.6,494.9 324.4,527.7 258.4,509.6 				"/>
				<polygon fill="#322E1A" points="258.4,509.6 255.9,535.4 324.4,527.7 				"/>
				<polygon fill="#3D3C38" points="324.4,527.7 274.1,555.7 275.4,533.2 				"/>
				<polygon fill="#484434" points="324.4,527.7 282.9,572.3 290.2,546.8 				"/>
				<polygon fill="#4A5B43" points="282.9,572.3 329.6,554.2 324.4,527.7 				"/>
				<polygon fill="#805264" points="329.6,554.2 320.7,574.3 302.5,564.7 				"/>
			</g>
			<g>
				<polygon fill="#6AAED1" points="466,182.5 453.8,174.3 471.9,160.6 				"/>
				<polygon fill="#44A6C8" points="466,182.5 432.4,233.3 453.8,174.3 				"/>
				<polygon fill="#439CC3" points="453.8,174.3 426.4,193.8 432.4,233.3 				"/>
				<polygon fill="#3597C1" points="426.4,193.8 407.8,230 432.4,233.3 				"/>
				<polygon fill="#437CAB" points="426.4,193.8 401.6,193.8 407.8,230 				"/>
				<polygon fill="#439CC3" points="401.6,193.8 393.7,230 407.8,230 				"/>
				<polygon fill="#44A6C8" points="401.6,193.8 393.7,193 393.7,230 				"/>
				<polygon fill="#3F9BD1" points="401.6,193.8 393.7,157.4 393.7,193 				"/>
				<polygon fill="#439CC3" points="426.4,193.8 420.1,167.3 401.6,193.8 				"/>
				<polygon fill="#6B7DAD" points="466,182.5 449.2,245.4 432.4,233.3 				"/>
				<polygon fill="#74B6CF" points="466,182.5 475.1,197.6 449.2,245.4 				"/>
				<polygon fill="#1E5288" points="475.1,197.6 572.9,110.2 526.1,174.3 				"/>
				<polygon fill="#8C8D8E" points="572.9,110.2 530.5,115.4 537.3,142 				"/>
				<polygon fill="#AB9D7C" points="530.5,115.4 504.2,132 537.3,142 				"/>
				<polygon fill="#C4B0AB" points="504.2,132 513.8,163.1 537.3,142 				"/>
				<polygon fill="#B4CBCE" points="504.2,132 486.2,147.5 513.8,163.1 				"/>
				<polygon fill="#89BED7" points="486.2,147.5 495.4,179.4 513.8,163.1 				"/>
				<polygon fill="#BAB4B3" points="486.2,147.5 471.9,160.6 495.4,179.4 				"/>
				<polygon fill="#93A9AE" points="471.9,160.6 466,182.5 495.4,179.4 				"/>
				<polygon fill="#A8A8A9" points="495.4,179.4 475.1,197.6 466,182.5 				"/>
				<polygon fill="#245E9F" points="572.9,110.2 558.2,201.4 598.7,188.2 				"/>
				<polygon fill="#174182" points="558.2,201.4 582.4,230 598.7,188.2 				"/>
				<polygon fill="#437CAB" points="558.2,201.4 524,193.8 561.6,180.6 				"/>
				<polygon fill="#266979" points="558.2,201.4 550,231.7 582.4,230 				"/>
				<polygon fill="#1D3886" points="582.4,230 575.7,254.8 550,231.7 				"/>
				<polygon fill="#3288AF" points="558.2,201.4 518.5,217.1 550,231.7 				"/>
				<polygon fill="#3D65A8" points="558.2,201.4 524,193.8 518.5,217.1 				"/>
				<polygon fill="#4A5098" points="561.6,180.6 526.1,174.3 524,193.8 				"/>
				<polygon fill="#3D65A8" points="561.6,180.6 566.2,153.9 526.1,174.3 				"/>
				<polygon fill="#224692" points="572.9,110.2 566.2,153.9 526.1,174.3 				"/>
				<polygon fill="#266979" points="524,193.8 475.1,197.6 526.1,174.3 				"/>
				<polygon fill="#2B74A5" points="524,193.8 449.2,245.4 475.1,197.6 				"/>
				<polygon fill="#2F85A3" points="518.5,217.1 449.2,245.4 508.6,245.4 				"/>
				<polygon fill="#3597C1" points="508.6,245.4 495.4,265.9 449.2,245.4 				"/>
				<polygon fill="#437CAB" points="550,231.7 508.6,245.4 518.5,217.1 				"/>
				<polygon fill="#6B7DAD" points="550,231.7 542.8,258.6 508.6,245.4 				"/>
				<polygon fill="#A77C97" points="542.8,258.6 495.4,265.9 531.5,290.2 				"/>
				<polygon fill="#4E97C7" points="542.8,258.6 508.6,245.4 495.4,265.9 				"/>
				<polygon fill="#224692" points="575.7,254.8 542.8,258.6 550,231.7 				"/>
				<polygon fill="#245E9F" points="575.7,254.8 552.4,319.2 542.8,258.6 				"/>
				<polygon fill="#2B74A5" points="542.8,258.6 531.5,290.2 552.4,319.2 				"/>
				<polygon fill="#93A9AE" points="453.7,431 477.3,421.9 453.9,407 442.2,410.6 				"/>
				<polygon fill="#B4CBCE" points="486.1,400 477.3,421.9 453.9,407 				"/>
				<polygon fill="#3288AF" points="524,193.8 518.5,217.1 449.2,245.4 				"/>
				<polygon fill="#74B6CF" points="488.4,378.2 486.1,339.6 454.2,382.2 				"/>
				<polygon fill="#B4CBCE" points="488.4,378.2 469.9,376.1 454.2,382.2 446,393.7 442.2,410.6 451.7,415.9 446.3,409.8 453.9,407 
					472.7,408 486.1,400 				"/>
				<g>
					<path fill="#439CC3" d="M467.1,387.7c-6.9,0-12.7,4.2-14.7,9.9c-0.5-1.4-0.7-2.8-0.7-4.4c0-7.9,6.9-14.3,15.5-14.3
						c8.5,0,15.5,6.4,15.5,14.3c0,1.5-0.3,3-0.7,4.4C479.8,391.9,474,387.7,467.1,387.7z"/>
					<path fill="#184486" d="M467.1,407.6c-6.9,0-12.7-4.2-14.7-9.9c2-5.8,7.8-9.9,14.7-9.9c6.9,0,12.7,4.2,14.7,9.9
						C479.8,403.4,474,407.6,467.1,407.6z"/>
				</g>
				<g>
					<line fill="#B4CBCE" x1="467.1" y1="382.8" x2="467.1" y2="404.2"/>
					<path fill="#B4CBCE" d="M467.1,382.8c0,0,0.1,0.1,0.3,0.2c0.1,0.2,0.4,0.4,0.6,0.7c0.2,0.3,0.6,0.6,0.8,1.1
						c0.3,0.4,0.6,0.9,0.9,1.4c0.6,1,1.1,2.2,1.4,3.4c0.3,1.3,0.5,2.6,0.5,3.9c0,1.3-0.2,2.7-0.5,3.9c-0.3,1.3-0.8,2.4-1.4,3.4
						c-0.3,0.5-0.6,1-0.9,1.4c-0.3,0.4-0.6,0.8-0.8,1.1c-0.2,0.3-0.5,0.5-0.6,0.7c-0.2,0.2-0.3,0.2-0.3,0.2s-0.1-0.1-0.3-0.2
						c-0.1-0.2-0.4-0.4-0.6-0.7c-0.2-0.3-0.6-0.6-0.8-1.1c-0.3-0.4-0.6-0.9-0.9-1.4c-0.6-1-1.1-2.2-1.4-3.4
						c-0.3-1.3-0.5-2.6-0.5-3.9c0-1.3,0.2-2.7,0.5-3.9c0.3-1.3,0.8-2.4,1.4-3.4c0.3-0.5,0.6-1,0.9-1.4c0.3-0.4,0.6-0.8,0.8-1.1
						c0.2-0.3,0.5-0.5,0.6-0.7C467,382.9,467.1,382.8,467.1,382.8z"/>
				</g>
				<path fill="#44A6C8" d="M446,393.7"/>
				<polygon fill="#44A6C8" points="423.5,346.4 446,393.7 427.2,406.1 				"/>
				<polygon fill="#6AAED1" points="442.2,410.6 427.2,406.1 446,393.7 				"/>
				<polygon fill="#74B6CF" points="451.7,415.9 453.7,431 427.2,406.1 442.2,410.6 				"/>
				<polygon fill="#B4CBCE" points="486.1,400 523,392.3 488.4,378.2 				"/>
				<polygon fill="#44A6C8" points="486.1,339.6 454.2,364.1 454.2,382.2 				"/>
				<polygon fill="#74B6CF" points="454.2,364.1 442.7,347.1 439.6,380.2 				"/>
				<polygon fill="#89BED7" points="454.2,364.1 461.1,330.2 442.7,347.1 				"/>
				<polygon fill="#3E97D2" points="442.7,347.1 423.5,346.4 439.6,380.2 				"/>
				<polygon fill="#41A6D1" points="486.1,339.6 461.1,330.2 454.2,364.1 				"/>
				<polygon fill="#50AAD4" points="488.4,378.2 519.4,357.5 486.9,352.8 				"/>
				<polygon fill="#3F9BD1" points="519.4,357.5 486.1,339.6 486.9,352.8 				"/>
				<polygon fill="#6AAED1" points="523,392.3 527.4,376.1 488.4,378.2 				"/>
				<polygon fill="#3F9BD1" points="519.4,357.5 527.4,376.1 488.4,378.2 				"/>
				<polygon fill="#6AAED1" points="477.3,421.9 470.1,445.3 453.7,431 				"/>
				<polygon fill="#74B6CF" points="523,392.3 509.2,419 486.1,400 				"/>
				<polygon fill="#6AAED1" points="486.1,400 477.3,421.9 509.2,419 				"/>
				<polygon fill="#3F9BD1" points="509.2,419 513.4,460.3 477.3,421.9 				"/>
				<polygon fill="#57ACD0" points="477.3,421.9 470.1,445.3 513.4,460.3 				"/>
				<polygon fill="#3966A9" points="477.3,466.9 513.4,471.3 542.4,454.9 				"/>
				<polygon fill="#174182" points="477.3,466.9 457.8,498 513.4,471.3 				"/>
				<polygon fill="#07266B" points="513.4,471.3 509.9,494.9 457.8,498 				"/>
				<polygon fill="#2E2C2A" points="457.8,498 463.1,527.7 509.9,494.9 				"/>
				<polygon fill="#266979" points="542.4,454.9 555.3,488.6 509.9,494.9 				"/>
				<polygon fill="#394994" points="542.4,454.9 509.9,494.9 513.4,471.3 				"/>
				<polygon fill="#224692" points="425,540.2 431.1,464.1 440.4,513.3 				"/>
				<polygon fill="#1D3886" points="426.3,523.6 407.3,504.3 431.1,464.1 				"/>
				<polygon fill="#133B5E" points="407.3,504.3 393.7,504.3 393.7,469.1 				"/>
				<polygon fill="#245E9F" points="431.1,464.1 393.7,469.1 407.3,504.3 				"/>
				<polygon fill="#0C1D4E" points="463.1,527.7 440.4,513.3 425,540.2 				"/>
				<polygon fill="#1E1221" points="463.1,527.7 457.8,554.2 425,540.2 				"/>
				<polygon fill="#161514" points="425,540.2 435.3,565.1 457.8,554.2 				"/>
				<polygon fill="#2E2C2A" points="425,540.2 413,549.3 435.3,565.1 				"/>
				<polygon fill="#4E2B27" points="413,549.3 400.5,554.2 412.7,567.3 				"/>
				<polygon fill="#322E1A" points="413,549.3 412.7,567.3 435.3,565.1 				"/>
				<polygon fill="#322E1A" points="400.5,554.2 393.7,557.2 393.7,567.3 412.7,567.3 				"/>
				<polygon fill="#3D3C38" points="435.3,565.1 412.4,579.5 412.7,567.3 				"/>
				<polygon fill="#484434" points="412.4,579.5 393.7,582.5 393.7,567.3 412.7,567.3 				"/>
				<polygon fill="#EAC7BE" points="408.2,526.7 412.7,535.4 400.5,554.2 				"/>
				<polygon fill="#C4B0AB" points="412.7,535.4 425,540.2 413,549.3 				"/>
				<polygon fill="#BEC4A8" points="412.7,535.4 426.3,523.6 425,540.2 				"/>
				<polygon fill="#93A9AE" points="412.7,535.4 407.3,504.3 426.3,523.6 				"/>
				<polygon fill="#89BED7" points="407.3,504.3 408.2,526.7 412.7,535.4 				"/>
				<polygon fill="#AB9D7C" points="408.2,526.7 393.7,504.3 407.3,504.3 				"/>
				<polygon fill="#99C09A" points="400.5,554.2 412.7,535.4 413,549.3 				"/>
				<polygon fill="#BEC4A8" points="408.2,526.7 393.7,504.3 400.5,554.2 				"/>
				<polygon fill="#C4B0AB" points="400.5,554.2 393.7,557.2 393.7,504.3 				"/>
				<polygon fill="#3D3C38" points="457.8,554.2 466.8,574.3 435.3,565.1 				"/>
				<polygon fill="#5F524C" points="435.3,565.1 462.4,596.4 466.8,574.3 				"/>
				<polygon fill="#484434" points="435.3,565.1 435.3,589.4 462.4,596.4 				"/>
				<polygon fill="#4A5B43" points="435.3,565.1 412.4,579.5 435.3,589.4 				"/>
				<polygon fill="#484434" points="412.4,579.5 425,617.6 435.3,589.4 				"/>
				<polygon fill="#805264" points="412.4,579.5 393.7,617.8 393.7,582.5 				"/>
				<polygon fill="#67401B" points="420.2,603.1 393.7,617.8 412.4,579.5 				"/>
				<polygon fill="#2D7C95" points="457.8,498 431.1,464.1 440.4,513.3 				"/>
				<polygon fill="#266979" points="457.8,498 463.1,527.7 440.4,513.3 				"/>
				<polygon fill="#2B74A5" points="457.8,498 477.3,466.9 431.1,464.1 				"/>
				<polygon fill="#394994" points="431.1,464.1 393.7,446.8 393.7,469.1 				"/>
				<polygon fill="#2F85A3" points="427.2,406.1 410,427.1 431.1,464.1 				"/>
				<polygon fill="#3288BA" points="427.2,406.1 453.7,431 431.1,464.1 				"/>
				<polygon fill="#3966A9" points="427.2,406.1 402.5,402.2 393.7,446.8 				"/>
				<polygon fill="#3288BA" points="402.5,402.2 393.7,402.2 393.7,378.2 				"/>
				<polygon fill="#3288AF" points="402.5,402.2 410,378.2 427.2,406.1 				"/>
				<polygon fill="#439CC3" points="410,378.2 423.5,346.4 427.2,406.1 				"/>
				<polygon fill="#317FBF" points="402.5,402.2 393.7,446.8 393.7,402.2 				"/>
				<polygon fill="#2B74A5" points="410.5,426.6 431.1,464.1 393.7,446.8 				"/>
				<polygon fill="#3799BB" points="470.1,445.3 431.1,464.1 453.7,431 				"/>
				<polygon fill="#3597C1" points="470.1,445.3 477.3,466.9 431.1,464.1 				"/>
				<polygon fill="#3799BB" points="513.4,460.4 477.3,466.9 470.1,445.3 				"/>
				<polygon fill="#50AAD4" points="454.2,364.1 454.2,382.2 446,393.7 439.6,380.2 				"/>
				<polygon fill="#306B77" points="575.7,254.8 588.4,278 552.4,319.2 				"/>
				<polygon fill="#3C7684" points="588.4,278 583.8,307.3 552.4,319.2 				"/>
				<polygon fill="#2D7C95" points="583.8,307.3 559.2,338.5 552.4,319.2 				"/>
				<polygon fill="#3288AF" points="583.8,307.3 596.2,335.5 559.2,338.5 				"/>
				<polygon fill="#2B74A5" points="596.2,335.5 570.4,358.7 559.2,338.5 				"/>
				<polygon fill="#2F85A3" points="596.2,335.5 607.6,357.5 570.4,358.7 				"/>
				<polygon fill="#335AA0" points="607.6,357.5 584.7,382.4 570.4,358.7 				"/>
				<polygon fill="#224692" points="607.6,357.5 625.9,396 584.7,382.4 				"/>
				<polygon fill="#394994" points="611.2,391.1 584.7,404.2 584.7,382.4 				"/>
				<polygon fill="#3288BA" points="552.4,319.2 531.5,290.2 486.1,339.6 				"/>
				<polygon fill="#3966A9" points="531.5,290.2 495.4,265.9 486.1,339.6 				"/>
				<polygon fill="#3D65A8" points="495.4,265.9 461.1,330.2 486.1,339.6 				"/>
				<polygon fill="#4A5098" points="495.4,265.9 440.1,291.5 461.1,330.2 				"/>
				<polygon fill="#3966A9" points="495.4,265.9 449.2,245.4 440.1,291.5 				"/>
				<polygon fill="#2F85A3" points="440.1,291.5 442.7,347.1 461.1,330.2 				"/>
				<polygon fill="#3799BB" points="440.1,291.5 423.5,346.4 442.7,347.1 				"/>
				<polygon fill="#317FBF" points="440.1,291.5 393.7,325.2 423.5,346.4 				"/>
				<polygon fill="#3597C1" points="440.1,291.5 393.7,282.1 393.7,325.2 				"/>
				<polygon fill="#3597C1" points="432.4,233.3 440.1,291.5 449.2,245.4 				"/>
				<polygon fill="#3288BA" points="432.4,233.3 393.7,282.1 440.1,291.5 				"/>
				<polygon fill="#3966A9" points="423.5,346.4 393.7,378.2 410,378.2 				"/>
				<polygon fill="#317FBF" points="410,378.2 393.7,378.2 402.5,402.2 				"/>
				<polygon fill="#2D7AB2" points="423.5,346.4 393.7,325.2 393.7,378.2 				"/>
				<polygon fill="#2D7AB2" points="432.4,233.3 407.8,230 393.7,282.1 				"/>
				<polygon fill="#2B66AA" points="407.8,230 393.7,230 393.7,282.1 				"/>
				<polygon fill="#74B6CF" points="523,392.3 545.7,404.2 531.5,418.6 				"/>
				<polygon fill="#57ACD0" points="545.7,404.2 555.3,439.7 531.5,418.6 				"/>
				<polygon fill="#3E97D2" points="555.3,439.7 542.4,454.9 597.9,486.7 				"/>
				<polygon fill="#3966A9" points="577.7,464.4 583.8,430 555.3,439.7 				"/>
				<polygon fill="#3597C1" points="583.8,430 545.7,404.2 555.3,439.7 				"/>
				<polygon fill="#3F9BD1" points="531.5,418.6 509.2,419 523,392.3 				"/>
				<polygon fill="#3288BA" points="531.5,418.6 542.4,454.9 509.2,419 				"/>
				<polygon fill="#3799BB" points="531.5,418.6 555.3,439.7 542.4,454.9 				"/>
				<polygon fill="#348EBB" points="509.2,419 513.4,460.4 542.4,454.9 				"/>
				<polygon fill="#3288AF" points="555.3,488.6 572.4,472.1 542.4,454.9 				"/>
				<polygon fill="#2D7C95" points="572.4,472.1 584.7,496 555.3,488.6 				"/>
				<polygon fill="#2D7C95" points="584.7,382.4 545.7,404.2 584.7,404.2 				"/>
				<polygon fill="#3288AF" points="584.7,404.2 583.8,430 545.7,404.2 				"/>
				<polygon fill="#437CAB" points="584.7,382.4 523,392.3 545.7,404.2 				"/>
				<polygon fill="#6B7DAD" points="584.7,382.4 527.4,376.1 523,392.3 				"/>
				<polygon fill="#537CAB" points="519.4,357.5 584.7,382.4 527.4,376.1 				"/>
				<polygon fill="#3D65A8" points="519.4,357.5 570.4,358.7 584.7,382.4 				"/>
				<polygon fill="#2E68AC" points="519.4,357.5 559.2,338.5 570.4,358.7 				"/>
				<polygon fill="#3568AB" points="552.4,319.2 519.4,357.5 559.2,338.5 				"/>
				<polygon fill="#2F85A3" points="552.4,319.2 486.1,339.6 519.4,357.5 				"/>
				<polygon fill="#1D3886" points="584.7,404.2 635.9,426.1 611.2,391.1 				"/>
				<polygon fill="#224692" points="583.8,430 614.8,417.1 641,450.6 				"/>
				<polygon fill="#394994" points="583.8,430 620.5,443.2 577.7,464.4 				"/>
				<polygon fill="#1E5288" points="620.5,443.2 634.3,474.9 599.1,453.8 				"/>
				<polygon fill="#245E9F" points="599.1,453.8 577.7,464.4 610.3,484.6 				"/>
				<polygon fill="#2B74A5" points="614.8,417.1 584.7,404.2 583.8,430 				"/>
				<polygon fill="#3D3C38" points="509.9,494.9 529,509.6 555.3,488.6 				"/>
				<polygon fill="#4E2B27" points="509.9,494.9 463.1,527.7 529,509.6 				"/>
				<polygon fill="#322E1A" points="529,509.6 531.5,535.4 463.1,527.7 				"/>
				<polygon fill="#3D3C38" points="463.1,527.7 513.4,555.7 512.1,533.2 				"/>
				<polygon fill="#484434" points="463.1,527.7 504.5,572.3 497.3,546.8 				"/>
				<polygon fill="#4A5B43" points="504.5,572.3 457.8,554.2 463.1,527.7 				"/>
				<polygon fill="#805264" points="457.8,554.2 466.8,574.3 485,564.7 				"/>
			</g>
		</g>
	</g>
</g>
</svg>
